<svg xmlns="http://www.w3.org/2000/svg" x="0" y="0" viewBox="0 0 200 200" width="20" height="20" xml:space="preserve">
  <style>
    .st0{fill:#0194a9}
  </style>
  <path class="st0" d="M139.3 90c-12.9 0-14.7 12.9-14.7 12.9H152c.1-.1.2-12.9-12.7-12.9zM77.2 102.8H52.9v22.3H76c3.5-.1 10-1.1 10-10.8-.1-11.6-8.8-11.5-8.8-11.5z"/>
  <path class="st0" d="M100 0C44.8 0 0 44.8 0 100s44.8 100 100 100 100-44.8 100-100S155.2 0 100 0zm21.1 61.4h34.4v10.3h-34.4V61.4zm-17.4 53.9c0 25.5-26.5 24.6-26.5 24.6H33.7V56.5h43.4c13.2 0 23.6 7.3 23.6 22.2S88 94.6 88 94.6c16.8 0 15.7 20.7 15.7 20.7zm64.4-1.3h-43.2c0 15.5 14.7 14.5 14.7 14.5 13.9 0 13.4-9 13.4-9h14.7c0 23.8-28.6 22.2-28.6 22.2-34.3 0-32.1-31.9-32.1-31.9s0-32.1 32.1-32.1c33.7.1 29 36.3 29 36.3z"/>
  <path class="st0" d="M83.1 80c0-8.7-5.9-8.7-5.9-8.7H52.9V90h22.8c3.9 0 7.4-1.3 7.4-10z"/>
</svg>
