<svg xmlns="http://www.w3.org/2000/svg" viewBox="0 0 200 200" width="20" height="20">
  <path d="M100 0C44.8 0 0 45.9 0 102.5c0 45.3 28.7 83.7 68.4 97.3 5 .9 6.8-2.2 6.8-5 0-2.5-.1-8.9-.1-17.5-27.8 6.2-33.7-13.8-33.7-13.8-4.6-11.8-11.1-15-11.1-15-9.1-6.4.7-6.2.7-6.2 10 .7 15.3 10.6 15.3 10.6 8.9 15.7 23.4 11.2 29.1 8.5.9-6.6 3.5-11.2 6.3-13.7-22.2-2.6-45.5-11.4-45.5-50.7 0-11.2 3.9-20.4 10.3-27.5-1-2.6-4.5-13 1-27.1 0 0 8.4-2.8 27.5 10.5 8-2.3 16.5-3.4 25-3.4s17.1 1.2 25 3.4c19.1-13.3 27.5-10.5 27.5-10.5 5.4 14.1 2 24.6 1 27.1 6.4 7.2 10.3 16.3 10.3 27.5 0 39.4-23.4 48-45.7 50.6 3.6 3.2 6.8 9.4 6.8 19 0 13.7-.1 24.8-.1 28.1 0 2.7 1.8 5.9 6.9 4.9 39.8-13.5 68.4-51.9 68.4-97.2C200 45.9 155.2 0 100 0z" fill-rule="evenodd" clip-rule="evenodd" fill="#0194a9"/>
</svg>
