<svg version="1.1" id="Layer_1" xmlns="http://www.w3.org/2000/svg" x="0" y="0" viewBox="0 0 20 20" xml:space="preserve">
  <style>
    .st0{fill:#0194a9}
  </style>
  <path class="st0" d="M12.8 10.5c-1 0-1.9.8-1.9 1.9 0 1 .8 1.9 1.9 1.9 1 0 1.9-.8 1.9-1.9-.1-1.1-.9-1.9-1.9-1.9z"/>
  <path class="st0" d="M10 0C4.5 0 0 4.5 0 10s4.5 10 10 10 10-4.5 10-10S15.5 0 10 0zm2.8 15.9c-.8 0-1.6-.3-2.2-.7l-1.4 1.4c0 .1.1.2.1.3 0 .3-.1.6-.3.8-.3.2-.5.3-.8.3s-.6-.1-.8-.3c-.2-.2-.3-.5-.3-.8s.1-.6.3-.8c.2-.2.5-.3.8-.3.1 0 .3 0 .4.1l1.4-1.4c-.4-.6-.7-1.3-.7-2.1 0-1 .4-1.9 1.1-2.6L5.8 6.6c-.2.2-.4.3-.7.3-.8 0-1.4-.6-1.4-1.4 0-.9.6-1.5 1.4-1.5s1.4.6 1.4 1.4c0 .1 0 .3-.1.4 1.4 1.1 3.9 2.8 4.6 3.4.4-.2.8-.3 1.2-.4V7.2c-.4-.2-.7-.7-.7-1.2 0-.7.6-1.3 1.3-1.3s1.3.6 1.3 1.3c0 .5-.3 1-.8 1.2v1.7c1.7.3 3 1.7 3 3.5 0 1.9-1.6 3.5-3.5 3.5z"/>
</svg>
