<svg xmlns="http://www.w3.org/2000/svg" viewBox="0 0 200 200" width="20" height="20">
  <path d="M130.9 75.3h5c2.2-.1 3.9-1.9 3.9-4.1v-9.6c0-2.3-1.8-4.1-4.1-4.1h-9.6c-2.3 0-4.1 1.8-4.1 4.1v9.5c0 .5.1 1 .2 1.4.6 1.7 2.1 2.7 4 2.7 1.6.1 3.2.1 4.7.1zM100 79.4c-11.3 0-20.4 9.1-20.6 20.3-.2 11.5 9.1 20.7 20.1 20.9 11.5.2 20.8-9 21.1-20.1.2-11.6-9.1-21.1-20.6-21.1zm-39.8 11v45.4c0 2.2 1.9 4 4 4h71.6c2.2 0 4.1-1.9 4.1-4V90.4h-9.7c1.4 4.4 1.8 8.8 1.3 13.4s-2 8.8-4.4 12.7c-2.4 3.9-5.5 7.2-9.3 9.7-9.8 6.7-22.7 7.3-33.2 1.4-5.3-2.9-9.4-7.1-12.3-12.4-4.3-7.9-5-16.2-2.5-24.8h-9.6zm80.5 60.5c.5-.1 1.1-.2 1.6-.3 4.2-.9 7.5-4.3 8.4-8.5.1-.5.1-.9.2-1.4V59.3c-.1-.4-.1-.9-.2-1.3-.9-4.6-4.7-8.1-9.3-8.7-.2 0-.4-.1-.6-.1H59.2l-1.5.3c-4.5 1-7.8 4.7-8.5 9.2 0 .2-.1.4-.1.6v81.6c.1.5.2 1 .3 1.6 1 4.4 4.8 7.8 9.2 8.4.2 0 .4.1.7.1h81.4zM100 200C44.8 200 0 155.2 0 100S44.8 0 100 0s100 44.8 100 100-44.8 100-100 100z" fill-rule="evenodd" clip-rule="evenodd" fill="#0194a9"/>
</svg>
