<svg xmlns="http://www.w3.org/2000/svg" viewBox="0 0 200 200" width="20" height="20">
  <path d="M100 0C44.8 0 0 44.8 0 100s44.8 100 100 100 100-44.8 100-100S155.2 0 100 0zm50.4 79.8c.1 1.1.1 2.2.1 3.3 0 33.3-25.3 71.7-71.7 71.7-14.2 0-27.5-4.2-38.6-11.3 2 .2 4 .3 6 .3 11.8 0 22.7-4 31.3-10.8-11-.2-20.3-7.5-23.5-17.5 1.5.3 3.1.5 4.7.5 2.3 0 4.5-.3 6.6-.9C53.7 112.8 45 102.6 45 90.4v-.3c3.4 1.9 7.3 3 11.4 3.2-6.8-4.5-11.2-12.2-11.2-21 0-4.6 1.2-9 3.4-12.7 12.4 15.2 31 25.3 51.9 26.3-.4-1.8-.7-3.8-.7-5.7C99.8 66.3 111.1 55 125 55c7.2 0 13.8 3.1 18.4 8 5.7-1.1 11.1-3.2 16-6.1-1.9 5.9-5.9 10.8-11.1 13.9 5.1-.6 10-2 14.5-4-3.2 5-7.5 9.5-12.4 13z" fill="#0194a9"/>
</svg>
