<svg xmlns="http://www.w3.org/2000/svg" xml:space="preserve" id="Layer_1" x="0" y="0" style="enable-background:new 0 0 154 36" version="1.1" viewBox="0 0 154 36"><style>.st0{fill:#b4b7c9}</style><path d="M86 28.5h-7.8c-.2 0-.4 0-.7-.1-.2-.1-.4-.2-.5-.4-.2-.2-.3-.4-.4-.6-.1-.2-.1-.4-.1-.7V9.2c0-.2 0-.4.1-.6s.4-.4.5-.6c.2-.2.3-.3.5-.4.2-.1.4-.1.6-.1h7.2c4 0 6.4 2.3 6.4 5.3s-1.9 4.1-2.5 4.4c1 .3 3.7 1.4 3.7 5.2.1 3.3-2.5 6.1-7 6.1zm-.6-17.9H80v5.3h5.4c2.1 0 3.2-1.2 3.2-2.6-.1-1.5-1-2.7-3.2-2.7zm.8 8.3H80v6.4h6.2c2.5 0 3.6-1.6 3.6-3.2 0-1.5-1.2-3.2-3.6-3.2zm16.6 9.5h-5.1c-.2 0-.4 0-.7-.1-.2-.1-.4-.2-.6-.4-.2-.2-.3-.3-.4-.6 0-.1-.1-.3 0-.6V9.2c0-.2 0-.4.1-.6.1-.2.2-.4.4-.5.2-.2.3-.3.6-.4.2-.1.4-.1.6-.1h5.1c7 0 10.9 4.6 10.9 10.4-.1 5.8-4 10.5-10.9 10.4zm-.2-17.8h-3.2v14.7h3.2c4.9 0 7.7-2.9 7.7-7.4 0-4.4-2.7-7.3-7.7-7.3zM40.6 15.6zM41.4 12.6c-.1.2-.2.5-.3.7.1-.3.2-.6.3-.8.1 0 .1 0 0 .1zM40.8 14.6c0-.1.1-.2.1-.4-.1.2-.1.3-.1.4zM41.7 12c.2-.5.5-1 .8-1.5-.2.4-.5.9-.8 1.5zM54.1 32h-.6.6zM52.8 31.9h-.3.3zM42.6 10.5c0-.1 0-.1 0 0 0-.1 0-.1 0 0zM41.6 12.3c0 .1 0 .1-.1.2 0-.1.1-.2.1-.2zM41.6 12.2c0-.1.1-.1.1-.2 0 0 0 .1-.1.2zM40.6 15.6c-.1.8-.2 1.6-.2 2.4 0 .7 0 1.3.1 2-.2-1.5-.2-3 .1-4.4zM40.6 15.5c.1-.3.1-.6.2-.9-.1.3-.2.6-.2.9zM40.9 14.3c.1-.3.2-.7.3-1-.1.3-.2.6-.3 1zM54.4 4s1.5 7.9 1.5 8.3c0 .1.1.1.1.1s.1 0 .1-.1l5.8-6.1C59.7 4.8 57.1 4 54.4 4z" class="st0"/><path d="M49.8 14.2c.1 0 .1 0 0 0 .1-.1.1-.1 0 0 .1-.1.1-.1 0 0l.1-.1-3.2-7.8c-1.7 1.1-3.1 2.5-4.1 4.1 0 0 0 .1-.1.1-.3.5-.6 1-.8 1.5 0 .1-.1.1-.1.2l8.2 2zM52.6 12.3l.1.1s.1 0 .1-.1c0-.4 1.6-8.3 1.6-8.3-2.7 0-5.3.8-7.5 2.2l5.7 6.1zM48.4 17.3c.1 0 .1-.1 0 0 .1-.1.1-.1 0-.2l-6.8-4.8c0 .1-.1.1-.1.2-.1.3-.2.6-.3.8-.1.3-.2.7-.3 1 0 .1-.1.2-.1.4-.1.3-.1.6-.2.9v.1c-.2 1.4-.3 2.9 0 4.3l7.8-2.7zM67.1 12.3l-6.9 4.8-.1.1s0 .1.1.1l7.9 2.7c.1-.7.1-1.3.1-2 .2-2-.3-3.9-1.1-5.7zM62 6.3s-3.1 7.7-3.2 7.8v.1h.2l8.1-2C66 9.8 64.2 7.7 62 6.3zM53.4 32c-.2 0-.4 0-.6-.1.2 0 .4 0 .6.1zM54.3 32h.2-.4.2zM44.5 27.9c-2-2-3.3-4.5-3.8-7.2 0-.2-.1-.4-.1-.6.5 3.3 2.2 6.3 4.7 8.5 2.1 1.8 4.6 2.9 7.3 3.2-.3 0-.5-.1-.8-.1-2.8-.5-5.3-1.8-7.3-3.8z" class="st0"/><path d="m68.2 20.1-5.2.7h-.1v.1c-.5 1.5-1.4 2.8-2.6 3.9-1.2 1-2.7 1.7-4.2 2 .8-.4 1.4-1 1.7-1.7.4-.8.5-1.6.3-2.4-.2-.8-.6-1.5-1.3-2.1-.7-.5-1.5-.8-2.3-.8s-1.6.3-2.3.8c-.7.5-1.1 1.2-1.3 2.1-.2.8-.1 1.7.3 2.4.4.8 1 1.4 1.7 1.7-1.6-.3-3-1-4.2-2-1.2-1-2.1-2.4-2.6-3.9v-.1H46l-5.2-.7c0 .2.1.4.1.6.5 2.7 1.9 5.2 3.8 7.2 2 2 4.5 3.3 7.2 3.8.3.1.5.1.8.1h.3c.2 0 .4 0 .6.1h1c3.3 0 6.5-1.2 9-3.4 2.4-2.1 4.1-5.1 4.6-8.4z" class="st0"/></svg>