<svg xmlns="http://www.w3.org/2000/svg" xml:space="preserve" id="Layer_1" x="0" y="0" style="enable-background:new 0 0 154 36" version="1.1" viewBox="0 0 154 36"><style>.st0{fill:#b4b7c9}</style><path d="M55.4 29.6v-1.5V31v-1.4zM109.6 29.6v-1.5V31v-1.4zM96 4.6H91.4v.6h2.2v11c-.1-.2-.2-.3-.2-.4-2.2-3.6-4.3-7.1-6.5-10.7-.2-.3-.4-.5-.8-.5H80.5v.6h2.2v16.2h-1.6c-.3 0-.4-.1-.5-.3-.3-.8-.5-1.6-.8-2.4-1.7-4.7-3.3-9.4-5-14.2-.1-.3-.2-.5-.5-.4-.1.1-.2.3-.3.4-1.8 5.1-3.5 10.2-5.3 15.3-.2.7-.5 1.4-.7 2 .3.1.5.1.6-.3.6-1.6 1.1-3.3 1.7-4.9.1-.2.2-.4.5-.4h4.4c.3 0 .4.1.5.4.4 1.2.8 2.4 1.1 3.6.1.3.2.6.3 1H75v.5h10.1c.5 0 .5 0 .4-.5h-1.7c-.3 0-.4-.1-.4-.4V5.4c.1.2.2.3.3.4 3.3 5.4 6.7 10.7 10 16.1.1.2.3.4.6.3.3-.1.2-.3.2-.5V5.5c0-.5 0-.5.5-.5h1.6c-.1-.2-.2-.4-.6-.4zM70.5 15.9c.8-2.3 1.6-4.7 2.4-7h.1c.7 2.3 1.5 4.6 2.2 7h-4.7zM46.6 4c-5.1-.1-9.1 3.9-9.5 8.3C38.8 8.4 42.7 7 46 7.7c3.1.7 6 3.3 6.1 7.4.1 3-1.7 6.4-5.5 7.6 4.8 0 9-3.8 9.3-8.9.2-5.3-3.9-9.6-9.3-9.8zM124.8 17.1c-.3 2.2-1.8 3.9-4 4.2-1 .2-2.1.1-3.2.2-.3 0-.5-.1-.5-.4v-7.7c1.1-.1 2 .2 2.6 1.1.4.6.6 1.2.6 1.9 0 .4.1.5.5.3V9.5c-.5-.1-.4-.1-.5.4-.1.4-.1.8-.2 1.1-.5 1.3-1.7 2.1-3 1.8V5.5c0-.2.1-.3.3-.3h1.9c1.6 0 2.8.7 3.5 2.1.4.7.6 1.5.6 2.4 0 .5.1.5.6.4V4.7h-12.6v.5h1.7c.5 0 .5 0 .5.5v15.8h-2.2v.6h13.8v-6h-.5c.2.3.2.6.1 1zM109.9 22.4v-6.8h-.5V15.9c-.1 1.9-.8 3.5-2.2 4.8-1 1-2.3 1.5-3.7 1.3-1-.1-1.8-.5-2.2-1.5-.3-.8-.6-1.6-.7-2.4-.4-2.5-.4-4.9-.2-7.4.1-1.1.2-2.3.5-3.4.7-2.6 3.1-3 4.7-2.1 1.7.9 2.9 2.4 3.3 4.4.1.2.1.5.1.7h.5v-6c-.2 0-.4 0-.5.1-.4.5-1 .6-1.6.5-.6-.1-1.2-.3-1.8-.4-.7-.1-1.3-.3-2-.2-2.4.1-4.1 1.3-5.4 3.2-1.5 2.1-2 4.5-1.7 7 .3 2.5 1.2 4.6 3.2 6.2 1.7 1.4 3.6 2 5.8 1.5.9-.2 1.7-.4 2.6-.6.5-.1 1 0 1.3.4.1.4.2.5.5.4zM54.4 5.2h1.7c.2 0 .4.1.4.3.4.9.8 1.9 1.1 2.8 1.9 4.6 3.7 9.2 5.6 13.8.1.2.2.4.5.4s.3-.2.4-.4c1.6-5 3.3-10 4.9-15 .3-.8.5-1.6.8-2.4-.3-.2-.5 0-.6.3-1 3.1-2 6.1-3 9.2-.4 1.2-.8 2.3-1.1 3.5H65c-1.6-4.1-3.3-8.2-4.9-12.4h2.1c.5 0 .5-.1.4-.5h-8.5c-.1.3-.1.4.3.4zM28.6 5.2h2.2V21c0 .3-.1.5-.4.4h-1.8v.6h7.9v-.5h-2.2V5.2h2.2v-.5h-7.9v.5zM33.9 29.6s-.1-.1-.2-.1l.1-.1c.4-.3.6-.7.4-1.3-.2-.5-.6-.8-1.2-.8h-2c-.2 0-.3 0-.3.3v4.1c0 .1.2.2.2.2h2.4c.6 0 1.1-.4 1.1-.9.3-.7.1-1-.5-1.4zm-2.4-1.5c0-.1.1-.2.2-.2h.6c.3 0 .6 0 .8.1.2.1.4.3.4.5s-.2.5-.4.6c-.5.1-1 .1-1.6.1l-.1-.1c.1-.3.1-.6.1-1zm1.9 3.1c-.6.1-1.1.1-1.7.1-.1 0-.1-.1-.2-.2v-.2c0-.9 0-.9.9-1 .3 0 .6 0 1 .1.3.1.5.3.5.6s-.2.6-.5.6zM43.9 27.2c-1.6 0-2.5 1.2-2.4 2.5 0 1.4 1 2.3 2.4 2.3s2.4-1 2.4-2.4c.1-1.3-.8-2.4-2.4-2.4zm0 4.2c-.9 0-1.6-.7-1.6-1.7s.8-1.8 1.7-1.8c.9 0 1.6.7 1.6 1.8-.1.9-.7 1.7-1.7 1.7zM72 30.1c.7-.3 1-.9.9-1.6-.1-.7-.7-1.1-1.4-1.2h-2c-.2 0-.3.1-.3.3v4c0 .3.2.3.4.3s.4 0 .4-.3v-1c0-.2.1-.3.3-.3.6-.1 1 0 1.3.6.1.2.3.4.4.6.3.5.5.5 1.1.4-.4-.6-.8-1.1-1.2-1.7 0-.1 0-.1.1-.1zm-2-.5c-.1 0-.2-.1-.2-.2v-1.2c0-.1.1-.2.2-.2h.6c.3 0 .6 0 .9.1.4.1.6.4.6.8s-.2.7-.5.8c-.6-.1-1.1-.1-1.6-.1zM59.2 27.6c0-.3-.2-.3-.4-.3s-.4.1-.3.3v1.3c0 .3-.1.4-.4.4h-1.7c-.3 0-.3-.1-.3-.3v-1.3c0-.3-.1-.3-.4-.3-.2 0-.4 0-.4.3v3.9c0 .3.1.4.4.4.3 0 .4-.1.4-.4v-1.3c0-.2.1-.3.3-.3h1.7c.2 0 .3.1.3.3v1.4c0 .3.1.3.3.3.2 0 .4 0 .4-.3.1-1.4.1-2.7.1-4.1zM92.9 31.3h-1.4c-1.1 0-1 .2-1-1 0-.3.1-.4.4-.4h1.7c.2 0 .3-.1.3-.3 0-.2 0-.3-.3-.3h-1.2c-1 0-.9.2-.9-1 0-.3.1-.4.4-.3h2c.2 0 .3-.1.3-.3 0-.2-.1-.3-.3-.3h-2.8c-.3 0-.3.1-.3.3v4c0 .2.1.3.3.3h2.8c.2 0 .3 0 .3-.3s-.1-.4-.3-.4zM65.7 31.3h-1.4c-1 0-1 0-1-1 0-.3.1-.4.4-.4h1.6c.2 0 .4 0 .4-.3s-.1-.3-.4-.3h-1.1c-1 0-1 0-1-1 0-.3.1-.4.4-.4h1.9c.2 0 .4 0 .4-.3s-.1-.4-.4-.4h-2.7c-.3 0-.4.1-.4.4v3.9c0 .2.1.3.3.3h2.8c.2 0 .3-.1.3-.3.3-.1.1-.2-.1-.2zM62.6 29.6v-1.9 3.9-2zM78.6 27.6c-.1-.2-.2-.4-.5-.4s-.4.1-.5.4l-1.8 3.9c-.1.1-.1.2-.1.4.7.1.7.1.9-.5 0-.1.1-.2.1-.3.1-.2.2-.3.5-.3h1.3c.8 0 .6-.1.9.6.3.6.3.6 1 .5 0-.1-.1-.2-.1-.3-.6-1.3-1.1-2.7-1.7-4zm-1.4 2.5c.3-.7.6-1.3.8-1.9h.1c.3.6.5 1.2.8 1.9h-1.7zM99.8 27.2c-.3 0-.3.1-.3.4V30c0 .7-.4 1.2-1 1.3-.9.1-1.5-.4-1.5-1.3v-2.4c0-.3-.1-.3-.3-.3-.2 0-.4 0-.4.3V30.2c0 1.1.5 1.6 1.6 1.8h.6c1-.1 1.6-.7 1.7-1.7v-2.6c-.1-.4-.1-.5-.4-.5zM122.9 29.4c-.4-.1-.8-.2-1.2-.4-.3-.1-.6-.3-.5-.7 0-.3.3-.6.7-.5.5.1.9.2 1.4.3.1-.1.2-.2.3-.4-.8-.5-1.5-.7-2.4-.4-.5.2-.8.6-.8 1.1 0 .7.2 1 .9 1.3.4.1.9.2 1.3.4.3.1.5.3.4.6-.1.3-.3.5-.6.5-.5.1-1-.1-1.5-.4-.1-.1-.2-.1-.3-.2-.1.2-.3.3-.4.5.7.6 1.4.8 2.2.7.7-.1 1.2-.5 1.3-1.2.2-.4-.1-.9-.8-1.2zM85.4 27.3h-1.7c-.3 0-.4.1-.4.4v4c0 .3.1.3.4.3.3 0 .4-.1.4-.3V31c0-.3.1-.5.4-.5h.9c.9-.1 1.5-.7 1.5-1.6 0-1-.6-1.5-1.5-1.6zm.2 2.3c-.4.1-.9.1-1.4.1-.1 0-.2-.2-.2-.2v-1.3c0-.1.2-.2.3-.3h1c.4 0 .7.3.8.7.1.5-.1.9-.5 1zM83.4 29.6v-2 4-2zM114.6 30.8c-.6-.6-.6-1.7 0-2.3.2-.3.6-.5.9-.6.6-.2 1.2.1 1.6.5.2-.2.3-.4.4-.5-.8-.9-2.5-1-3.4-.1-1 1-1 2.6 0 3.6.9.9 2.6.8 3.5-.2l-.4-.4c-1.2.7-1.9.7-2.6 0zM52.3 27.3H49c-.2 0-.2.2-.2.3 0 .2 0 .3.3.3h.8c.4 0 .5.1.5.5v3.2c0 .3.1.4.4.4.3 0 .4-.1.4-.4v-3.2c0-.3.1-.4.4-.4h.8c.2 0 .3-.1.3-.3-.1-.2-.1-.4-.4-.4zM50.3 29.9v-1.1 2.8-1.7zM106.5 27.3h-3.3c-.2 0-.2.2-.2.3 0 .2 0 .3.3.3h.9c.3 0 .4.1.4.4v3.3c0 .2.1.3.3.3.3 0 .5-.1.4-.4v-3.1c0-.3 0-.4.4-.4h.9c.2 0 .3-.1.3-.3-.2-.2-.2-.4-.4-.4zM104.5 29.9v-1.6 3.3-1.7zM38 27.3c-.3 0-.4.1-.4.3v3.9c0 .3.1.3.3.3.2 0 .4 0 .4-.3v-4c.1-.2-.1-.2-.3-.2zM37.7 29.6v-1.4 2.9-1.5zM110.3 27.6c0-.3-.1-.3-.4-.3-.3 0-.4.1-.4.3v3.9c0 .2 0 .4.3.4.2 0 .4 0 .4-.3.1-1.3.1-2.6.1-4z" class="st0"/></svg>