<svg xmlns="http://www.w3.org/2000/svg" xml:space="preserve" id="Layer_1" x="0" y="0" style="enable-background:new 0 0 154 36" version="1.1" viewBox="0 0 154 36"><style>.st0{fill:#b4b7c9}</style><path d="M96.4 16.3s.1 0 0 0c.1 0 0 0 0 0zM96.7 16.5s-.1 0-.1-.1l.1.1zM141 16.3zM87.4 16.3c.1 0 .2-.1.3-.1-.1 0-.2 0-.3.1zM54.8 11.4c.1.1.1.3.2.5h-.3c-1.2-.6-2.4-.4-3.6.1-.4.2-.8.3-1.2.3-.3 0-.6 0-.7-.3-.1-.3-.5-.4-.8-.2-.3.2-.3.6 0 .8.2.2.2.4.1.6l-2.1 7.2c-.1.4-.2.8-.8.9.4.3.7.6 1.1.7 1.3.3 2.6.3 4 0 .5-.1.9-.3 1.1-.7-.2-.2-.4-.3-.5-.5L48.9 13c-.1-.3.1-.5.4-.4.6.2 1.2.1 1.8-.1.3-.1.7-.3 1.1-.4.6-.2 1.3-.1 1.9.2.2.1.5.4.5.5 0 .4.4.7 0 1.1 0 0 .1.1.1.2s.1.3.1.4c0 .8-.1 1.7-.1 2.5v1.2c0 .3.1.6.1.9v2.3c0 .5-.5 1.2-1 1.3-.3.1-.5.1-.8.3-.4.2-.4.5 0 .6.2.1.5.2.8.2h2.9c.3 0 .5-.1.8-.2.1-.1.3-.2.3-.4 0-.1-.2-.3-.3-.3-.2-.1-.5-.2-.8-.3-.4-.1-.7-.2-.8-.7-.1-.3-.2-.6-.2-.9.1-.4 0-.8 0-1.2v-1.6c0-.3.1-.5.1-.8 0-.5-.1-1-.2-1.4-.2-.9.2-1.7 0-2.6-.1-.8.6-1.6 1.6-1.5.5 0 1 .2 1.5.3.6.2 1.3.3 1.9.1h.5c.1 0 0 .3 0 .5L59 20c-.1.4-.2.7-.7.8.3.3.7.6 1.1.7 1.3.3 2.6.3 4 0 .5-.1.9-.3 1-.7-.2.2-.4.1-.4-.1-.8-2.5-1.6-5.1-2.3-7.7 0-.1 0-.3.1-.4.3-.3.3-.6 0-.8-.2-.2-.6-.1-.8.2-.1.1-.3.2-.4.3-.7.2-1.4-.1-2-.4-.9-.4-1.9-.5-2.8 0h-.2c.1-.2.1-.3.2-.3.4-.5.4-.9.1-1.5-.2-.3-.3-.7-.5-1.1h-.1c-.2.4-.3.8-.5 1.2-.2.4-.3.8 0 1.2zm-6.1 9.5c-.7 0-1.4.1-2.3.1.7-2.5 1.5-5 2.2-7.4h.1v7.3zm.3-7.3c.7 2.5 1.5 4.9 2.3 7.4-.8-.1-1.4-.1-2.1-.1-.3 0-.3-.3-.3-.5v-6.8h.1zm12.5-.1c.1 0 .1 0 0 0 .8 2.5 1.6 4.9 2.4 7.5-.8-.1-1.6-.1-2.4-.2v-7.3zm-.2 7.3c-.7 0-1.5.1-2.2.1.7-2.5 1.4-4.9 2.2-7.3h.1c-.1 2.4-.1 4.8-.1 7.2zM9.2 26.4c.8-.6 1.2-1.5 1.2-2.5v-8.6c0-.4 0-.8.1-1.3s.3-.8.9-.9c.4 0 .5-.2.3-.6H7.2v.5c1.1.2 1.2.4 1.3 1.5v8.4c0 .5 0 1-.1 1.4-.2 1.5-1.5 2-2.7 1.1-.3-.2-.5-.5-.8-.7 0 .3-.1.3-.3.4v.2c.2.3.4.5.7.7 1.1 1.1 2.7 1.3 3.9.4zM76.6 12.4c-.2.6-.7.5-1.2.4-1.2-.3-2.5-.4-3.7-.2-3.1.5-5.1 3-5 6.1.2 3.2 2.5 5.5 5.7 5.6 1.1 0 2.2-.2 3.3-.5.3-.1.6-.1.8.3.1.3.3.3.6.2v-2.9c-.4-.1-.4-.1-.6.3-.2.6-.6 1-1.2 1.3-2.2 1.3-5 .3-6-2.1-.6-1.6-.7-3.3 0-4.9.6-1.4 1.6-2.3 3.1-2.5 1-.1 1.9-.1 2.8.3.7.3 1.1.8 1.3 1.6 0 .1.2.1.3.1.1 0 .2-.2.2-.2v-2.9c-.1-.1-.4-.1-.4 0zM126.6 16.1h-5.1c-.3 0-.5-.2-.8-.2-.2 0-.6-.1-.7.1-.2.3-.5.3-.8.2-.9-.2-1.9-.3-2.8-.1-2 .4-3.3 1.9-3.3 3.9 0 2.1 1.3 3.7 3.3 4.1 1 .2 1.9.1 2.9-.2.3-.1.6-.2.8.2 0 .1.2.1.3.1v-2.1s-.1 0-.1-.1l-.3.3c-.2.3-.4.6-.6.8-1.1.8-2.9.6-3.8-.4-1.2-1.3-1.2-4 0-5.3.7-.7 1.5-1 2.5-.9.9.1 1.7.3 2 1.3 0 .1.3.1.3.1.2-.2.3-.5.5-.7.1-.2.3-.4.4-.4.7-.1 1.4-.1 2.2-.2v6.3c0 .4-.2.7-.7.8-.1 0-.2.2-.3.3l.1.1h3.3c-.1-.2-.2-.3-.3-.4-.8-.3-.8-.3-.8-1.2v-5.9h1.4c.6 0 1.1.1 1.2.8 0 .1.2.1.2.2.1-.1.1-.2.1-.3v-1.6c-.5.2-.8.4-1.1.4zM32.8 16.1h-5.1c-.3 0-.5-.2-.8-.2h-.7c-.2 0-.5.1-.7.1-.5 0-1-.1-1.5-.1-1.1.1-1.9.7-2.1 1.7-.2 1 .1 1.8 1 2.4.6.4 1.3.7 1.9 1.1.5.3.7.7.6 1.2-.1.6-.5.9-1 1.1-.9.2-1.7-.1-2.2-.9-.1-.2-.3-.4-.6-.2v1.8h.2c.3-.3.6-.2.9-.1.6.1 1.3.2 1.9.1 1.4-.2 2.3-1.3 2.1-2.6-.1-.9-.7-1.4-1.4-1.8-.6-.3-1.1-.6-1.7-.9-.5-.3-.7-.7-.6-1.2.1-.5.4-.9.9-1 .8-.3 1.6 0 2 .7.1.2.4.3.6.3.1 0 .2-.2.3-.3.2-.2.4-.5.7-.5.6-.1 1.2 0 1.9 0V23c0 .4-.2.6-.6.7-.1 0-.2.2-.4.3l.1.1h3.3c-.1-.2-.2-.3-.3-.4-.8-.3-.8-.3-.8-1.2v-5.8h1.4c.6 0 1.1.1 1.2.8 0 .1.2.1.2.2 0 0 .1-.1.1-.2v-1.6c-.1 0-.4.2-.8.2zM82.6 16c-2.4 0-4.2 1.8-4.2 4.2 0 2.3 1.7 4 4.1 4 2.5 0 4.3-1.7 4.3-4.1 0-2.4-1.7-4.1-4.2-4.1zm2.2 6.2c-.4 1-1.2 1.4-2.2 1.4-1 0-1.8-.4-2.2-1.2-.7-1.3-.8-2.7-.3-4.2.4-1 1.1-1.5 2.2-1.6 1-.1 1.8.3 2.4 1.1.5.7.6 1.4.7 2.2-.2.8-.3 1.6-.6 2.3zM136.3 16c-2.5 0-4.3 1.7-4.3 4.1 0 2.3 1.6 4.1 3.9 4.1 2.7 0 4.4-1.5 4.5-4.1 0-2.4-1.7-4.1-4.1-4.1zm2.1 6.1c-.4.9-1.1 1.4-2.1 1.5-1 .1-1.8-.4-2.3-1.3-.4-.7-.6-1.6-.6-2.4.1-.4.1-.8.2-1.2.3-1.3 1.2-2 2.5-2.1 1.2 0 2.2.7 2.6 1.9.3 1.2.2 2.4-.3 3.6zM18.2 16.1c-.1 0-.2.1-.3.2l.2.2c.6.1.7.4.7.9v3.1c0 .7 0 1.3-.2 2-.2.8-.9 1.2-1.8 1.3-.8 0-1.5-.4-1.8-1.2-.1-.4-.2-.8-.2-1.2v-3.7c0-.7.1-.8.7-1 .1 0 .1-.1.2-.2l-.2-.2h-2.7c-.1 0-.2.1-.2.2l.1.2c.8.1.8.7.8 1.3v3.5c0 1.4.9 2.5 2.2 2.8 2.1.5 4.5-.5 4.3-3.3-.1-1.1 0-2.3 0-3.4 0-.5.2-.8.7-.9.1 0 .2-.2.2-.2-.1-.1-.2-.2-.3-.2-.7-.2-1.6-.2-2.4-.2zM18.8 19.4v-2 3.1-1.1z" class="st0"/><path d="M102.9 16.1c-.1 0-.2.1-.4.1l.3.3c.2.2.5.4.5.6v4.6l-.4-.4c-1.1-1.3-2.2-2.5-3.2-3.9-.8-1.1-1.6-1.5-2.9-1.3-.1 0-.1 0-.2.1-.1 0-.1.1-.2.1 0 0 .1 0 .1.1 0 0 .1 0 .1.1 0 0 .1 0 .1.1h.1c.7.2.8.3.8 1v4.5c0 .3 0 .6-.1.9 0 .4-.2.7-.6.8-.1 0-.2.2-.3.4h2.5c-.1-.2-.1-.4-.2-.4-.7-.2-.7-.8-.7-1.3v-4.2c0-.1 0-.2.1-.3 1.9 2.2 3.7 4.4 5.5 6.6 0 0 .1 0 .1-.1v-7c0-.4.2-.7.6-.8.1 0 .2-.2.3-.3-.1-.1-.2-.1-.4-.1-.5-.2-1-.2-1.5-.2z" class="st0"/><path d="M96.4 16.3c.1 0 .1-.1.2-.1-.1 0-.1 0-.2.1zM149.2 16.1h-1.8c-.1 0-.2.1-.3.1.1.1.1.2.2.3.5.1.6.4.6.8v4.4l-.4-.4c-1.1-1.3-2.2-2.5-3.2-3.9-.8-1.1-1.6-1.5-2.9-1.3-.2 0-.3.1-.4.2.1.1.2.2.3.2.7.2.8.3.8 1v4.4c0 .3 0 .7-.1 1 0 .3-.2.6-.5.7-.1 0-.2.2-.4.4h2.4l.1-.1c-.1-.1-.2-.3-.3-.3-.4-.1-.5-.4-.6-.8v-5.1c1.9 2.3 3.7 4.5 5.5 6.6.1 0 .1-.1.2-.1v-6.6c0-.5.1-1 .7-1.2.1 0 .2-.2.1-.2.1 0 0-.1 0-.1z" class="st0"/><path d="M141 16.3c.1-.1.3-.1.4-.2-.1 0-.3.1-.4.2zM93.8 16.1c-.1 0-.2.1-.3.2.1.1.1.2.2.2.6.1.6.5.6 1v4.2c-.2-.2-.3-.3-.4-.5-1.1-1.3-2.2-2.5-3.2-3.9-.7-1-1.6-1.5-2.8-1.3-.1 0-.2 0-.3.1-.1 0-.2.1-.3.1.1 0 .1.1.2.2s.1.1.2.1c.6.2.7.3.7 1v3.4c0 .6 0 1.3-.1 1.9 0 .4-.2.7-.6.8-.1 0-.2.2-.3.4H90c-.2-.2-.3-.4-.4-.4-.4-.1-.5-.4-.5-.7 0-.2-.1-.5-.1-.7v-4.1c0-.1 0-.2.1-.3 1.9 2.2 3.7 4.4 5.5 6.6 0 0 .1 0 .1-.1v-6.6c0-.5 0-1.1.7-1.2.1 0 .1-.2.2-.2-.1 0-.2-.1-.3-.1-.3-.1-.9-.1-1.5-.1z" class="st0"/><path d="M87.4 16.3c.1 0 .1.1.2.2 0-.1-.1-.2-.2-.2zM111.7 22.6c-.2.6-.6.9-1.2.9h-1.6c-.6 0-.9-.3-1-.9v-2.2h2.1c.2 0 .4.3.6.5l.3.3.1-.1v-1.9c0-.1-.1-.2-.2-.3l-.2.2c-.1.2-.3.5-.4.5-.7.1-1.5 0-2.2 0v-2.9h2.2c.5 0 .9.2 1 .8 0 .1.1.2.2.2s.2-.1.2-.2v-1.4h-5.5c-.1 0-.2.1-.3.1 0 .1.1.2.1.3.7.2.7.7.7 1.2V22.9c0 .4-.2.7-.6.8-.1 0-.2.2-.3.3l.1.1h4.8c1.3 0 1.3 0 1.6-1.3 0-.1-.1-.2-.1-.4-.2 0-.4.1-.4.2zM41.7 19.7c-.6-.3-1.2-.6-1.7-.9-.7-.5-.7-1.5.1-2 .8-.5 1.8-.2 2.3.5.1.1.3.2.5.4v-2.1c-.7.7-1.4.2-2 .3h-.6c-1.2.1-2 .9-2.1 2.1-.1 1 .4 1.6 1.1 2.1.6.4 1.2.7 1.8 1 .5.3.8.7.7 1.3-.1.6-.5 1-1.1 1.1-.8.2-1.6-.1-2.1-.9-.1-.2-.3-.4-.6-.2v1.8h.2c.3-.4.6-.2 1-.1.6.1 1.2.2 1.8.1 1.5-.2 2.4-1.4 2.1-2.7-.1-.9-.7-1.4-1.4-1.8zM130.8 23.7c-.5-.1-.6-.5-.6-.9v-5.4c0-.4.1-.7.6-.8.1 0 .1-.2.2-.3-.1-.1-.2-.2-.3-.2h-2.4c-.1 0-.2.1-.3.2l.3.3c.5.1.6.4.6.9v5.3c0 .5-.1.9-.7 1-.1 0-.2.2-.3.4h3.3c-.2-.3-.3-.5-.4-.5zM37 23.6c-.5-.1-.6-.4-.6-.8v-5.4c0-.4 0-.8.5-.9.1 0 .2-.2.3-.3-.1-.1-.2-.2-.4-.2h-2.3c-.1 0-.2.1-.4.1.1.1.2.3.3.3.5.1.6.5.6.9v5.4c0 .4-.2.7-.6.8-.1 0-.2.2-.3.3l.1.1h3l.1-.1c-.1 0-.2-.1-.3-.2z" class="st0"/></svg>