<svg xmlns="http://www.w3.org/2000/svg" xml:space="preserve" style="enable-background:new 0 0 154 36" viewBox="0 0 154 36"><path d="M78 8.8c0-2-1.5-3-3.2-3h-4.2v9.5h2.2v-3.2h1.8c2.1 0 3.4-1.5 3.4-3.3zm-2.3.2c0 .8-.5 1.4-1.3 1.4h-1.8V7.6h1.8c.8 0 1.3.5 1.3 1.4zm7.9.9V7.8h-.7c-.7 0-1.5.3-1.8 1v-1h-2v7.5h2.1v-4c0-1.1.6-1.4 1.6-1.4h.8zm4.2 5.6c2.2 0 3.7-1.3 3.7-3.9 0-2.6-1.6-3.9-3.7-3.9-2.2 0-3.7 1.3-3.7 3.9 0 2.6 1.6 3.9 3.7 3.9zm0-6.1c.9 0 1.6.6 1.6 2.2 0 1.5-.7 2.2-1.6 2.2-.9 0-1.6-.6-1.6-2.2.1-1.5.8-2.2 1.6-2.2zm9 5.9v-1.7h-.9c-.5 0-.6-.1-.6-.6V9.5h1.6V7.8h-1.6v-2h-2.1v2h-1.1v1.7h1.1v3.6c0 1.4.2 2.3 2 2.3.9 0 1.6-.1 1.6-.1zm4.3.2c2.2 0 3.7-1.3 3.7-3.9 0-2.6-1.6-3.9-3.7-3.9-2.2 0-3.7 1.3-3.7 3.9 0 2.6 1.6 3.9 3.7 3.9zm0-6.1c.9 0 1.6.6 1.6 2.2 0 1.5-.7 2.2-1.6 2.2-.9 0-1.6-.6-1.6-2.2 0-1.5.7-2.2 1.6-2.2zm9.6 3.1c-.1.9-.7 1.2-1.4 1.2-.9 0-1.5-.6-1.5-2.2s.7-2.2 1.6-2.2c.7 0 1.3.4 1.4 1.3h2.1c-.2-2-1.6-3-3.5-3-2.2 0-3.7 1.4-3.7 3.9 0 2.6 1.6 3.8 3.8 3.8 1.9 0 3.2-1 3.5-2.9h-2.3v.1zm6.4 3c2.2 0 3.7-1.3 3.7-3.9 0-2.6-1.6-3.9-3.7-3.9-2.2 0-3.7 1.3-3.7 3.9 0 2.6 1.5 3.9 3.7 3.9zm0-6.1c.9 0 1.6.6 1.6 2.2 0 1.5-.7 2.2-1.6 2.2-.9 0-1.6-.6-1.6-2.2 0-1.5.7-2.2 1.6-2.2zm6.9 6V5.3h-2.1v10.1h2.1zm-46.7 15v-1.9h-4.6v-7.7h-2.2v9.5h6.8zm5.7-2.9c0 .6-.4 1.5-1.7 1.5-.8 0-1-.5-1-.8 0-.5.4-.8.9-.9.5-.1 1.8-.3 1.8-.3v.5zm-4.6-2.2h2c0-.3.1-.9 1.3-.9 1 0 1.3.4 1.3.9v.3l-2.5.4c-.7.1-2.4.5-2.4 2.2 0 1.5 1.2 2.4 2.7 2.4 1.3 0 1.9-.4 2.2-.8v.7h2.2s-.2-.6-.2-1.1v-4.1c0-1.1-.6-2.5-3.4-2.5-2.7-.1-3.2 1.4-3.2 2.5zm10.1 5.1v-.7c.4.5 1.1.8 1.9.8 2 0 3.4-1.3 3.4-3.9 0-2.6-1.4-3.9-3.3-3.9-.8 0-1.6.4-2 .8v-3.3h-2.1v10.1l2.1.1zm1.6-6c.9 0 1.6.6 1.6 2.2 0 1.5-.7 2.2-1.6 2.2-1 0-1.6-.5-1.6-2.2.1-1.7.6-2.2 1.6-2.2zm9 .7h2.1c0-.6-.3-2.3-3.2-2.3-1.8 0-3.2.8-3.2 2.4 0 1.8 1.4 2.1 3 2.3l.4.1c.6.1 1.1.2 1.1.7 0 .5-.6.8-1.3.8-.7 0-1.4-.2-1.4-.9h-2.1c0 .4.2 2.5 3.4 2.5 2.8 0 3.5-1.4 3.5-2.5 0-3-4.6-1.8-4.6-3 0-.5.6-.7 1.1-.7.7-.2 1.2 0 1.2.6zm-54.9 0c.3.2.6.6.6 1v6.4c0 .4-.3.5-.6.3l-5.6-3.2c-.3-.2-.6-.6-.6-1v-6.4c0-.4.3-.5.6-.3l5.6 3.2zm8.5-5.6c0 .4-.3.8-.6 1l-5.6 3.2c-.3.2-.6 0-.6-.3V17c0-.4.3-.8.6-1l5.6-3.2c.3-.2.6 0 .6.3v6.4zM51.5 11c.3.2.3.5 0 .7L46 14.8c-.3.2-.9.2-1.2 0L31.3 7c-.3-.2-.3-.5 0-.7l5.6-3.2c.2-.1.8-.1 1.1 0L51.5 11zM36.8 28c0 .4-.3.5-.6.3l-5.6-3.2c-.3-.2-.6-.6-.6-1V8.5c0-.4.3-.5.6-.3L44.1 16c.3.2.6.6.6 1v6.4c0 .4-.3.5-.6.3l-6.8-3.9c-.3-.2-.6 0-.6.3l.1 7.9zM54 12.3c0-.4.3-.8.6-1l5.6-3.2c.3-.2.6 0 .6.3V24c0 .4-.3.8-.6 1l-13.5 7.8c-.3.2-.6 0-.6-.3v-6.4c0-.4.3-.8.6-1l6.8-3.9c.3-.2.6-.6.6-1l-.1-7.9zM47.2 7c-.3-.2-.3-.5 0-.7l5.6-3.2c.3-.1.8-.1 1.2 0l5.6 3.2c.3.2.3.5 0 .7L54 10.2c-.3.2-.8.2-1.2 0L47.2 7z" style="fill:#b4b7c9"/></svg>