<svg xmlns="http://www.w3.org/2000/svg" xml:space="preserve" id="Layer_1" x="0" y="0" style="enable-background:new 0 0 154 36" version="1.1" viewBox="0 0 154 36"><style>.st0{fill:#b4b7c9}</style><path d="M99.3 20.6c0 1.6-1.3 2.9-2.8 2.9-1.6 0-2.9-1.3-2.9-2.8 0-1.6 1.3-2.9 2.8-2.9 1.7 0 2.9 1.3 2.9 2.8M82.4 12.3l3.9-5.6V1H73.9L70 6.7h9.3l-4.8 6.9 2.8 4.9c2.7-1.6 6.3-.6 7.8 2.1 1.6 2.7.6 6.3-2.1 7.8-2.7 1.6-6.3.6-7.8-2.1-.5-.9-.8-1.9-.8-2.9h-5.7c0 6.3 5.1 11.5 11.4 11.5 6.3 0 11.5-5.1 11.5-11.4.2-5.4-3.8-10.2-9.2-11.2M66.1 1c-2 0-4 .5-5.7 1.5V1h-5.7v22.5h5.7V12.4c0-3.2 2.6-5.7 5.7-5.7H68L71.9 1h-5.8z" class="st0"/></svg>