<svg xmlns="http://www.w3.org/2000/svg" xml:space="preserve" id="Layer_1" x="0" y="0" style="enable-background:new 0 0 154 36" version="1.1" viewBox="0 0 154 36"><style>.st0{fill:#b4b7c9}</style><path d="M31.3 4H7.7v13.6c.6 3.3 2.8 5.5 5.4 7.4 2.8 2 5.5 4.1 8.2 6.2.3.2.5.5.8.8h.3c.3-.3.6-.6.9-.8 3.4-2.6 6.8-5 10-7.8 1.3-1.1 2.7-2.8 2.9-4.3.5-3.3.6-6.8.3-10.1-.2-3-2.6-4.3-5.2-5zM18.6 23.7c-4.2-2.3-5.8-7.7-3.6-12 2.3-4.3 7.2-5.9 11.5-3.8 2.5 1.2 3.5 4 2.9 7-.6 2.5-3.2 4.7-5.3 4.3 2.2-1.5 2.8-3.2 1.8-5-.9-1.5-2.7-2-4.2-1.3-1.7.8-2.4 2.9-1.8 4.7.9 2.5 3.5 4 6.7 3.7 1.2-.1 2.5-.3 3.7-.5-2 3.8-7.6 5.2-11.7 2.9zM146.3 15.1v-2.8h-2.7v-4c-2.4.3-3.4 1.6-2.9 4-.7.1-1.3.2-1.9.3v2.5c.7.1 1.2.2 1.9.2 0 2-.1 3.9 0 5.8.1 1.7 1.1 2.6 2.8 2.6 1.9 0 2.3-.4 2.5-2.4 0-.3.2-.5.2-.8v-.3c-2.6 1.1-2.7.9-2.7-1.9v-3.2c1 .1 1.9.1 2.8 0zM80.8 12.2c-1.7-.4-3.2.1-4.5 1.2-1.6-1.4-3.2-1.7-5.1-.8-.2.1-.5.1-.7.1-1-.1-2-.3-3-.4v11.3h3v-6.7c0-1.3.9-2.2 2.1-2 1.2.2 1.8 1 1.8 2.2v6.5h2.8v-6.8c0-1.2.7-1.9 1.9-1.9s1.7.8 1.8 1.9v6.8h2.9c0-2.7.1-5.2 0-7.8 0-2-1.1-3.1-3-3.6zM54.1 11.9c-.5-1.9-1.8-3.1-3.7-3.2-2.6-.2-5.2 0-8 0v14.9h2.8v-5.1c2.7-.6 2.9-.5 4 1.7.1.3.3.6.4.9.6 2.3 2.1 3.1 4.4 2.6.1 0 .1-.1.3-.2-.9-1.8-1.8-3.7-2.7-5.5.5-.4.9-.6 1.3-1 1.6-1.4 1.6-3.2 1.2-5.1zm-4.8 3.6c-1.3.1-2.7 0-4.1 0v-3.9c1.4 0 2.8-.1 4.2 0 1.1.1 1.9.7 1.9 1.9-.1 1.3-.8 1.9-2 2zM104.1 12.8c-3.7-1.4-6.2-.1-6.8 3.4-.2 1.4 0 2.8.2 4.2.4 2.4 3.4 4.4 5.8 2.9.2-.1.4-.1.6-.1 1 .2 1.9.4 2.9.6V8.2c-2.7.3-3.2 2.1-2.7 4.6zm-.2 6.9c-.3.6-1 1.1-1.6 1.3-.4.1-1.5-.4-1.5-.8-.3-1.4-.4-2.8-.3-4.2.1-.9 1.1-1.2 2-1 .9.2 1.5.6 1.5 1.7v1.2c0 .7.2 1.4-.1 1.8zM122.7 12.6c-2.3-.8-4.5-.6-6.7.6.4.7.7 1.4 1.1 2 3.4-1.2 4.9-.8 4.6 1.1-.9 0-1.8-.2-2.7-.1-2.2.1-3.5 1.3-3.7 3-.4 3.4 2.6 5.6 5.7 4.3.3-.1.6-.3.9-.3.9.2 1.8.5 2.9.8v-8.6c-.2-1.3-.9-2.3-2.1-2.8zm-2.8 8.7c-.9.1-1.8-.3-1.8-1.4 0-1.2.9-1.4 2-1.5.7.2 1.8-.1 1.8 1.3-.1 1.3-1 1.6-2 1.6zM95.7 18.8c-.2-1.3-.2-2.5-.6-3.6-1.2-3.4-5.6-4.3-7.9-1.5-1.6 1.8-1.6 4-1.1 6.3.4 1.9 1.6 3.2 3.6 3.6 2 .4 3.9 0 5.5-1.7-.7-.6-1.3-1.2-1.9-1.7-2.4 1.3-4.1.7-4.2-1.4h6.6zm-5-4.1c1.2 0 1.8.6 2 1.9H89c0-1.1.5-1.9 1.7-1.9zM65 15.2c-1.1-3.4-5.4-4.3-7.8-1.6-1.6 1.7-1.8 3.8-1.4 6 .4 2 1.4 3.5 3.4 4 2.1.6 4.1.2 5.8-1.6-.7-.6-1.3-1.2-1.9-1.8-2.3 1.3-3.9.8-4.3-1.4h6.8c-.2-1.3-.2-2.5-.6-3.6zm-6.2 1.4c.2-1.1.7-1.9 1.8-1.9s1.8.7 2 1.9h-3.8zM131.3 12.5c-.3.1-.6.3-.9.2-.9-.1-1.8-.4-2.9-.6v11.4h2.8v-6.6c0-1.3.8-2.1 1.9-2.1 1.1 0 1.9.8 2.1 2 .1.5 0 1.1 0 1.7v5.1h2.8c0-2.6.1-5.1 0-7.5-.2-3.2-2.8-4.8-5.8-3.6zM110 23.6h2.7V12.4H110v11.2zM111.4 8.1c-1.1 0-1.6.6-1.7 1.6-.1 1 .7 1.8 1.7 1.8 1.1 0 1.6-.7 1.6-1.6 0-1-.5-1.7-1.6-1.8z" class="st0"/></svg>