<svg xmlns="http://www.w3.org/2000/svg" xml:space="preserve" id="Layer_1" x="0" y="0" style="enable-background:new 0 0 154 36" version="1.1" viewBox="0 0 154 36"><style>.st0{fill:#b4b7c9}</style><path d="M50.6 31c1.5-.6 2.5-1.7 2.6-3.4.1-1.6-.8-2.7-2.1-3.4-.1-.1-.3-.2-.5-.3.3-.2.5-.4.8-.5 1.9-1.5 1.5-4.2-.7-5.2-.5-.2-1.1-.4-1.6-.4h-8.2c-.2 0-.4.2-.7.3v.7c.5.1.9.3 1.4.3.8 0 1.3.2 1.3 1.1v9c0 .7-.4 1-1.1 1-.5 0-1 .1-1.5.2v1c2.7.1 5.5.2 8.2.2.6-.1 1.4-.3 2.1-.6zm-3.9-12.1c.8 0 1.7.1 2.5.3.9.2 1.4.8 1.4 1.7 0 1-.3 1.9-1.4 2.1-.8.2-1.6.3-2.4.3-2.1.1-2.3-.1-2.3-2.2 0-1.8.3-2.1 2.2-2.2zm-.4 11.3c-1.6-.1-1.8-.5-1.8-2.1v-.7c0-.9 0-1.5.1-1.9 0-.1.1-.3.2-.4.1-.1.2-.2.3-.2.1 0 .1-.1.2-.1.4-.1 1-.1 1.9-.1.7 0 1.5.1 2.2.3 1.1.3 1.9.9 1.9 2.2 0 1.4-.6 2.4-1.8 2.7-1 .2-2.1.3-3.2.3zM83.9 6.3c-.5.1-1 .5-1.3.9-1.1 1.7-2.1 3.4-3 5.1-.2.4-.2 1.1-.2 1.5.2 1 .8 1.6 1.9 1.7l2.4.3h1.1c.5-.1 1.1-.3 1.6-.3 1.3.1 2.6.3 3.8.4.9.1 1.9 0 2.9 0 1.1.1 2.2.3 3.4.3h6c1.3 0 2.6-.1 3.4-1.2.8-1.2.9-2.6.2-3.9-.6-1.1-1.6-1.9-1.5-3.3 0-.1-.2-.4-.4-.5-2.3-1.8-4.8-2.9-7.7-2.9-.8 0-1.6-.4-2.4-.5h-4.9l-2.1 1.2c-.9.8-2 1.1-3.2 1.2zm5-1.4c.5-.8 3.2-.6 3.6.3.8 1.9 2.7 1.9 4.2 2.4-1.3-1.1-3.4-.9-4-3.1 2.2.3 4.3.5 6.3.7.1 1 .2 1.9.2 2.9-.1.1-.2.2-.2.3-.6-.8-1.1-1.5-1.7-2.3l-.3.3c.9 1.1 1.9 2.3 2.8 3.4h.2c-.2-1.2-.3-2.3-.5-3.6 2.6.8 3.9 2.5 4.3 5 .1-2.4-1-4-3.2-5.1 1.9 0 3.6 1.6 3.8 3.2 0 .6 0 1.3 1 1.6.2.1 1.3.7.3 1.4 0 0 .1.3.1.5.5 1.6 0 2.8-1.7 3-1.1.2-2.2 0-3.4 0 .3-2.2-.7-3.7-2.5-4.3-.5-.1-.9-.6-1.4-1-.2.7.1 1.2.9 1.3 1.5.1 2 1.3 2.6 2.2.4.6-.3 1.9-.8 1.6-1-.5-1.7.1-2.6.2-.9.1-1.2.1-1.4-1-.4-2.6-2.1-4.5-4-6.1-1.1-.9-2.1-1.7-2.4-3.1-.2-.1-.3-.5-.2-.7zm-.1 1.5c.4.8 1 1.7 1.7 2.3 1.8 1.3 2.9 3.1 4 4.9.2.4.4.9.4 1.4.1.8-.3 1.2-1.1.9-1-.3-1.9-.7-2.9-1-.2-.1-.5 0-.7.2-.7.7-1.4.6-2.2.3-.4-.1-.8 0-1.2-.1-.7-.3-1.6-.5-2-1-.6-.6-1-1-1.8-.9-.5.1-1.1-.2-1.8-.1.5.2 1 .6 1.5.5 1.5-.3 1.8.7 2.4 1.8h-1.4c-.7-.1-1.3-.2-2-.3-1.1 0-2-1-1.7-2.1.1-.6.3-1.2.6-1.7.8-1.3 1.5-2.6 2.4-3.8.7-1 1.8-1.1 3-.7-.8.3-1.5.5-2.3.8V8c.4 0 .9.1 1.2-.1 1.1-.9 2-.6 3 .4.5.5 1.3.7 2 .8-1.1-.7-2.2-1.5-3.4-2.3.6-.3 1.1-.5 1.6-.7 0-.1-.1-.2-.1-.3-.3.1-.6.2-1.1.3 1-.8 1.4-.6 1.9.3zM113 6.4c-.7.2-1.6.2-2.3.1-.7-.1-1.3-.4-2-.6v1.8c0 .1.1.2.1.3.7-.9 2-1.1 3.8-.6-1.1.4-2.1.7-3.1 1-.3.1-.6.4-.9.7.3.2.5.5.8.6 1 .4 2 .7 3.1 1.1 0 .1-.1.2-.1.3-1.2-.4-2.7.7-3.7-1.1v2.2c.6-.2 1.2-.5 1.7-.6 1.2 0 2.5-.4 3.3 1v-2.2c-1.4-.4-2.7-.8-4.1-1.2v-.3c1.4-.4 2.7-.8 4.1-1.3V5.4c-.1.4-.4.9-.7 1zM109.3 25.3h3.1v-1.6c-.7 1.3-2.5 1.3-3.5.3v4.5h.2l.3-.9c1.1 0 1.3.7 1.1 1.4-.1.5-.5.9-.9 1.5-.3-.7-.4-.9-.5-1.2-.1 0-.2 0-.3.1V32h.5c-.1-.7.2-1 .8-1.3 1.3-.4 2.6-1 3.9-1.4v-.7c-1.2-.5-2.4-1-3.7-1.3-1.2-.4-1.3-1-1-2zm1.8 2.9c.7.2 1.2.4 2.1.7-.9.3-1.4.5-2.1.7v-1.4zM110.6 13.9c-.6-.1-1.2-.4-1.9-.6v4.2c.7 0 1.3-.1 2-.1-1.5-.6-2-1.2-1.5-2.3.2-.4 1.1-.5 1.7-.7l.3.6c-.4.3-.8.7-1.2 1.1h2.6c-.1-.3-.3-.3-.4-.4-.2-.2-.5-.4-.7-.6.3-.1.6-.5.8-.4.3.1.7.5.7.8 0 .5-.3 1-.6 1.4-.2.2-.6.1-1 .2v.4c.7-.1 1.4-.1 2.1-.2v-4.2c-.5.3-.9.7-1.4.8-.2.1-.9.1-1.5 0zM110.6 19.2c-.6 0-1.2-.4-1.9-.6 0 .9-.1 2 0 3.1.1 1 .9 1.6 1.9 1.8 1.4.2 2.4-.3 3.2-1.7v-3.4c-.8 1.1-2 .8-3.2.8zm2.5 2.4c-.3.9-1.6 1.4-2.7 1-1-.3-1.4-1.1-1.2-2.1 0-.2.4-.5.7-.6.4-.1.9 0 1.3 0h.7c1.6-.2 1.6.5 1.2 1.7zM81.2 28.6c-1.1-3.2-2.3-6.4-3.5-9.7-.2-.7-.5-1.5-1.4-1.2-.5.2-1.2.7-1.4 1.3-1.2 3-2.3 6.1-3.4 9.2-.4 1.2-.7 2-2.4 2.1-2.4 0-3.1-.2-3.1-2.7 0-1.3-.2-2.5-1.6-3.2 2.1-1.2 2.6-2.2 2.1-4.4-.3-1.5-1.2-2.2-3.4-2.3-2.5-.1-5.1-.1-7.6 0-.3 0-.6.5-.9.7.3.2.7.6 1 .6 1.5.1 1.6.2 1.6 1.7v7.7c0 1.6-.1 1.6-1.7 1.8-.3 0-.6.4-.9.6.3.2.6.6.9.6 1.8.1 3.5.1 5.3 0 .3 0 .6-.5 1-.7-.3-.2-.6-.5-.9-.6-.3-.1-.7 0-1-.1-.3-.1-.8-.4-.8-.7-.9-3.3.5-4.8 3.8-4.1.8.2 1.3.5 1.3 1.3.1.9.1 1.9.2 2.8.2 1.6.6 2.1 2.3 2.1.9 0 1.8-.1 2.6-.1 1.8 0 3.6.1 5.4 0 .3 0 .5-.4.8-.7-.3-.2-.6-.6-.9-.6-.5-.1-1 0-1.6 0 .3-3 .7-3.4 3.4-3.4h.1c2.2 0 2.2 0 2.9 2.1.5 1.4.4 1.4-1 1.3-.4 0-.8.4-1.1.6.3.3.6.8 1 .8 1.8.1 3.6 0 5.4-.1.3 0 .5-.5.8-.7-.3-.2-.6-.5-.8-.5-1.6.3-2.1-.4-2.5-1.5zM62 23.7h-.9c-2.3 0-2.3 0-2.3-2.4 0-2.1.2-2.3 2.2-2.5h1.1c1.8.2 2.6 1 2.6 2.5 0 1.4-1.1 2.3-2.7 2.4zm12.3 1.5c.3-1 .6-1.8.8-2.6.3-.8.6-1.7 1-2.9.7 2 1.3 3.7 1.9 5.5h-3.7zM100.8 17.8c-.4 0-.8.5-1.2.8.4.2.8.6 1.2.6.7.1 1.4 0 1.4.9v9c-.4-.3-.6-.7-.7-1-1.4-3.1-2.8-6.3-4.3-9.3-.2-.4-.8-.8-1.2-.9-1.1-.1-2.2-.1-3.3-.1-.4 0-.8.4-1.2.6.4.2.8.7 1.1.7 1.3-.1 1.6.5 1.5 1.6v7.9c0 1.2-.4 1.8-1.6 1.7-.3 0-.7.4-1 .5.4.2.7.6 1.1.7 1.5.1 2.9.1 4.4 0 .6 0 1.4.3 1.4-.6 0-.2-.8-.4-1.2-.7-.4-.3-1.2-.6-1.2-.9-.1-3-.1-5.9-.1-8.9h.3l4.5 9.9c.4.9 1 1.7 2.1 1.4 1.1-.3 1.2-1.2 1.2-2.1v-8.8c0-1.1.2-1.7 1.5-1.6.3 0 .7-.4 1.1-.6-.3-.3-.7-.7-1-.8-1.7 0-3.3-.1-4.8 0zM64.5 14.1c-.1-1.2-.1-2.5-.2-3.7h5v2.9c0 1.2.2 1.3 1.2.9V7.1c0-1.2-.1-1.3-1.3-.8.1 1 .1 2.1.2 3.2h-5V7.1c0-1.1-.3-1.3-1.2-.8v7.1c0 1.1.1 1.2 1.3.7zM89 29v-6c0-1.8 0-1.7-1.7-1.6-.3 0-.7-.1-1 0-.4.1-.7.5-1.1.7.3.2.7.6 1 .6 1-.1 1.1.4 1.1 1.2v5c0 .9-.2 1.4-1.2 1.3-.2 0-.5.3-.8.5.2.3.5.7.7.7 1.3.1 2.7.1 4 0 .3 0 .5-.5.8-.7-.3-.2-.6-.5-.8-.5-1 0-1-.5-1-1.2zM89 29v-6 6zM45 10.3c.9-.8 1.1-1.8.8-2.9-.3-1-1.2-1.4-2.2-1.5-1-.1-2 0-2.8 0v8.5c.6-.1.9-.1 1.3-.2-.1-1.1-.1-2-.2-3 .1-.1.2-.2.3-.2.6.3 1.2.6 1.6 1 .7.6 1.2 1.3 1.8 2 .6.6 1.2.6 1.4.1-1-1.3-1.9-2.3-2.8-3.4.4-.1.6-.2.8-.4zm-3 .1V8.1c0-.7-.1-1.5 1-1.4 1.1.1 1.8.7 1.8 1.7 0 1.3-1 2.1-2.8 2zM60.6 11.2c-.1-1.1-.3-1.2-1.3-.7.1.7.2 1.4.2 2.1 0 .3-.2.7-.4.8-1.8 1.1-4.7-.4-5-2.4-.3-2.4 1.4-4 4.2-4 .3 0 .6-.3.9-.4-.2-.2-.4-.6-.7-.7-2.1-.2-5.4 1.1-5.7 4.4-.3 2.4 1.6 4.3 4.5 4.4 2.7-.1 3.5-.8 3.3-3.5zM75.5 6.9v6.3c0 1.3.2 1.4 1.3.9V6.9h2.3c.2 0 .5-.4.6-.6 0-.1-.3-.5-.4-.5-2 0-4 0-6 .1-.2 0-.4.4-.6.7.2.2.5.4.8.4.6.1 1.3 0 2-.1zM49.3 8.9v4.4c0 .9.3 1.3 1.2.9V9.6c0-1.1-.2-1.3-1.2-.7zM87.8 20.1c.4 0 .9-.5 1.3-.8v-.5c-.5-.3-1-.7-1.4-.7-.4 0-.7.7-1.1 1 .4.4.8 1 1.2 1zM49.9 6.1c-.3.1-.5.5-.8.7.2.2.5.6.7.6.3 0 .6-.4 1.1-.7-.5-.3-.8-.6-1-.6z" class="st0"/><path d="M44.6 25.4c-.1.4-.1 1-.1 1.9v.7-.7c0-.9 0-1.5.1-1.9zM44.6 25.4c0-.1.1-.3.2-.4-.1.1-.1.3-.2.4zM45.1 24.8c.1 0 .1-.1.2-.1-.1.1-.1.1-.2.1zM104 12.1c1.5 1.1 1.3 2.3-.5 2.9 1.3-.8 1.3-1.8.5-2.9zm-12.1-7c.2 2.7 1.9 4 4.3 3.9.7-.1 1.6.1 2.2.5.9.6 1.7.7 2.8.6.6-.1 1.6.2 1.9.6.3.5 0 1.3 0 2-.1.8-.2 1.5-.4 2.6-.6-1.5.2-3.7-2.5-3 .9-.8 1.3-.8 2.7.4 0-.8.2-1.4-.1-1.7-.3-.4-1-.7-1.4-.6-1.3.3-2.2-.1-3.3-.8-.8-.4-1.8-.3-3-.5.6 2.3.9 4.3 3.2 5.2-.1.1-.1.2-.2.3-.5-.3-1.1-.4-1.4-.8-.6-.8-1.2-1.7-1.5-2.6-.4-1.3-1-2.3-2.2-3-1-.6-1.4-1.4-1.2-2.7-.8.1-1.6.2-2.3.3 0-.1 0-.2-.1-.3.8-.1 1.7-.3 2.5-.4z" class="st0"/><path d="M91.7 5.5c-.2 1.4.2 2.2 1.2 2.7 1.2.6 1.8 1.7 2.2 3 .3.9.9 1.8 1.5 2.6.3.4 1 .5 1.4.8.1-.1.1-.2.2-.3-2.3-.8-2.6-2.9-3.2-5.2 1.2.2 2.2.1 3 .5 1.1.6 2.1 1 3.3.8.4-.1 1.1.2 1.4.6.2.3.1 1 .1 1.7-1.4-1.2-1.8-1.2-2.7-.4 2.7-.7 1.9 1.6 2.5 3 .2-1.1.3-1.9.4-2.6.1-.7.4-1.6 0-2-.3-.4-1.3-.7-1.9-.6-1 .1-1.9-.1-2.8-.6-.6-.4-1.4-.6-2.2-.5-2.4.2-4.1-1.2-4.3-3.9-.8.2-1.7.3-2.5.5 0 .1 0 .2.1.3.8-.1 1.5-.2 2.3-.4zM104 12.1c.8 1.1.8 2-.5 2.9 1.8-.6 2-1.7.5-2.9zM87.3 10.7c-.8-1.4-2.1-1.7-3.5-1.4-.6.1-1.1.4-1.6.7 1.1 0 2.1-.2 3-.2 1.3 0 1.6 1 1.5 2 1.1-.5 2-.9 3.2-1.5 0 1.4 2 1.9 1 3.6 1.2-.4.9-1 .5-1.7-.5-.8-1-1.5-1.5-2.3-.8.1-1.7.4-2.6.8z" class="st0"/><path d="M84.2 10.4c-.5.2-.9.7-1.5 1.2-.1-.2-.2-.5-.5-1-.1.4-.2.8-.2.9.7.4 1.4.7 2.3 1.2-.3-.7-.4-1.1-.5-1.5.5-.1 1-.1 1.7-.2-.5-.3-1-.7-1.3-.6zM89.7 12.9c-.4-.2-.9-.2-1.3 0-1 .5-2 1-3.2.3.2.3.4.6.5.6 1.2-.1 2.4-.3 3.6-.5 0 .1.1.4.2.7.1 0 .2-.1.4-.1 0-.3 0-.9-.2-1zM92.6 14.6c.4-.2.8-.5 1.2-.7-.7-1-.6-2.5-2.3-2.7.5.6 1 1.1 1.2 1.7.2.4 0 1.1-.1 1.7z" class="st0"/><ellipse cx="90.9" cy="-151.6" class="st0" rx=".3" ry=".7"/></svg>