<svg xmlns="http://www.w3.org/2000/svg" xml:space="preserve" id="Layer_1" x="0" y="0" style="enable-background:new 0 0 154 36" version="1.1" viewBox="0 0 154 36"><style>.st0{fill:#b4b7c9}</style><path d="M22.5 24c-.5 3.3-3.4 4.5-6.9 4.5-3.7 0-7.1-1.3-7.1-5.7v-1.5h5.3v1.9c0 1.1.7 1.8 2 1.8s1.8-.7 1.9-1.3c.1-.4.2-1 0-1.4-1-2.5-8-3.7-8.8-7.7-.2-1-.2-1.8 0-2.6.5-3.2 3.4-4.4 6.8-4.4 2.8 0 6.6.7 6.6 4.9v1.4h-4.9v-1.2c0-1.1-.7-1.8-1.8-1.8-1.2 0-1.7.7-1.8 1.3-.1.2-.1.6 0 1 .6 2.3 8 3.5 8.8 7.6 0 .4.1 1.5-.1 3.2zm14 3.7L33.8 9.6l-2.7 18.1h-5.3l3.6-19.6h8.7l3.6 19.6h-5.2zm26.1 0-.2-18.1L59 27.7h-5L50.7 9.6l-.1 18.1h-4.9l.4-19.6h8l2.5 15.3L59 8.1h8l.4 19.6h-4.8zM86.2 24c-.5 3.2-3.4 4.4-6.9 4.4-3.7 0-7-1.3-7-5.6v-1.5h5.2v1.9c0 1.1.7 1.8 2 1.8s1.7-.7 1.9-1.3c.1-.4.1-1 0-1.4-1-2.5-7.9-3.7-8.7-7.6-.2-1-.2-1.7 0-2.6.5-3.2 3.3-4.3 6.8-4.3 2.7 0 6.5.7 6.5 4.9v1.4h-5v-1.2c0-1.1-.7-1.8-1.8-1.8-1.2 0-1.6.7-1.8 1.3 0 .2-.1.6 0 1 .6 2.3 7.9 3.5 8.7 7.6.1.2.3 1.3.1 3zm18.3-.5c-.3 3.7-3.2 4.9-6.8 4.9-3.6 0-6.5-1.2-6.8-4.9V8.1h5v15.2c.1.5.5 1.4 1.9 1.4s1.8-.9 1.9-1.4c0-.2.1-.5 0-.7V8.1h5v14.1c-.1.3-.1 1.1-.2 1.3zm22 4h-7l-5-16.3.3 16.3H110V8.1h7.3l4.6 15.8-.3-15.8h4.8v19.4zm19.1-5.5c0 .4 0 .6-.1 1.3-.3 3.6-3.4 4.8-6.9 4.8-3.5 0-6.6-1.3-6.9-4.8-.1-.7-.1-.9-.1-1.3v-8.2c0-.4.1-1 .1-1.3.4-3.7 3.4-4.8 6.9-4.8 3.5 0 6.5 1.2 6.9 4.8.1.6 0 1.3 0 1.3v.6h-4.9v-1.1s0-.5-.1-.8c-.1-.4-.5-1.4-2-1.4-1.4 0-1.9.9-1.9 1.4-.1.3-.1.6-.1.9v9c0 .3 0 .5.1.7.1.5.6 1.4 2 1.4s1.9-.9 2-1.4c0-.2.1-.5.1-.7v-2.8h-2v-2.9h6.9V22z" class="st0"/><path d="M13.7 13.2c-.1-.4-.1-.8 0-1 .1-.6.6-1.3 1.8-1.3 1.1 0 1.8.7 1.8 1.8v1.2h4.9v-1.4c0-4.3-3.8-4.9-6.6-4.9-3.5 0-6.3 1.2-6.8 4.4-.1.9-.2 1.7 0 2.6.8 4 7.8 5.2 8.8 7.7.2.5.1 1.1 0 1.4-.2.6-.6 1.3-1.9 1.3-1.2 0-2-.7-2-1.8v-1.9H8.4v1.5c0 4.4 3.4 5.7 7.1 5.7 3.5 0 6.4-1.2 6.9-4.5.2-1.7.1-2.8 0-3.2-.8-4.1-8.2-5.3-8.7-7.6zM77.4 13.2c-.1-.4-.1-.8 0-1 .1-.6.6-1.3 1.8-1.3 1.1 0 1.8.7 1.8 1.8v1.2h4.8v-1.4c0-4.2-3.8-4.9-6.5-4.9-3.5 0-6.3 1.1-6.8 4.3-.1.9-.2 1.6 0 2.6.8 4 7.7 5.1 8.7 7.6.2.5.1 1.1 0 1.4-.2.7-.6 1.3-1.9 1.3-1.2 0-2-.7-2-1.8v-1.9h-5.2v1.5c0 4.3 3.4 5.6 7 5.6 3.5 0 6.4-1.2 6.9-4.4.2-1.7.1-2.8 0-3.2-.7-3.9-8-5.1-8.6-7.4zM29.4 8.1l-3.6 19.6h5.3l2.7-18.1 2.7 18.1h5.3L38.1 8.1zM59 8.1l-2.4 15.3-2.5-15.3h-8l-.4 19.6h4.9l.1-18.1 3.4 18.1H59l3.4-18.1.2 18.1h4.9L67 8.1zM138.6 19.6h2v2.8c0 .3 0 .5-.1.7-.1.5-.6 1.4-2 1.4s-1.9-.9-2-1.4c0-.2-.1-.5-.1-.7v-9c0-.3 0-.7.1-.9.1-.5.5-1.4 1.9-1.4 1.5 0 1.9 1 2 1.4.1.3.1.8.1.8v1.1h4.9v-1.9c-.4-3.7-3.4-4.8-6.9-4.8-3.5 0-6.4 1.2-6.9 4.8 0 .3-.1.9-.1 1.3V22c0 .4 0 .6.1 1.3.3 3.6 3.4 4.8 6.9 4.8 3.5 0 6.6-1.3 6.9-4.8.1-.7.1-.9.1-1.3v-5.3h-6.9v2.9zM121.9 23.9l-4.6-15.8H110v19.4h4.8l-.2-16.3 4.9 16.3h7V8.1h-4.9zM104.6 8.1h-5v15.2c-.1.5-.5 1.4-1.9 1.4s-1.8-.9-1.9-1.4c0-.2-.1-.5 0-.7V8.1h-5v15.4c.3 3.7 3.2 4.9 6.8 4.9 3.6 0 6.5-1.2 6.8-4.9 0-.2.1-.9 0-1.3V8.1z" class="st0"/></svg>