<svg xmlns="http://www.w3.org/2000/svg" xml:space="preserve" id="Layer_1" x="0" y="0" style="enable-background:new 0 0 154 36" version="1.1" viewBox="0 0 154 36"><style>.st0{fill:#b4b7c9}</style><path d="M132.5 22.6zM130.4 28.6s0-.1 0 0l1.2-.3c1.3-.5 2.2-1.3 2.7-2.6.2-.5.3-1 .4-1.5v-9.5c0-.4 0-.4-.4-.4h-1.7c-.1 0-.1.1-.1.2v1s0 .1-.1.1-.1-.1-.2-.1c-.5-.5-1.1-.9-1.8-1-.2 0-.4-.1-.6-.1h-1.2c-.9.1-1.7.4-2.4.9-1.1.8-1.7 1.9-1.8 3.2V19.9c.2 2.2 1.9 3.9 4.1 4.2h1.1c.8-.1 1.5-.3 2.1-.8.2-.1.4-.3.5-.5 0-.1.1-.1.2-.1s.1.1.1.2v1.2c-.1 1.2-1 2.2-2.2 2.5h-1.1c-.8 0-1.5-.4-2-1-.2-.2-.4-.5-.5-.7-.1-.2-.2-.2-.3-.1-.5.3-1.1.7-1.6 1-.1.1-.1.2-.1.3.6 1 1.3 1.7 2.4 2.1.5.2 1.1.4 1.7.4H130.2c.1-.1.1 0 .2 0zm1.4-7.6c-.4.5-1 .7-1.6.9h-.1c-.1.1-.1 0-.2 0-.5 0-1 0-1.5-.2-.6-.3-1-.6-1.4-1.2-.2-.3-.3-.6-.4-.9v-.3c-.1-.1-.1-.3 0-.4 0-.6.2-1.1.6-1.6.5-.6 1.1-.9 1.9-1 .8-.1 1.4 0 2.1.5.7.5 1.1 1.1 1.2 1.9v.2c.1.2.1.4 0 .5.1.6-.2 1.2-.6 1.6z" class="st0"/><path d="M132.3 22.7c-.1.2-.3.3-.5.5-.6.5-1.3.7-2.1.8h-1.1c-2.2-.3-3.9-2-4.1-4.2V18.4c.2-1.3.8-2.4 1.8-3.2.7-.5 1.5-.8 2.4-.9h1.2c.2 0 .4.1.6.1.7.2 1.3.5 1.8 1 0 0 .1.1.2.1-.7-.7-1.5-1.1-2.5-1.3h-1c-.1.1-.1 0-.2 0-.6.1-1.1.2-1.7.5-.5.2-.9.5-1.2.9-.3.3-.5.6-.7.9-.4.6-.6 1.3-.6 2v1.1c.1.1 0 .1 0 .2 0 .4.1.7.2 1 .3.9.8 1.6 1.5 2.2.8.6 1.7 1 2.7 1.1h.7c1.1-.1 2-.6 2.8-1.4-.1-.1-.2 0-.2 0z" class="st0"/><path d="M128.9 28.5s-.1 0 0 0c-.7-.1-1.2-.2-1.8-.5-1-.4-1.8-1.2-2.4-2.1-.1-.1-.1-.2.1-.3.5-.3 1.1-.7 1.6-1 .1-.1.2-.1.3.1.1.3.3.5.5.7.5.6 1.2 1 2 1h1.1c1.2-.3 2.1-1.3 2.2-2.5v-1.2c0-.1 0-.2-.1-.2V23.9c-.1.8-.4 1.4-1 1.9-.4.3-.8.5-1.4.6-.1.1-.2 0-.3 0h-.5c-.7 0-1.3-.3-1.7-.8-.3-.3-.6-.7-.8-1-.1-.1-.1-.1-.2 0-.6.4-1.2.7-1.8 1.1-.1.1-.1.1-.1.2.4.6.8 1.2 1.4 1.6.9.6 1.9 1 2.9 1 0 .1 0 .1 0 0 0 .1 0 0 0 0z" class="st0"/><path d="M132.5 15.5v-1c0-.1 0-.1.1-.2h1.7c.4 0 .4 0 .4.4v9.5c-.1.5-.2 1-.4 1.5-.5 1.3-1.4 2.1-2.7 2.6l-1.2.3c2.4-.2 4.1-1.9 4.3-4.3v-9.9c0-.1 0-.2-.2-.2h-2.1c.1.4.1.8.1 1.3zM128.9 28.6h.2c0-.1-.1 0-.2 0zM128.9 28.6z" class="st0"/><path d="M128.9 28.6h.2c0-.1-.1 0-.2 0zM128.9 28.6zM130.4 28.6h-.2.2zM130.4 28.6zM130.4 28.6h-.2c.1-.1.1 0 .2 0zM130.4 28.6zM30.5 17.4v-.9c-.1-.1 0-.2 0-.4v-.2c-.1-.1 0-.2 0-.3v-.4c-.1-.4-.1-.9-.2-1.3-.2-.8-.4-1.6-.8-2.3-.3-.6-.6-1.2-1.1-1.7-.4-.5-1-.9-1.6-1.2-1.4-.7-2.8-1-4.2-1.2H18.7c-.1.1-.2 0-.4 0h-.2c-.1.1-.2 0-.3 0h-.2c-.1.1-.1 0-.2 0-.2 0-.5.1-.7.1-.6.1-1.2.2-1.7.4-.6.2-1.2.4-1.8.8-.4.2-.8.5-1.2.8-.5.5-.9 1.1-1.2 1.7-.3.6-.6 1.3-.8 2-.2.6-.3 1.3-.3 2V19.1c.1.1 0 .2 0 .4v.2c.1.1 0 .2 0 .3v.4c0 .2 0 .4.1.6.1.6.2 1.3.4 1.9.2.6.5 1.2.8 1.8.2.4.5.7.8 1.1.5.5 1.1.9 1.7 1.3.6.3 1.3.6 1.9.8.7.2 1.4.3 2.1.4H21.3c.1-.1.2 0 .4 0h.2c.1-.1.2 0 .3 0h.2c.1-.1.1 0 .2 0 .2 0 .4 0 .6-.1.6-.1 1.1-.2 1.6-.4.8-.2 1.6-.6 2.3-1 .4-.3.8-.6 1.2-1 .5-.6.9-1.3 1.2-2.1.5-1.1.7-2.2.8-3.3v-2.1c.2-.3.2-.6.2-.9zm-12.1 5.8c-.2.9-.7 1.4-1.5 1.7h-.1c-.2.1-.3.1-.5 0-.5-.1-.9-.3-1.3-.7-.2-.3-.4-.6-.4-.9-.1-.1 0-.1 0-.2V22.8c0-.5.3-.9.6-1.2.4-.4.9-.5 1.4-.5.2 0 .4 0 .5.1.1 0 .1 0 .2-.1s.1-.2.2-.2c.1-.1.1-.1.2 0s.3.2.4.3c.1 0 .1.1 0 .2s-.3.2-.2.4c0 .1.2.2.2.4.1.2.2.5.2.7.2 0 .2.1.1.3zm2.1-2.4h-.2c-.1.1-.1 0-.2 0h-.5c-.5 0-.9-.3-1.3-.6-.5-.4-.8-.9-1-1.6v-.2c-.1-.1-.1-.3 0-.4v-.2c-.2 0-.3-.1-.4-.1-.3-.1-.5-.2-.8-.2-.1 0-.1 0-.2.1-.5.7-1.1.9-1.9.9-.8-.1-1.5-.7-1.7-1.5v-.2c-.1-.1-.1-.2 0-.3 0-.4.2-.7.4-1 .3-.4.8-.6 1.3-.7.2-.1.4-.1.5 0 .4.1.8.2 1.1.5.3.3.5.7.6 1.1.1.1 0 .1 0 .2v.3c0 .1 0 .1.1.1.4.1.8.2 1.2.4.1 0 .1 0 .1-.1.4-.7 1.1-1.1 1.9-1.3h.1v-1.4c-.5-.1-.9-.4-1.3-.8-.2-.2-.3-.5-.3-.8-.1-.2-.1-.3 0-.5 0-.5.3-.9.7-1.2.3-.2.7-.4 1-.4.1 0 .2-.1.4 0 .9.1 1.6.8 1.8 1.7.1.2.1.3 0 .5-.1.6-.3 1-.8 1.4-.2.1-.3.2-.5.2-.1 0-.1.1-.1.2V16c0 .1 0 .1.1.2.9.2 1.5.7 1.9 1.6.1.3.1.5.2.8.1.1.1.2 0 .3-.1.5-.2 1-.5 1.4-.5 0-1 .3-1.7.5zm5 2.4c-.1.3-.2.6-.4.9-.4.4-.8.7-1.4.8h-.4c-.9 0-1.7-.9-1.7-1.7 0-.1-.1-.3 0-.4 0-.4.2-.7.4-1 .1-.1.1-.2 0-.2v-.1c-.2-.3-.2-.3.1-.5 0 0 .1 0 .1-.1.2-.2.2-.2.4.1.1.2.1.2.4.1.2-.1.3-.1.5-.1.1-.1.1-.1.2 0 .8.1 1.5.6 1.8 1.4 0 .1 0 .2.1.3-.1.2-.1.3-.1.5zm2.1-6.6c-.1 1-.8 1.6-1.7 1.8-.8.1-1.4-.2-1.9-.8-.1-.1-.1-.1-.3-.1-.1 0-.3.1-.4.1-.1 0-.1-.2-.1-.3 0-.1-.1-.2-.1-.3 0-.1.2-.1.3-.1.2 0 .2-.1.2-.3-.1-.9.8-1.8 1.5-1.9h.2c.2-.1.4-.1.5 0 .7.1 1.2.4 1.5 1.1.1.2.2.5.2.7.2-.1.2 0 .1.1zM60.4 17.7c0-.5-.1-1-.3-1.4-.3-.8-.9-1.4-1.6-1.7-.4-.2-.9-.3-1.3-.3h-1.1c-.1.1-.1 0-.2 0-1.1.1-2 .7-2.6 1.6-.6-1-1.4-1.4-2.5-1.6h-1.1c-.1.1-.1 0-.2 0-.9.1-1.6.5-2.2 1.2v-1.1c0-.1 0-.2-.2-.2h-1.9c-.1 0-.2 0-.2.2v9.5c0 .1 0 .2.2.2h2.1V18c.2-.9.8-1.5 1.7-1.7.1-.1.1 0 .2 0H50.1c.4.1.8.3 1.1.7.3.4.4.9.4 1.4V24c0 .1 0 .2.2.2h2.1v-5.5c0-.5.1-.9.3-1.3.3-.5.8-.9 1.4-1 .1-.1.1 0 .2 0H56.6c.4.1.7.2.9.5.4.4.5.8.6 1.3.1.1 0 .2 0 .3V24c0 .1 0 .2.1.2h2.1c.1 0 .1 0 .1-.1V17.7zM72 14.2h-2.1c-.1 0-.1 0-.1.2v1.1c-.7-.7-1.6-1.1-2.5-1.2H66c-.5.1-1 .2-1.5.4s-.9.5-1.3.9c-.2.2-.4.4-.5.6-.4.7-.8 1.4-.8 2.2v1.2c.1.1 0 .1 0 .2 0 .2 0 .3.1.5.2.9.6 1.6 1.3 2.3.4.4.9.8 1.5 1 .5.2 1 .4 1.6.4h.8c1.1-.1 2-.5 2.8-1.4v1.2c0 .1 0 .1.1.1h2.1c-.2-3.1-.2-6.4-.2-9.7zm-4.3 7.7c-.3.1-.7.1-1 .1h-.2c-.5-.1-1-.3-1.4-.6-.3-.3-.6-.6-.8-.9-.2-.3-.3-.6-.3-1-.1-.1 0-.2 0-.3v-.3c.1-.7.4-1.3.9-1.8.4-.4.9-.6 1.4-.7.9-.1 1.7 0 2.4.6.6.5.9 1.1 1.1 1.8.3 1.3-.6 2.7-2.1 3.1zM107.9 18.2v-.4c-.1-.1 0-.1 0-.2 0-.3-.1-.7-.2-1-.3-.9-.9-1.6-1.8-2-.4-.2-.8-.3-1.2-.3h-1.1c-.1.1-.1 0-.2 0-.9.1-1.7.6-2.3 1.3v-3.7h-2.2V24h2.2v-5.5c0-.2 0-.4.1-.6.1-.6.4-1.1 1-1.4.5-.3.9-.4 1.5-.3h.4c.3.1.6.2.9.4.4.4.6.8.7 1.3.1.1 0 .1 0 .2v.3c.1.1 0 .1 0 .2v5.3h2.3v-4.6c-.1-.3-.1-.7-.1-1.1zM43.5 19.8c0-.3-.1-.5-.2-.8-.3-.7-.9-1.2-1.6-1.5-.5-.3-1.1-.4-1.6-.6-.6-.2-1.3-.4-1.9-.7-.8-.4-.9-1.1-.5-1.8.2-.4.6-.5 1.1-.6.1-.1.1 0 .2 0H39.6c.3.1.6.1.9.3.3.2.6.4.8.8.1.1.1.1.2 0 .6-.4 1.1-.9 1.7-1.3.1-.1.1-.1 0-.2-.2-.2-.4-.4-.7-.6-.8-.6-1.7-.9-2.7-1h-1c-.1.1-.1 0-.2 0h-.3c-.9.2-1.7.5-2.3 1.2-.5.5-.8 1.1-.8 1.8v.5c0 .2 0 .3.1.5.2.7.6 1.3 1.2 1.7.6.5 1.4.7 2.1.9.6.2 1.3.4 1.9.7.3.2.6.4.7.8.1.6-.1 1-.5 1.4-.3.3-.7.4-1.2.4-.1.1-.2.1-.3 0-.3 0-.5 0-.8-.1-.7-.2-1.2-.7-1.6-1.3-.1-.1-.1-.1-.2 0-.5.4-.9.7-1.4 1-.2.1-.4.3-.6.5.3.3.6.6.9.8.3.3.6.5 1 .7.6.4 1.3.6 2 .6H40c.1-.1.1 0 .2 0 .4 0 .8-.2 1.2-.4.8-.4 1.4-.9 1.8-1.7.3-.6.4-1.3.4-2-.1.1-.1.1-.1 0zM123 17.8c0-.3-.1-.5-.1-.8-.1-.6-.4-1.2-.8-1.7-.6-.7-1.4-1-2.3-1.2h-1.1c-.1.1-.1 0-.2 0-.9.1-1.7.5-2.3 1.2-.1.1-.1 0-.1 0v-1.2h-2.2V23.9h2.1c.2 0 .2 0 .2-.2v-5.8c.1-.4.3-.8.6-1.2.3-.3.8-.5 1.2-.6.1-.1.1 0 .2 0H119.1c.3.1.6.2.9.5.5.5.7 1.1.7 1.7v5.5c0 .1 0 .2.2.2h2.1v-6.2zM144.2 19.8c-.3-.4-.7-.7-1.1-1-.6-.3-1.3-.5-2-.6-.6-.1-1.2-.2-1.8-.5-.2-.1-.4-.2-.5-.5v-.3c0-.2.2-.4.3-.5.3-.3.7-.3 1-.3h.7c.6.1 1.2.4 1.5.9 0 .1.1.1.2.1.6-.3 1.2-.6 1.8-.8.1 0 0-.1 0-.1-.4-.6-.9-1.1-1.6-1.4-.5-.3-1.1-.4-1.6-.5h-1.2c-.1.1-.1 0-.2 0-.4.1-.8.2-1.3.3-.6.2-1.1.6-1.4 1.1-.3.3-.5.7-.5 1.1v.6c0 .2 0 .4.1.5.2.6.6 1 1.2 1.3.7.4 1.4.5 2.2.7.5.1 1.1.2 1.6.4.2.1.5.2.6.5.1.3 0 .6-.3.8-.3.3-.7.5-1.1.5-.1.1-.3.1-.4 0-.3 0-.6-.1-.9-.2-.5-.2-.9-.6-1.2-1 0-.1-.1-.1-.2-.1-.1.1-.2.1-.3.2-.5.2-1 .5-1.5.7-.1 0-.1.1-.1.2.3.5.6.9 1.1 1.3.7.6 1.5.8 2.4.9h1.5c.1-.1.1 0 .2 0h.3c.9-.2 1.7-.6 2.3-1.3.4-.5.6-1 .6-1.6V21c-.2-.5-.2-.9-.4-1.2zM94.2 14h3.1v-2c0-.1 0-.1-.1-.1h-8.7V14h3c.2 0 .2 0 .2.2V24h2c.3 0 .3 0 .3-.3V14c.1-.1.2 0 .2 0zM87.2 24zM85.4 16.3H87c.1 0 .2 0 .2-.1v-1.9h-1.8c-.1 0-.2 0-.2-.2V11.3h-.1c-.7.5-1.4.9-2 1.4-.1.1-.1.1-.1.2v1.2c0 .1 0 .2-.2.2h-1.4c-.1 0-.1 0-.1.1v1.9H83v4.2c.1.1 0 .2 0 .3v.2c.1.1 0 .1 0 .2 0 .3.1.5.1.7.2.8.6 1.4 1.4 1.7.5.2 1 .3 1.5.3h1.2v-2.1h-.8c-.4 0-.8-.1-1-.5-.1-.2-.1-.4-.1-.6-.1-.1 0-.2 0-.3v-4.1c0-.1 0 0 .1 0zM80.3 14.6c-.4-.2-.8-.3-1.2-.3h-.5c-.1.1-.2 0-.3 0-.2 0-.3 0-.5.1-.7.2-1.2.6-1.6 1.2v.1c-.1 0 0 0 0-.1v-1.3H74V24.1h2c.2 0 .2-.1.2-.2V18.3c.1-1.1.6-1.7 1.7-1.8.2-.1.3-.1.5 0 .4 0 .7.1 1 .3.1.1.1 0 .2-.1.2-.6.5-1.3.8-1.9.1-.1 0-.2-.1-.2zM112 14.5v-.2h-2.2v9.8h2.2v-9.6zM111.9 10.7c-.5-.4-1.1-.4-1.7-.2-.5.2-.7.6-.7 1.2v.3c0 .5.3.9.7 1.2.2.1.5.1.8.1.7 0 1.3-.5 1.3-1.2v-.5c0-.4-.2-.7-.4-.9z" class="st0"/><path d="M91.7 23.8v-9.6c0-.2 0-.2-.2-.2h-3 3c.2 0 .2 0 .2.2v9.6c0 .1-.1.1 0 .2v-.2z" class="st0"/><path d="M91.7 14.2c0-.2 0-.2-.2-.2h-3 3c.2 0 .2 0 .2.2V24 14.2zM98.8 23.9v-12 12.2-.2zM98.8 12v-.1 12.2V12zM97.1 11.8h-8.7 8.7c.1 0 .2.1.2.2v2-2c0-.2 0-.2-.2-.2z" class="st0"/><path d="M88.5 11.8h8.7c.1 0 .1 0 .1.1v2-2c0-.2 0-.2-.2-.2h-8.5c0 .1-.1.1-.1.1zM112 14.2V24.1c.1 0 0-.1 0-.2v-9.5c.1-.1.1-.1 0-.2z" class="st0"/><path d="M112 23.9v-9.7V24c.1 0 0-.1 0-.1zM72.1 14.4v-.2V24.1c.1 0 0-.1 0-.2v-9.5zM72.1 23.8v-9.6V24v-.2zM74 23.8v-9.6c-.1 0 0 .1 0 .2V24v-.2zM74 15.2v-1V24 15.2zM113.9 23.9v-9.7c-.1 0 0 .1 0 .2v9.7-.2zM114 15.2v-1V24.1 15.2zM123 18v-.2V24.1c.1 0 0-.1 0-.2V18zM123 23.9v-6 6.2-.2zM109.7 23.8v-5.9V24v-.2zM109.8 18c-.1 0-.1 0 0 0V24.1 18zM107.9 18.4v-.2V24c.1 0 0-.1 0-.2v-5.4zM107.9 23.9v-5.7V24v-.1zM47.3 18.6V24c.1 0 0-.1 0-.1v-5.5.2zM47.3 18.6V24 18.4c-.1.1 0 .1 0 .2zM105.6 23.8v-5.3c-.1 1.8-.1 3.6 0 5.3v.2c-.1 0 0-.1 0-.2z" class="st0"/><path d="M105.5 18.5V24v-5.3c.1 0 .1-.1 0-.2zM101.1 18.7V24c.1 0 0-.1 0-.1v-5.4.2zM101.1 18.7V24v-5.5c-.1.1 0 .2 0 .2zM53.8 18.7v4.6-4.8.2zM53.8 18.6v4.7-4.7s0-.1 0 0c0-.1 0-.1 0 0zM87.2 14.2V16.1c0 .1 0 .2-.2.2h-1.9 1.8c.1 0 .2 0 .2-.2v-1.7c.1-.1.1-.1.1-.2z" class="st0"/><path d="M85.4 16.3h1.7c.1 0 .2 0 .2-.2V14.2v1.9c0 .1-.1.1-.2.1-.6.1-1.2.1-1.7.1-.1 0-.1-.1-.2 0h.2zM109.7 18V14.2c-.1 0 0 .1 0 .1V18zM109.7 14.4V18v-3.8.2zM109.7 18zM109.7 18c.1 0 0 0 0 0zM97.3 14H94 97.3zM94.2 14h3.1-3.1c-.1 0-.1-.1-.2 0h.2zM97.3 14zM97.3 14zM98.8 11.8H101.1c0-.1-.1 0-.1 0h-2.2zM98.9 11.8c-.1 0-.1 0 0 0-.1 0-.1 0 0 0-.1 0-.1 0 0 0h2.2-2.2zM98.8 11.8zM98.8 11.8zM88.5 14v-2.1c-.1.6-.1 1.3 0 2.1-.1 0-.1 0 0 0z" class="st0"/><path d="M88.5 12V13.9v-2.1c-.1.1 0 .1 0 .2zM88.5 14zM88.5 14zM88.5 11.8c-.1 0 0 0 0 0zM88.5 11.8zM87.2 22v2.1V22c0-.1 0-.1 0 0 0-.1 0-.1 0 0zM87.2 24zM87.2 23.9V22v2.1-.2zM82.7 16.3h-1.5c0 .1.1 0 .2 0h1.5-.2zM82.7 16.3h-1.5 1.7c0-.1-.1 0-.2 0zM76.2 14.8v.7s0 .1.1.1c-.1 0 0-.1 0-.2v-1.2c0 .2-.1.4-.1.6z" class="st0"/><path d="M76.2 15.6c.1 0 .1 0 0 0v-1.5 1.5zM132.5 15.4v-1.2c-.1 0 0 .1 0 .2-.1.3 0 .6 0 1v.1-.1zM132.4 15.5c.1.1.1 0 0 0 .1 0 .1 0 0 0 .1 0 0 0 0 0z" class="st0"/><path d="M132.4 15.5s.1 0 0 0c.1 0 .1 0 0 0 .1 0 .1 0 0 0 .1-.5.1-.9.1-1.3v1.2s0 .1-.1.1zM19.3 28.3h1.5c-.6.1-1 .1-1.5 0zM19.3 28.3h1.4-1.4zM116.2 14.9v.5s0 .1.1.1c-.1 0 0-.1 0-.2v-1.1c-.1.2-.1.5-.1.7zM116.2 15.4c0 .1 0 .2 0 0 0 .1 0 0 0 0v-1.2 1.2zM38.9 24zM38.9 24h.9-.9zM140 24zM140 24h.9-.9zM30.5 17.4v.9c.1-.2 0-.4 0-.5v-.4zM30.5 17.4v.9-.9zM9.5 18v-.8.8zM9.5 18v-.8.8zM66.2 24zM66.2 24h.8-.8zM53.8 23.3v.7c.1 0 0-.1 0-.1v-.6z" class="st0"/><path d="M53.8 23.3v.7c.1-.2 0-.5 0-.7zM53.8 23.3zM53.8 23.3zM128.9 24c.2.1.5.1.7 0-.2.1-.4.1-.7 0zM128.9 24h.7-.7zM136.5 16.8c-.1.2-.1.4 0 .6v-.6zM136.5 17.4v-.6.6zM9.5 18c0 .2-.1.4 0 .6V18zM9.5 18v.6-.6zM9.5 18zM9.5 18zM61.8 18.8c-.1.2-.1.4 0 .6v-.6zM61.8 19.5v-.6.6zM35.2 14.9c-.1.2-.1.4 0 .5-.1-.1-.1-.3 0-.5zM35.2 14.9v.5-.5zM78 16.4h.5-.5zM78 16.4h.5-.5zM112.3 12c.1-.2.1-.3 0-.5v.5zM112.3 11.6v.5-.5zM140.8 22.1h-.4.4zM140.8 22.1h-.4.4zM60.4 17.7v.4c0-.1.1-.2 0-.4zM60.4 17.7v.4-.4zM21.7 7.4c-.1-.1-.3 0-.4 0 .2.1.3 0 .4 0z" class="st0"/><path d="M21.7 7.4h-.4c.2.1.3 0 .4 0zM30.4 19.6c.1-.1 0-.2 0-.4 0 .1.1.2 0 .4zM30.4 19.6v-.4.4zM140.2 16.1h.4-.4zM140.2 16.1h.4-.4zM30.5 16.6v-.4c0 .1-.1.2 0 .4z" class="st0"/><path d="M30.5 16.6v-.4c-.1.1-.1.2 0 .4zM18.6 7.4h-.4c.2 0 .3.1.4 0z" class="st0"/><path d="M18.6 7.4h-.4c.2 0 .3.1.4 0zM21.3 28.3h.4-.4zM21.3 28.3h.4-.4zM9.6 16.2c-.1.1 0 .2 0 .4 0-.2-.1-.3 0-.4zM9.6 16.2v.4-.4zM18.3 28.3c.1.1.2 0 .4 0h-.4zM18.3 28.3h.4-.4zM9.5 19.2v.4c0-.1.1-.2 0-.4z" class="st0"/><path d="M9.5 19.2v.4c.1-.1.1-.2 0-.4zM79.2 14.3c-.1-.1-.2 0-.4 0 .1 0 .2-.1.4 0z" class="st0"/><path d="M79.2 14.3h-.4c.1 0 .2-.1.4 0zM132.5 23.7c-.1.1 0 .2 0 .3 0-.1-.1-.2 0-.3zM132.5 23.7v.3-.3zM39.5 21.9h-.3.3zM39.5 21.9h-.3.3zM78.7 14.2h-.3s.1.1.3 0z" class="st0"/><path d="M78.7 14.2h-.3s.1.1.3 0zM129.6 26.5c-.1-.1-.2 0-.3 0h.3zM129.6 26.5h-.3.3zM82.9 20.5v.3c0-.1.1-.2 0-.3z" class="st0"/><path d="M82.9 20.5v.3c0-.1.1-.2 0-.3zM39.9 11.8c-.1-.1-.2 0-.3 0h.3zM39.9 11.8h-.3c.1.1.2 0 .3 0zM85.2 20.7v-.3.3zM85.2 20.7v-.3.3zM134.7 24.2c.1-.1 0-.2 0-.3v.3zM134.7 24.2v-.3.3zM109.5 11.7v.3c-.1-.1-.1-.2 0-.3zM109.5 11.7v.3-.3zM58.1 18.1v.3-.3zM58.1 18.1v.3-.3zM86 24c.1.1.2 0 .3 0H86zM86 24h.3-.3zM30.4 15.9v-.3.3zM30.4 15.9v-.3.3zM130.1 26.5h-.3.3zM130.1 26.5h-.3.3zM21.9 28.3h.3-.3zM21.9 28.3h.3c-.1 0-.2-.1-.3 0zM9.6 19.8v.3-.3zM9.6 19.8v.3-.3zM138.8 17.2v-.3.3zM138.8 17.2v-.3c-.1.2-.1.2 0 .3zM18 7.5h-.3c.2-.1.3 0 .3 0zM18 7.5h-.3.3zM124.5 18.5c-.1.1 0 .2 0 .3v-.3zM124.5 18.5v.3-.3zM38.8 13.9h.2s-.1-.1-.2 0z" class="st0"/><path d="M38.8 13.9h.2c0-.1-.1-.1-.2 0zM139.9 14.2h-.2s.1.1.2 0z" class="st0"/><path d="M139.9 14.2h-.2s.1.1.2 0zM17.8 28.3c.1.1.1 0 .2 0h-.2zM17.8 28.3h.2c0-.1-.1 0-.2 0zM116.2 18.5c.1-.1 0-.1 0-.2 0 .1.1.2 0 .2zM116.2 18.5v-.2.2zM9.6 15.7c-.1.1 0 .1 0 .2v-.2zM9.6 15.7v.2-.2zM76.3 18.5c.1-.1 0-.1 0-.2-.1 0 0 .1 0 .2z" class="st0"/><path d="M76.3 18.5v-.2c-.1 0 0 .1 0 .2zM124.5 19.6v.2-.2zM124.5 19.6v.2-.2zM22.2 7.5c-.1-.1-.1 0-.2 0 0 0 .1-.1.2 0zM22.2 7.5H22h.2zM30.4 20c.1-.1 0-.1 0-.2v.2zM30.4 20v-.2.2zM141.1 14.3c-.1-.1-.1 0-.2 0 0 0 .1-.1.2 0zM141.1 14.3h-.2.2zM104.6 14.3c-.1-.1-.1 0-.2 0 .1 0 .2-.1.2 0z" class="st0"/><path d="M104.6 14.3h-.2c.1 0 .2-.1.2 0zM86.6 21.9c-.1-.1-.1 0-.2 0h.2zM86.6 21.9h-.2.2zM57.1 14.3c-.1-.1-.1 0-.2 0 .1 0 .2-.1.2 0z" class="st0"/><path d="M57.1 14.3h-.2c.1 0 .2-.1.2 0zM107.9 17.8v-.2c0 .1-.1.2 0 .2z" class="st0"/><path d="M107.9 17.8v-.2c-.1.1-.1.2 0 .2zM38.9 11.8h-.2.2zM38.9 11.8h-.2.2zM144.5 21.1v-.2.2zM144.5 20.9v.2-.2zM83 21v.2c-.1 0 0-.1 0-.2zM83 21v.2-.2zM66.2 14.2H66c.1 0 .2.1.2 0z" class="st0"/><path d="M66.2 14.2H66c.1.1.2.1.2 0zM67.3 14.3c-.1-.1-.1 0-.2 0 .1 0 .1-.1.2 0zM67.3 14.3h-.2.2zM103.6 14.2h-.2s.1.1.2 0z" class="st0"/><path d="M103.6 14.2h-.2c0 .1.1.1.2 0zM9.6 20.3v.2-.2zM9.6 20.3v.2c0-.1.1-.2 0-.2zM87.2 21.9c0-.1-.1 0-.1 0h.1zM87.2 21.9h-.1.1zM87.2 21.9zM87.2 21.9zM30.4 20.4c.1-.1 0-.1 0-.2v.2zM30.4 20.4v-.2c-.1.1 0 .2 0 .2zM56 14.2h-.2c.1 0 .2.1.2 0z" class="st0"/><path d="M56 14.2h-.2c.1.1.2.1.2 0zM118.7 14.2h-.2c.1 0 .2.1.2 0z" class="st0"/><path d="M118.7 14.2h-.2c.1.1.2.1.2 0zM119.8 14.3c-.1-.1-.1 0-.2 0 0 0 .1-.1.2 0zM119.8 14.3h-.2.2zM128.9 14.2h-.2c.1 0 .1.1.2 0z" class="st0"/><path d="M128.9 14.2h-.2c.1.1.1.1.2 0zM118.8 16.2c.1.1.1 0 .2 0h-.2zM118.8 16.2h.2-.2zM105.5 18.1v.2-.2zM105.5 18.1v.2c0-.1.1-.2 0-.2zM43.6 20v-.2c0 .1-.1.1 0 .2z" class="st0"/><path d="M43.6 20v-.2c-.1.1-.1.1 0 .2zM22.6 7.5c-.1-.1-.1 0-.2 0h.2zM22.6 7.5h-.2.2zM118.1 16.2h.2-.2zM118.1 16.2h.2-.2zM103.6 16.2c.1.1.1 0 .2 0h-.2zM103.6 16.2h.2-.2zM38.4 24c.1.1.1 0 .2 0h-.2zM38.4 24h.2-.2zM39.9 24h.2-.2zM39.9 24h.2-.2zM56.2 16.2c.1.1.1 0 .2 0h-.2zM56.2 16.2h.2-.2zM139.5 24c.1.1.1 0 .2 0h-.2zM139.5 24h.2-.2zM141.1 24h.2-.2zM141.1 24h.2-.2zM17.6 7.5h-.2.2zM17.6 7.5h-.2.2zM61.8 19.7v.2-.2zM61.8 19.7v.2c0-.1.1-.1 0-.2zM55.6 16.2h.2-.2zM55.6 16.2h.2-.2zM49.7 16.2c.1.1.1 0 .2 0h-.2zM49.7 16.2h.2-.2zM49.1 16.2h.2-.2zM49.1 16.2h.2-.2zM50.7 14.3c-.1-.1-.1 0-.2 0 .1 0 .1-.1.2 0zM50.7 14.3h-.2.2zM30.4 15.5v-.2.2zM30.4 15.5v-.2c0 .1-.1.2 0 .2zM9.6 15.3c-.1.1 0 .1 0 .2.1 0 0-.1 0-.2z" class="st0"/><path d="M9.6 15.3v.2c.1 0 0-.1 0-.2zM17.5 28.2c.1.1.1 0 .2 0-.1 0-.2.1-.2 0zM17.5 28.2h.2-.2zM22.4 28.3h.2c-.1 0-.2-.1-.2 0z" class="st0"/><path d="M22.4 28.3h.2c-.1-.1-.2-.1-.2 0zM49.7 14.2h-.2s.1.1.2 0z" class="st0"/><path d="M49.7 14.2h-.2c0 .1.1.1.2 0zM129.9 14.3c-.1-.1-.1 0-.2 0 .1 0 .2-.1.2 0zM129.9 14.3h-.2.2zM61.8 18.4c-.1.1 0 .1 0 .2v-.2zM61.8 18.4v.2c.1-.1 0-.1 0-.2zM39.4 13.8c.1.1.1 0 .2 0 0 0-.1.1-.2 0zM39.4 13.8h.2-.2zM132.6 19.4c.1-.2.1-.4 0-.5v.5zM132.6 18.8v.5-.5zM126.7 18.9c-.1.1-.1.3 0 .4v-.4zM126.7 18.9v.4-.4zM129.9 22h.2s-.1-.1-.2 0z" class="st0"/><path d="M129.9 22h.2c0-.1-.1-.1-.2 0zM19.7 15.1v-.8 1.4-.6zM19.7 15.6v-1.3c.1.3 0 .5 0 .8v.5c0 .1 0 .1 0 0 0 .1 0 0 0 0zM14.6 14.5c-.2-.1-.4-.1-.5 0h.5zM14.6 14.5h-.5.5zM26 14.5c-.2-.1-.4-.1-.5 0h.5zM26 14.5h-.5.5zM18.1 12.1c0 .2-.1.3 0 .5-.1-.1-.1-.3 0-.5zM18.1 12.1v.5-.5zM16.2 24.9c.2 0 .3.1.5 0h-.5zM16.2 24.9h.5-.5zM25.5 23.2c.1-.2.1-.3 0-.5v.5zM25.5 22.7v.5-.5zM21.9 12.6c.1-.2.1-.3 0-.5.1.2.1.4 0 .5zM21.9 12.6v-.5.5zM23.3 24.9h.4-.4zM23.3 24.9h.4-.4zM18.4 23.2c0-.1.1-.3 0-.4.1.1.1.2 0 .4z" class="st0"/><path d="M18.4 22.7v.4c.1-.1.1-.2 0-.4zM21.6 22.7c-.1.1-.1.3 0 .4v-.4zM21.6 22.7v.4-.4zM17.4 18.1c-.1.1-.1.3 0 .4-.1-.2-.1-.3 0-.4zM17.4 18.1v.4-.4zM20.2 10.5c-.1-.1-.2-.1-.4 0h.4zM20.2 10.5h-.4.4zM12.4 16.3c-.1.1-.1.2 0 .3-.1-.1-.1-.2 0-.3zM12.4 16.3v.3-.3zM22.7 18.4c.1-.1.1-.2 0-.3v.3zM22.7 18.4v-.3.3zM27.6 16.6v-.3c.1.1.1.2 0 .3z" class="st0"/><path d="M27.6 16.3v.3c.1-.1.1-.2 0-.3zM14.5 23v.2s.1-.1 0-.2z" class="st0"/><path d="M14.5 23v.2c.1 0 .1-.1 0-.2zM20.1 20.8h.2c0 .1-.1 0-.2 0zM20.1 20.8h.2-.2zM23.6 21.1c-.1-.1-.1-.1-.2 0 .1-.1.2-.1.2 0zM23.6 21.1h-.2.2zM19.6 20.8c.1.1.1 0 .2 0 0 0-.1.1-.2 0zM19.6 20.8h.2-.2zM17.3 17.8v.1c.1 0 .1-.1 0-.1z" class="st0"/><path d="M17.3 17.8c.1 0 .1.1 0 .1.1-.1.1-.1 0-.1zM14.6 22.7c-.1.1 0 .1 0 .2 0-.1-.1-.1 0-.2zM14.6 22.7v.2-.2zM16.3 16.3v-.2c0 .1-.1.1 0 .2z" class="st0"/><path d="M16.3 16.3v-.2c-.1.1-.1.1 0 .2zM64.1 18.8c-.1.1 0 .2 0 .3 0-.1-.1-.2 0-.3zM64.1 18.8v.3-.3zM64 19.1v.3c0-.1.1-.2 0-.3z" class="st0"/><path d="M64 19.1v.3c.1-.1.1-.2 0-.3zM66.5 21.9c.1.1.1 0 .2 0 0 0-.1.1-.2 0zM66.5 21.9h.2-.2zM21.7 18.1c0-.1 0-.2-.1-.3-.2-.7-.8-1.1-1.5-1.2h-.6c-.7.1-1.3.9-1.3 1.4v.5c0 .7.8 1.4 1.5 1.4h.5c.7-.1 1.3-.6 1.5-1.5v-.3zM15.5 16.3c-.1-.5-.4-.9-.9-1H14.3c-.1.1-.1 0-.2 0-.8.1-1.3 1.1-.8 1.8.3.5.8.6 1.4.4.5-.1.7-.5.8-.9v-.3zM20.2 13.5c.5-.1 1-.5 1-1.1 0-.6-.4-1.1-1-1.2h-.4c-.3 0-.5.1-.7.3-.2.3-.3.6-.3.9 0 .5.6 1 1 1 .2.1.3.1.4.1zM19.8 19.9c.2.1.3.1.5 0h-.5zM19.8 19.9h.5-.5z" class="st0"/><path d="M18.3 18c-.1.2-.1.3 0 .5V18zM18.3 18v.5-.5zM21.7 18.5c.1-.1.1-.3 0-.4.1.1.1.2 0 .4z" class="st0"/><path d="M21.7 18.1v.4c.1-.2.1-.3 0-.4zM20.2 11.2c-.1-.1-.2-.1-.4 0h.4zM20.2 11.2h-.4.4zM20.2 16.5c-.1-.1-.2-.1-.3 0h.3zM20.2 16.5h-.3.3zM15.5 16.6c.1-.1.1-.2 0-.3v.3zM15.5 16.3v.3-.3zM19.9 13.5c.1.1.2 0 .3 0-.1.1-.2.1-.3 0zM19.9 13.5h.3-.3zM14.6 15.3c-.1-.1-.1 0-.2 0h.2zM14.6 15.3h-.2.2zM14.3 15.3h-.2.2zM14.3 15.3h-.2.2zM25.9 15.3h-.5c-.5.1-1 .6-.9 1v.5c.2.7.9 1 1.6.7.7-.3.9-1.2.4-1.8-.1-.2-.3-.3-.6-.4z" class="st0"/><path d="M24.5 16.3c-.1.1-.1.2 0 .3v-.3zM24.5 16.3v.3-.3zM25.9 15.3c-.1-.1-.1 0-.2 0h.2zM25.9 15.3h-.2.2zM25.6 15.3h-.2.2zM25.6 15.3h-.2.2zM16.3 21.8c-.5 0-1 .6-1 1v.2c0 .5.5 1 1 1h.4c.2 0 .4-.1.5-.3.3-.2.5-.7.4-1.1-.1-.5-.6-.8-1.3-.8zM16.3 24.1c.1 0 .3.1.4 0h-.4zM16.3 24.1h.4-.4zM15.3 22.9c-.1.1-.1.1 0 .2v-.2zM15.3 22.9v.2-.2zM23.6 21.8h-.2c-.5 0-1.1.5-1.1 1.2 0 .5.5 1 1 1.1h.5c.5-.2.9-.7.9-1.2-.1-.6-.4-1-1.1-1.1zM23.3 24.1h.4-.4zM23.3 24.1h.4-.4zM23.6 21.8c-.1-.1-.1-.1-.2 0h.2zM23.6 21.8h-.2.2z" class="st0"/></svg>