<svg xmlns="http://www.w3.org/2000/svg" xml:space="preserve" id="Layer_1" x="0" y="0" style="enable-background:new 0 0 154 36" version="1.1" viewBox="0 0 154 36"><style>.st0{fill:#b4b7c9}.st1{fill:#a0a3b5}</style><path d="M65.2 20.9c-.1 2.4-.7 4.1-2 5.3-1.2 1.2-3 1.8-5.4 1.8-2.4 0-4.3-.7-5.8-2.2-1.5-1.5-2.2-3.4-2.2-5.7V16c0-2.3.7-4.3 2.1-5.7C53.4 8.8 55.2 8 57.5 8c2.4 0 4.3.6 5.6 1.9 1.3 1.2 2 3 2.2 5.3v.1h-4.4c-.1-1.3-.3-2.2-.8-2.8-.5-.6-1.3-.9-2.5-.9-1 0-1.8.4-2.4 1.2-.6.8-.9 1.9-.9 3.2v4c0 1.3.3 2.4 1 3.3.6.8 1.5 1.2 2.6 1.2s1.8-.3 2.3-.9c.5-.6.7-1.5.8-2.8h4.2zM13.3 22.6c0-.7-.2-1.2-.7-1.6-.4-.4-1.3-.8-2.4-1.2-2.4-.8-4.2-1.6-5.4-2.5-1.2-.9-1.8-2.2-1.8-3.8 0-1.6.7-2.9 2.1-3.9C6.5 8.5 8.3 8 10.4 8c2.1 0 3.9.6 5.2 1.7 1.4 1.1 2 2.5 2 4.3v.1h-4.3c0-.8-.3-1.4-.8-1.9s-1.2-.7-2.2-.7c-.9 0-1.6.2-2.1.6-.5.4-.8.9-.8 1.5s.3 1 .8 1.4c.5.3 1.5.8 2.9 1.3 2.2.7 3.8 1.5 4.9 2.4 1.1 1 1.7 2.3 1.7 4 0 1.7-.7 3-2 4s-3.1 1.4-5.2 1.4c-2.2 0-4.1-.6-5.7-1.7-1.6-1.1-2.4-2.7-2.3-4.8v-.1h4.4c0 1.1.3 1.9.9 2.4.6.5 1.5.7 2.7.7.9 0 1.6-.2 2.1-.6.4-.4.7-.8.7-1.4M18.8 8.1V12h5.3v15.8h4V12h5.2V8.1zM114.7 8.1V12h5.2v15.8h4V12h5.3V8.1zM142.4 8.1V16h-6.5V8.1H132v19.7h3.9v-7.9h6.5v7.9h4V8.1zM89.8 21.1v6.7h-4.5V8.1h7.3c2.3 0 4.2.6 5.5 1.8 1.4 1.2 2 2.8 2 4.7 0 1.9-.7 3.5-2 4.7-1.4 1.2-3.2 1.8-5.5 1.8h-2.8zm0-3.6h2.8c1 0 1.7-.3 2.2-.8.5-.5.8-1.2.8-2.1 0-.9-.3-1.6-.8-2.2-.5-.6-1.3-.8-2.2-.8h-2.8v5.9zM82.4 26.9c-2.3-2.7-5.9-6.8-7.8-9l7.8-9v-.8h-4.5c-2.1 2.5-4.1 4.8-6.2 7.3V8.1h-4v19.7h4v-7.3l6.3 7.3h4.4v-.9zM105.4 8.1l-6.8 19.7h4.3l6.9-19.7zM38.4 8.1l-6.8 19.7h4.2l7-19.7z" class="st0"/><path d="m42.8 8.1-2.2 6 2.2 6.1h-4.3L37.1 24H44l1.3 3.8h4.2zM109.8 8.1l-2.1 6 2.1 6.1h-4.2l-1.4 3.8h6.8l1.3 3.8h4.2z" class="st1"/><path d="M149.2 8.5h-.6v1.6h-.4V8.5h-.6v-.4h1.6v.4zM150 8.1l.5 1.4.5-1.4h.5v2h-.4V8.7l-.5 1.5h-.3l-.5-1.5v1.4h-.4v-2h.6z" class="st0"/></svg>