<svg xmlns="http://www.w3.org/2000/svg" xml:space="preserve" id="Layer_1" x="0" y="0" style="enable-background:new 0 0 154 36" version="1.1" viewBox="0 0 154 36"><style>.st0{fill:#b4b7c9}</style><path d="M71.7 10.8c-1 0-1.9-.2-2.5-1 .6.7 1.4 1 2.5 1 1 .1 1.7-.3 2.1-.7-.5.4-1.2.8-2.1.7zM106.2 30.9c-.8-.1-1.1-.7-.9-1.5.1-.6 0-1.2 0-1.9V18c0-1.4-.1-2.7-.1-4.1 0-.3.1-.6.1-.9.1-.5-.1-.7-.6-.6-2.5.6-5 1.2-7.6 1.9.2.3.3.5.5.6.4.4.8.7 1.3 1.1.2.2.4.4.4.8v5.8c0 .9.1 1.9.1 2.8 0 1.1-.1 2.2-.1 3.3v.8c-.1.9-.2 1.1-1 1.2-.5.1-1.1.1-1.6-.1-.9-.2-1.1-1-1.2-1.8v-5.6c0-1.9-.1-3.8-.1-5.7v-6.3c0-.5.1-1.1.1-1.6V3.9h-.6l-2.1.6c-1.7.4-3.5.9-5.2 1.3-.3.1-.4.4-.2.6.2.2.5.4.7.6 1.3.9 1.3.9 1.3 2.5v3.3c-.9-.2-1.8-.4-2.7-.4-.7 0-1.4.1-2.1.2-1.6.2-3.1.9-4.3 1.9-2.4 2-3.4 4.6-3.7 7.6-.1 2.1.1 4.1 1.1 6 .8 1.6 1.9 2.7 3.6 3.4 1.6.7 3.3.7 4.9.1 1-.4 2-1 2.6-1.9.2-.2.4-.4.6-.7v2.8h17.9v-.7c-.3-.2-.7-.2-1.1-.2zM89.5 24c0 1.1 0 2.2-.1 3.2 0 .6-.3 1-.9 1.2-2 .6-3.8 0-4.8-2-.8-1.4-1.1-3.1-1.1-5.3 0-1.7.2-3.4.8-5 .4-1 1-2 2-2.5 1.2-.7 2.7-.5 3.5.9.4.8.6 1.6.6 2.5 0 .8.1 1.6.1 2.4-.1 1.5-.1 3.1-.1 4.6zM67 13.1v-.4h-6.4v.6c.6.1 1.2.2 1.7.3.9.2 1.4.7 1.2 1.3-.1.5-.4 1.1-.6 1.6-.8 1.9-1.5 3.8-2.3 5.7-.4 1-.8 2-1.2 3.1-.5-1.2-.9-2.2-1.3-3.3-.9-2.3-1.9-4.6-2.8-6.9-.4-.9-.1-1.4.8-1.6.5-.1.9-.2 1.4-.2v-.7H46.7c0 .3-.2.7.3.8 1 .1 1.5.8 1.9 1.6l2.7 5.7c1.3 2.7 2.6 5.4 3.8 8.1.4.9.9 1.8 1.3 2.7.2.4.6.2.9.2.1 0 .3-.1.3-.3.4-1 .8-1.9 1.2-2.9l2.7-6.3c1-2.4 2.1-4.8 3-7.2.4-1.1 1.1-1.6 2.2-1.8v-.1zM76.1 31c-.2 0-.4-.1-.6-.1-.7-.1-1-.5-1-1.2 0-.3.1-.7.1-1 0-1.1 0-2.1-.1-3.2v-11c0-.3.1-.7.1-1 0-.4-.1-.8-.1-1.2-.4.1-.7.2-1.1.3-2.2.6-4.4 1.1-6.6 1.7-.3.1-.4.3-.2.6.3.3.7.6 1.1.9.5.4.9.8.9 1.6-.1 3.8 0 7.6 0 11.4 0 .2 0 .4.1.6.1.7-.4 1.5-1 1.5-.4 0-.7.1-1.1.1v.6c1.7.1 3.3 0 5 0h5c.1-.5.1-.5-.5-.6z" class="st0"/><path d="M69.1 9.8c.7.7 1.5 1 2.5 1 1 .1 1.7-.3 2.1-.7.2-.1.2-.1.3-.2 1.2-1.2 1.1-3.5-.2-4.6-1.5-1.3-4.5-1-5.2 1.1-.4 1-.4 2.1.3 3 0 .2.1.3.2.4zM102.8 10.8c.9 0 1.8-.4 2.4-1.3.8-1.1.8-2.9 0-3.7-1.1-1.2-2.7-1.6-4.2-.9-1.6.7-2.2 2.7-1.5 4.2.6 1.2 1.7 1.7 3.3 1.7z" class="st0"/></svg>