<svg xmlns="http://www.w3.org/2000/svg" width="48" height="48" fill="none"><g fill="url(#b)" clip-path="url(#a)"><path d="M7.5 11.25a7.51 7.51 0 0 0-7.5 7.5v1.875C0 21.661.839 22.5 1.875 22.5h11.25A1.874 1.874 0 0 0 15 20.625V18.75a7.51 7.51 0 0 0-7.5-7.5zm-3.75 7.5C3.75 16.682 5.432 15 7.5 15s3.75 1.682 3.75 3.75h-7.5zM13.125 5.625C13.125 2.523 10.602 0 7.5 0S1.875 2.523 1.875 5.625 4.398 11.25 7.5 11.25s5.625-2.523 5.625-5.625zM7.5 7.5a1.88 1.88 0 0 1-1.875-1.875A1.88 1.88 0 0 1 7.5 3.75a1.88 1.88 0 0 1 1.875 1.875A1.88 1.88 0 0 1 7.5 7.5zM40.5 11.25a7.51 7.51 0 0 0-7.5 7.5v1.875c0 1.036.84 1.875 1.875 1.875h11.25A1.874 1.874 0 0 0 48 20.625V18.75a7.51 7.51 0 0 0-7.5-7.5zm-3.75 7.5c0-2.068 1.682-3.75 3.75-3.75s3.75 1.682 3.75 3.75h-7.5zM46.125 5.625C46.125 2.523 43.602 0 40.5 0s-5.625 2.523-5.625 5.625 2.523 5.625 5.625 5.625 5.625-2.523 5.625-5.625zM40.5 7.5a1.88 1.88 0 0 1-1.875-1.875A1.88 1.88 0 0 1 40.5 3.75a1.88 1.88 0 0 1 1.875 1.875A1.88 1.88 0 0 1 40.5 7.5zM24 36.75a7.51 7.51 0 0 0-7.5 7.5v1.875c0 1.036.84 1.875 1.875 1.875h11.25a1.874 1.874 0 0 0 1.875-1.875V44.25a7.51 7.51 0 0 0-7.5-7.5zm-3.75 7.5c0-2.068 1.682-3.75 3.75-3.75s3.75 1.682 3.75 3.75h-7.5zM29.625 31.125c0-3.102-2.523-5.625-5.625-5.625s-5.625 2.523-5.625 5.625S20.898 36.75 24 36.75s5.625-2.523 5.625-5.625zM24 33a1.88 1.88 0 0 1-1.875-1.875A1.88 1.88 0 0 1 24 29.25a1.88 1.88 0 0 1 1.875 1.875A1.88 1.88 0 0 1 24 33zM10.007 33.435a16.743 16.743 0 0 1-2.538-6.031 1.874 1.874 0 1 0-3.674.752A20.5 20.5 0 0 0 6.9 35.534a20.653 20.653 0 0 0 2.518 3.051 1.876 1.876 0 0 0 2.652-2.652 17.012 17.012 0 0 1-2.062-2.499zM42.745 25.943a1.875 1.875 0 0 0-2.213 1.461 16.743 16.743 0 0 1-2.538 6.031 17 17 0 0 1-2.062 2.499 1.876 1.876 0 0 0 2.652 2.652 20.71 20.71 0 0 0 2.517-3.051 20.63 20.63 0 0 0 1.902-3.504 20.574 20.574 0 0 0 1.203-3.874 1.876 1.876 0 0 0-1.461-2.213zM32.029 4.997A20.5 20.5 0 0 0 24 3.375c-2.783 0-5.485.546-8.029 1.622a1.874 1.874 0 1 0 1.461 3.453c2.079-.879 4.289-1.325 6.568-1.325s4.489.446 6.568 1.325a1.875 1.875 0 0 0 1.461-3.453z"/></g><defs><linearGradient id="b" x1="0" x2="48" y1="24.115" y2="24.115" gradientUnits="userSpaceOnUse"><stop stop-color="#6366f1"/><stop offset=".5" stop-color="#8b5cf6"/><stop offset="1" stop-color="#d946ef"/></linearGradient><clipPath id="a"><path fill="#fff" d="M0 0h48v48H0z"/></clipPath></defs></svg>