<svg xmlns="http://www.w3.org/2000/svg" xml:space="preserve" id="Layer_1" x="0" y="0" style="enable-background:new 0 0 48 48" version="1.1" viewBox="0 0 48 48"><style>.st1{fill:#6366f1}</style><linearGradient id="SVGID_1_" x1="18.141" x2="43.589" y1="16.35" y2="16.35" gradientTransform="matrix(1 0 0 -1 0 50)" gradientUnits="userSpaceOnUse"><stop offset="0" style="stop-color:#6366f1"/><stop offset=".5" style="stop-color:#8b5cf6"/><stop offset="1" style="stop-color:#d946ef"/></linearGradient><path d="m37.1 30.2-2.4-.4v-4.3c0-2.6-2.2-4.8-4.8-4.8s-4.8 2.2-4.8 4.8v7.4c-.2-.1-.5-.2-.7-.2-1.3-.3-2.7-.1-3.8.6-1.2.7-2 1.8-2.3 3.1-.5 1.9.2 4 1.8 5.2l5.8 4.6c.3.3.7.4 1.2.4s1.1-.2 1.4-.7c.6-.8.5-2-.3-2.6l-5.8-4.6c-.4-.3-.6-.9-.5-1.4.1-.4.3-.7.6-.8.3-.2.7-.2 1-.2.1 0 .2.1.3.1l2.3 1.2c.6.3 1.3.3 1.8-.1.5-.3.9-.9.9-1.6V25.5c0-.6.5-1.1 1.1-1.1s1.1.5 1.1 1.1v5.9c0 .9.7 1.7 1.5 1.8l3.9.7c2 .3 3.4 2 3.4 4v6.8c0 1 .8 1.8 1.8 1.8s1.8-.8 1.8-1.8v-6.8c.2-3.8-2.6-7.1-6.3-7.7z" style="fill:url(#SVGID_1_)"/><path d="M10.7 14h14.8c1 0 1.8-.8 1.8-1.8s-.8-1.8-1.8-1.8H10.7c-1 0-1.8.8-1.8 1.8s.8 1.8 1.8 1.8zM10.7 19.9h14.8c1 0 1.8-.8 1.8-1.8s-.8-1.8-1.8-1.8H10.7c-1 0-1.8.8-1.8 1.8s.8 1.8 1.8 1.8zM10.7 25.8h7.4c1 0 1.8-.8 1.8-1.8s-.8-1.8-1.8-1.8h-7.4c-1 0-1.8.8-1.8 1.8s.8 1.8 1.8 1.8z" class="st1"/><linearGradient id="SVGID_00000049183913758775584710000006113957091791126170_" x1="0" x2="48" y1="30.4" y2="30.4" gradientTransform="matrix(1 0 0 -1 0 50)" gradientUnits="userSpaceOnUse"><stop offset="0" style="stop-color:#6366f1"/><stop offset=".5" style="stop-color:#8b5cf6"/><stop offset="1" style="stop-color:#d946ef"/></linearGradient><path d="M43.2 1.5H4.8C2.2 1.5 0 3.6 0 6.3v26.6c0 2.6 2.2 4.8 4.8 4.8h10.3c1 0 1.8-.8 1.8-1.8s-.7-1.9-1.8-1.9H4.8c-.6 0-1.1-.5-1.1-1.1V6.3c0-.6.5-1.1 1.1-1.1h30.6V21c0 1 .8 1.8 1.8 1.8S39 22 39 21V5.2h4.1c.6 0 1.1.5 1.1 1.1v23.6c0 1 .8 1.8 1.8 1.8s1.8-.8 1.8-1.8V6.3c.2-2.7-2-4.8-4.6-4.8z" style="fill:url(#SVGID_00000049183913758775584710000006113957091791126170_)"/></svg>