<svg xmlns="http://www.w3.org/2000/svg" xml:space="preserve" id="Layer_1" x="0" y="0" style="enable-background:new 0 0 48 48" version="1.1" viewBox="0 0 48 48"><style>.st0{fill:#6366f1}</style><path d="M8.9 30.2c-4.9 0-8.9 4-8.9 8.9S4 48 8.9 48s8.9-4 8.9-8.9-4-8.9-8.9-8.9zm0 14.1c-2.9 0-5.2-2.3-5.2-5.2s2.3-5.2 5.2-5.2 5.2 2.3 5.2 5.2-2.3 5.2-5.2 5.2zM.5 21.3c.4.4.8.5 1.3.5s.9-.2 1.3-.5l3.7-3.7 3.7 3.7c.4.4.8.5 1.3.5s.9-.2 1.3-.5c.7-.7.7-1.9 0-2.6L9.4 15l3.7-3.7c.7-.7.7-1.9 0-2.6-.7-.7-1.9-.7-2.6 0l-3.7 3.7-3.6-3.8c-.7-.7-1.9-.7-2.6 0-.7.7-.7 1.9 0 2.6l3.7 3.7-3.7 3.7c-.8.8-.8 2-.1 2.7z" class="st0"/><linearGradient id="SVGID_1_" x1="34.238" x2="48" y1="39.105" y2="39.105" gradientUnits="userSpaceOnUse"><stop offset="0" style="stop-color:#6366f1"/><stop offset=".5" style="stop-color:#8b5cf6"/><stop offset="1" style="stop-color:#d946ef"/></linearGradient><path d="m43.7 39.1 3.7-3.7c.7-.7.7-1.9 0-2.6-.7-.7-1.9-.7-2.6 0l-3.7 3.7-3.7-3.7c-.7-.7-1.9-.7-2.6 0-.7.7-.7 1.9 0 2.6l3.7 3.7-3.7 3.7c-.7.7-.7 1.9 0 2.6.4.4.8.5 1.3.5s.9-.2 1.3-.5l3.7-3.7 3.7 3.7c.4.4.8.5 1.3.5s.9-.2 1.3-.5c.7-.7.7-1.9 0-2.6l-3.7-3.7z" style="fill:url(#SVGID_1_)"/><linearGradient id="SVGID_00000124878017276270081520000011265152839724395930_" x1="22.153" x2="37.93" y1="15.944" y2="15.944" gradientUnits="userSpaceOnUse"><stop offset="0" style="stop-color:#6366f1"/><stop offset=".5" style="stop-color:#8b5cf6"/><stop offset="1" style="stop-color:#d946ef"/></linearGradient><path d="m31.3 4.6-.9-.9H36c1 0 1.8-.8 1.8-1.8S37.1 0 36.1 0H25.4c-.1 0-.1 0-.2.1-.1 0-.1.1-.2.1 0 0-.1 0-.1.1-.2.1-.4.3-.5.5l-.1.1c0 .1-.1.1-.1.2s0 .1-.1.2V12c0 1 .8 1.8 1.8 1.8s1.8-.8 1.8-1.8V6.3l.9.9c4.6 4.6 4.6 9 3.7 12-1.2 4.3-4.9 8.1-8.9 9.1-1 .2-1.6 1.2-1.3 2.2.2.8 1 1.4 1.8 1.4.1 0 .3 0 .4-.1 5.3-1.3 10.1-6.1 11.6-11.7 1.7-5.5 0-11-4.6-15.5z" style="fill:url(#SVGID_00000124878017276270081520000011265152839724395930_)"/></svg>