<svg xmlns="http://www.w3.org/2000/svg" xml:space="preserve" id="Layer_1" x="0" y="0" style="enable-background:new 0 0 48 48" version="1.1" viewBox="0 0 48 48"><style>.st0{fill:#6366f1}</style><path d="M35.5 28.2 30 22.7c-.7-.7-1.9-.7-2.6 0-.7.7-.7 1.9 0 2.6l4.2 4.2-4.2 4.2c-.7.7-.7 1.9 0 2.6.4.4.8.5 1.3.5s.9-.2 1.3-.5l5.5-5.5c.7-.7.7-1.8 0-2.6zM20.7 22.7c-.7-.7-1.9-.7-2.6 0l-5.5 5.5c-.7.7-.7 1.9 0 2.6l5.5 5.5c.4.4.8.5 1.3.5s.9-.2 1.3-.5c.7-.7.7-1.9 0-2.6l-4.2-4.2 4.2-4.2c.7-.7.7-1.9 0-2.6z" class="st0"/><linearGradient id="SVGID_1_" x1="3.692" x2="44.308" y1="24" y2="24" gradientUnits="userSpaceOnUse"><stop offset="0" style="stop-color:#6366f1"/><stop offset=".5" style="stop-color:#8b5cf6"/><stop offset="1" style="stop-color:#d946ef"/></linearGradient><path d="M44.3 14.4c0-.1 0-.2-.1-.2v-.1c0-.1-.1-.2-.1-.2v-.1c-.1-.1-.1-.2-.2-.3L30.8.5c-.1-.1-.2-.2-.3-.2h-.1c-.1 0-.2-.1-.2-.1h-.1c-.1 0-.2-.1-.2-.1H7.4c-2 0-3.7 1.7-3.7 3.7v40.6c0 2 1.7 3.7 3.7 3.7h33.2c2 0 3.7-1.7 3.7-3.7v-30zM31.4 6.3l6.6 6.6h-6.6V6.3zm-24 38V3.7h20.3v11.1c0 1 .8 1.8 1.8 1.8h11.1v27.7H7.4z" style="fill:url(#SVGID_1_)"/></svg>