<svg xmlns="http://www.w3.org/2000/svg" xml:space="preserve" id="Layer_1" x="0" y="0" style="enable-background:new 0 0 48 48" version="1.1" viewBox="0 0 48 48"><style>.st1{fill:#6366f1}</style><linearGradient id="SVGID_1_" x1="16.251" x2="48.005" y1="37.824" y2="37.824" gradientTransform="matrix(1 0 0 -1 0 50)" gradientUnits="userSpaceOnUse"><stop offset="0" style="stop-color:#6366f1"/><stop offset=".5" style="stop-color:#8b5cf6"/><stop offset="1" style="stop-color:#d946ef"/></linearGradient><path d="M16.6 23.6c.4.5.9.8 1.5.8.4 0 .8-.1 1.1-.4l28-20.7c.8-.6 1-1.8.4-2.6s-1.8-1-2.6-.4L17 21c-.8.6-1 1.8-.4 2.6z" style="fill:url(#SVGID_1_)"/><path d="M13.7 6.6h1.1v1.1c0 1 .8 1.8 1.8 1.8s1.8-.8 1.8-1.8V6.6h1.1c1 0 1.8-.8 1.8-1.8S20.5 3 19.5 3h-1.1V1.8c0-1-.8-1.8-1.8-1.8s-1.8.8-1.8 1.8V3h-1.1c-1 0-1.8.8-1.8 1.8-.1 1 .7 1.8 1.8 1.8zM3.3 18.5h2.6V21c0 1 .8 1.8 1.8 1.8S9.5 22 9.5 21v-2.6h2.6c1 0 1.8-.8 1.8-1.8s-.8-1.8-1.8-1.8H9.6v-2.6c0-1-.8-1.8-1.8-1.8S6 11.2 6 12.2v2.6H3.3c-1 0-1.8.8-1.8 1.8s.8 1.9 1.8 1.9z" class="st1"/><linearGradient id="SVGID_00000158729437802965646990000010070161857605667472_" x1="0" x2="48" y1="17.319" y2="17.319" gradientTransform="matrix(1 0 0 -1 0 50)" gradientUnits="userSpaceOnUse"><stop offset="0" style="stop-color:#6366f1"/><stop offset=".5" style="stop-color:#8b5cf6"/><stop offset="1" style="stop-color:#d946ef"/></linearGradient><path d="M48 27c0-4.3-5-7.9-13.3-9.6-1-.2-2 .4-2.2 1.4s.4 2 1.4 2.2c7.1 1.5 10.4 4.2 10.4 6 0 1.9-3.1 4.2-8.6 5.6-.1 0-.2 0-.3.1-3.1.8-6.9 1.3-11.4 1.3s-8.3-.5-11.4-1.3c-.1 0-.2-.1-.3-.1-5.5-1.5-8.6-3.8-8.6-5.6 0-.3.1-.5.2-.8.4-.9 0-2-1-2.4-.9-.4-2 0-2.4 1-.3.6-.5 1.4-.5 2.2 0 4.1 4.2 7 10.1 8.8-.2 3.5-.5 6.9-1 10.1-.1 1 .6 1.9 1.6 2.1h.3c.9 0 1.7-.7 1.8-1.6.4-3.1.8-6.4 1-9.8 3.3.7 6.8 1 10.3 1s7-.3 10.3-1c.2 3.4.5 6.7 1 9.8.1.9.9 1.6 1.8 1.6h.3c1-.1 1.7-1.1 1.6-2.1-.5-3.2-.8-6.6-1-10.1C43.8 34 48 31 48 27z" style="fill:url(#SVGID_00000158729437802965646990000010070161857605667472_)"/><linearGradient id="SVGID_00000014593470084632398220000005434941481794134184_" x1="8.862" x2="39.139" y1="23.104" y2="23.104" gradientTransform="matrix(1 0 0 -1 0 50)" gradientUnits="userSpaceOnUse"><stop offset="0" style="stop-color:#6366f1"/><stop offset=".5" style="stop-color:#8b5cf6"/><stop offset="1" style="stop-color:#d946ef"/></linearGradient><path d="M12.5 26.4c-.2-.7-.9-1.3-1.8-1.3-1 0-1.8.8-1.8 1.8 0 1.4 1.5 4.8 15.1 4.8 13.7 0 15.1-3.4 15.1-4.8 0-2-2.4-4.5-13.6-4.8-1-.1-1.9.8-1.9 1.8s.8 1.9 1.8 1.9c4.2.1 7.1.6 8.7 1.1-1.9.5-5.3 1.1-10.1 1.1-6.5.1-10.6-1-11.5-1.6z" style="fill:url(#SVGID_00000014593470084632398220000005434941481794134184_)"/></svg>