<svg xmlns="http://www.w3.org/2000/svg" xml:space="preserve" style="enable-background:new 0 0 48 48" viewBox="0 0 48 48"><linearGradient id="a" x1="0" x2="48" y1="24" y2="24" gradientUnits="userSpaceOnUse"><stop offset="0" style="stop-color:#6366f1"/><stop offset=".5" style="stop-color:#8b5cf6"/><stop offset="1" style="stop-color:#d946ef"/></linearGradient><path d="M42.7 0H5.3C2.4 0 0 2.4 0 5.3v37.3c0 3 2.4 5.4 5.3 5.4h37.3c2.9 0 5.3-2.4 5.3-5.3V5.3C48 2.4 45.6 0 42.7 0zM5.3 3.8h37.3c.9 0 1.6.7 1.6 1.6v8.8H3.8V5.3c0-.8.7-1.5 1.5-1.5zM3.8 42.7V17.9h10.4v26.4H5.3c-.8-.1-1.5-.8-1.5-1.6zm38.9 1.5H17.9V17.9h26.4v24.8c-.1.8-.8 1.5-1.6 1.5z" style="fill:url(#a)"/></svg>