<svg xmlns="http://www.w3.org/2000/svg" xml:space="preserve" id="Layer_1" x="0" y="0" style="enable-background:new 0 0 48 48" version="1.1" viewBox="0 0 48 48"><style>.st1{fill:url(#SVGID_00000142163397156203664920000012135176256309485468_)}</style><linearGradient id="SVGID_1_" x1="10.345" x2="37.655" y1="34.15" y2="34.15" gradientUnits="userSpaceOnUse"><stop offset="0" style="stop-color:#6366f1"/><stop offset=".5" style="stop-color:#8b5cf6"/><stop offset="1" style="stop-color:#d946ef"/></linearGradient><path d="M34.3 32.3h-2.6v-8.5c0-1.8-1.5-3.3-3.3-3.3h-8.9c-1.8 0-3.3 1.5-3.3 3.3v8.5h-2.6c-1.8 0-3.3 1.5-3.3 3.3v8.9c0 1.8 1.5 3.3 3.3 3.3h8.9c.5 0 1-.1 1.5-.4.4.2.9.4 1.5.4h8.9c1.8 0 3.3-1.5 3.3-3.3v-8.9c0-1.8-1.5-3.3-3.4-3.3zm-14.4-8.1h8.2v8.2h-8.2v-8.2zM14 36h8.2v8.2H14V36zm20 8.1h-8.2V36H34v8.1z" style="fill:url(#SVGID_1_)"/><linearGradient id="SVGID_00000003793472490671977890000010011142202214480812_" x1="0" x2="48" y1="24" y2="24" gradientUnits="userSpaceOnUse"><stop offset="0" style="stop-color:#6366f1"/><stop offset=".5" style="stop-color:#8b5cf6"/><stop offset="1" style="stop-color:#d946ef"/></linearGradient><path d="M45.5 11 26.3.8c-1.4-.8-3.1-.8-4.5 0L2.5 11C1 11.8 0 13.5 0 15.2V46c0 1 .8 1.8 1.8 1.8S3.7 47 3.7 46V15.2c0-.4.2-.8.6-1L23.5 4c.3-.2.7-.2 1.1 0l19.2 10.2c.4.2.6.6.6 1V46c0 1 .8 1.8 1.8 1.8S48 47 48 46V15.2c0-1.7-1-3.4-2.5-4.2z" style="fill:url(#SVGID_00000003793472490671977890000010011142202214480812_)"/></svg>