<svg xmlns="http://www.w3.org/2000/svg" width="48" height="48" fill="none"><g fill="url(#b)" clip-path="url(#a)"><path d="M1.875 18.75a1.874 1.874 0 1 0 .001-3.749 1.874 1.874 0 0 0-.001 3.749zM46.125 18.75a1.874 1.874 0 1 0 .001-3.749 1.874 1.874 0 0 0-.001 3.749zM2.44 26.268a1.875 1.875 0 1 0 1.586-3.397 1.875 1.875 0 0 0-1.586 3.397zM43.069 8.387a1.875 1.875 0 1 0 3.397 1.586 1.875 1.875 0 0 0-3.397-1.586zM45.561 26.271a1.875 1.875 0 1 0-1.583-3.398 1.875 1.875 0 0 0 1.583 3.398zM4.931 8.387A1.875 1.875 0 1 0 1.533 9.97 1.875 1.875 0 0 0 4.93 8.387zM25.875 42.375A1.88 1.88 0 0 1 24 44.25a1.88 1.88 0 0 1-1.875-1.875 1.875 1.875 0 0 0-3.75 0C18.375 45.477 20.898 48 24 48s5.625-2.523 5.625-5.625a1.875 1.875 0 0 0-3.75 0zM24 0C14.695 0 7.125 7.57 7.125 16.875c0 4.819 2.042 9.191 5.401 12.299 1.516 1.403 1.866 2.61 2.008 3.605.385 2.691 2.766 4.721 5.541 4.721h7.842c2.797 0 5.18-2.029 5.543-4.72.133-.985.476-2.184 2.014-3.606 2.492-2.306 4.21-5.248 4.968-8.51a16.75 16.75 0 0 0 .433-3.788C40.875 7.57 33.305 0 24 0zm12.79 19.814a12.998 12.998 0 0 1-3.862 6.607c-1.865 1.726-2.877 3.587-3.183 5.857-.111.825-.914 1.472-1.827 1.472h-7.842c-.92 0-1.706-.645-1.828-1.501-.325-2.273-1.333-4.124-3.174-5.827-2.707-2.505-4.198-5.895-4.198-9.546C10.875 9.638 16.763 3.75 24 3.75s13.125 5.888 13.125 13.125c0 .994-.113 1.983-.335 2.939z"/><path d="M26.424 15.549 24 17.973l-2.424-2.424a1.876 1.876 0 0 0-2.652 2.652l3.201 3.201v2.973a1.874 1.874 0 1 0 3.75 0v-2.973l3.201-3.201a1.876 1.876 0 0 0-2.652-2.652z"/></g><defs><linearGradient id="b" x1="0" x2="48" y1="24.115" y2="24.115" gradientUnits="userSpaceOnUse"><stop stop-color="#6366f1"/><stop offset=".5" stop-color="#8b5cf6"/><stop offset="1" stop-color="#d946ef"/></linearGradient><clipPath id="a"><path fill="#fff" d="M0 0h48v48H0z"/></clipPath></defs></svg>