<svg xmlns="http://www.w3.org/2000/svg" xmlns:xlink="http://www.w3.org/1999/xlink" xml:space="preserve" id="Layer_1" x="0" y="0" style="enable-background:new 0 0 1920 1080" version="1.1" viewBox="0 0 1920 1080"><style>.st0{clip-path:url(#SVGID_00000158022278263076500030000016408210663574989723_)}.st1{fill:url(#SVGID_00000108269121555590468110000013313364172072957353_)}.st2{clip-path:url(#SVGID_00000025424072446736387320000004510990300840075964_)}.st3{fill:url(#SVGID_00000130626111371799788660000003806259002364939954_)}.st5{fill:url(#SVGID_00000040571249376362972690000004113274539376545449_)}</style><defs><path id="SVGID_1_" d="M0 0h1920v1080H0z"/></defs><clipPath id="SVGID_00000129183119557567002670000002228896245524958358_"><use xlink:href="#SVGID_1_" style="overflow:visible"/></clipPath><g style="clip-path:url(#SVGID_00000129183119557567002670000002228896245524958358_)"><radialGradient id="SVGID_00000134208090603912555100000003587821520764909500_" cx="0" cy="1080" r="1" gradientTransform="matrix(1627.9979 -1867.3206 -966.1434 -842.319 1044842.438 910043.625)" gradientUnits="userSpaceOnUse"><stop offset="0" style="stop-color:#6387f1;stop-opacity:.1"/><stop offset=".525" style="stop-color:#da46ef;stop-opacity:5.000000e-02"/><stop offset="1" style="stop-color:#6387f1;stop-opacity:.1"/></radialGradient><path d="M0 0h1920v1080H0z" style="fill:url(#SVGID_00000134208090603912555100000003587821520764909500_)"/><defs><path id="SVGID_00000026146129826482483260000000464057056444292239_" d="M0 90h992v990H0z"/></defs><clipPath id="SVGID_00000107561179268280858530000016943359193706456246_"><use xlink:href="#SVGID_00000026146129826482483260000000464057056444292239_" style="overflow:visible"/></clipPath><g style="clip-path:url(#SVGID_00000107561179268280858530000016943359193706456246_)"><radialGradient id="SVGID_00000049220406107683573330000010907281768938067333_" cx="312.627" cy="778.53" r="598.411" gradientUnits="userSpaceOnUse"><stop offset="0" style="stop-color:#6366f1;stop-opacity:5.000000e-02"/><stop offset="1" style="stop-color:#fff;stop-opacity:0"/></radialGradient><path d="M274.3 180.1h76.6c3 .7 6 1.6 9.1 2.1 27.9 4.2 56.2 6.8 83.8 12.7C675 243.8 863.1 440.5 901.5 673c3.7 22.3 6.4 44.8 9.5 67.2v76.6c-.7 3-1.6 6.1-2.1 9.2-5 31.4-7.9 63.3-15.2 94.2-53.3 228.1-246 408.6-476.7 447.3-22.7 3.8-45.7 6.3-68.5 9.4h-71.8c-3.5-.7-7-1.5-10.5-2-31.8-5-64.2-7.9-95.4-15.3-228.2-53.4-408.4-246-447.2-476.8-3.8-22.7-6.3-45.6-9.4-68.4v-71.8c.7-3.8 1.5-7.6 2.1-11.5 4.2-28 6.8-56.2 12.6-83.8 48.8-231 246-419.5 478.2-457.7 22.4-3.6 44.8-6.3 67.2-9.5zm252.6 153.3c-3.5 4.8-6.4 8.6-9.1 12.5-52.3 72.4-104.6 144.7-157 217.1-3.7 5.2-7.5 10.4-11.9 15-13.1 13.8-26 15.1-41.6 4.4-4.3-2.9-8.2-6.3-12-9.8-20.4-18.5-40.7-37.1-61-55.6C178 465.7 121.8 414.3 65.4 363.2c-3-2.7-9.9-5.4-12.5-3.8-16.7 10-32.7 21.2-49.9 32.6 3.6 4.3 6.5 7.9 9.7 11.4C107 506.8 201.2 610.2 295.6 713.6c4 4.4 8.3 8.7 13.1 12.2 10.3 7.4 21 7.2 30.9-.7 4.9-3.9 9.1-9 12.9-14C434.7 603.4 516.9 495.6 599 387.8c2.1-2.7 3.9-5.6 6.4-9.2-26.5-15.2-51.9-29.9-78.5-45.2zm169 762.1c12.1-16.1 22.8-31.4 34.7-45.8 6-7.3 6-11.7-.5-18.8-39-42.1-77.5-84.7-116.2-127.1-28.5-31.2-57.2-62.2-85.4-93.7-20.5-22.9-19.7-40.5 1.7-62.6 1.4-1.4 2.8-2.8 4.3-4.2 57.7-57.3 115.4-114.7 173.2-171.9 13.3-13.1 27-25.8 40.8-38.8-14.8-20.9-28-39.6-41.6-58.8-4.2 4-7.5 6.9-10.6 10-71.1 69.1-142.2 138.4-213.3 207.7-25.1 24.5-50.4 48.8-75.2 73.6-20.5 20.5-20.1 36.9.5 57.6 3.7 3.7 7.4 7.2 11.2 10.8 45.7 43.3 91.4 86.7 137.1 130 46 43.6 92 87.2 139.3 132zm-775.8-10c5.5-4.2 9.6-7.3 13.6-10.6 91.1-74.4 182.2-148.8 273.4-223.2 13.9-11.4 28.3-22.2 41.7-34.1 15.3-13.6 15.3-29 1-43.6-2.8-2.8-5.9-5.4-8.9-8C135.9 677 31 588-73.9 499c-5-4.3-10.2-8.4-15.5-12.9-2.4 3-3.9 4.8-5.3 6.7-13.2 18.4-12.7 12.8 1.3 27.6 76.1 80.1 152.4 160 228.7 240 22 23.1 20.9 40.4-3.7 60.2-56.3 45.1-112.7 90.2-169 135.3-28.3 22.6-56.4 45.3-85.5 68.6 14.4 20.5 28.3 40.2 43 61zm665.3 104.1c-3.6-5.3-6.5-10-9.7-14.5-71.4-99.4-142.8-198.8-214.3-298.2-22.3-31-35.9-31.6-62.3-3.5-87.6 93.4-175.2 186.7-263 279.9-6.4 6.8-14.6 12.1-22.9 18.8 8.3 5.5 12.6 8.4 16.8 11.3 17 11.6 17 11.6 31.9-2.4 72.3-67.5 144.6-135.1 216.8-202.6 31.4-29.3 45.2-28.9 74.8 2.6 69.2 73.9 138.4 147.8 208.3 222.6 7.5-4.4 15.2-9 23.6-14zm-732.8-607.4c-4 9.7-6.5 17.7-10.5 25-5.9 10.9-3.4 19.1 4.9 27.7 23.1 23.7 45.7 47.9 68.3 72 12.6 13.4 25.5 26.4 37.2 40.5 13.6 16.4 11.6 32.1-4.4 46.1-3.6 3.1-7.5 5.9-11.4 8.8-34.4 25.2-69 50.2-103.2 75.6-4 3-9.4 9.2-8.7 12.6 4.3 19.7 10.3 39 15.9 59 2.9-1.5 4.3-2.2 5.6-3C-92 904.8-30.2 863.1 31.5 821.4c7.6-5.1 15.3-10.1 22.3-16 11.7-9.8 13.4-23 4.7-35-3.2-4.5-7.4-8.4-11.5-12.1-46.3-42.1-92.8-84-139.2-126-17.8-16.3-35.8-32.5-55.2-50.1zm933.3 29c-5.7 4.3-9.5 7.1-13.1 10.1l-106.5 87c-18.5 15.1-37.3 29.9-55.4 45.6-19.6 17-19.8 33.3-1.7 52.2l4.2 4.2c50.4 48.8 100.8 97.6 151.3 146.4 3.5 3.4 7.3 6.5 11.9 10.5 6.7-19.7 12.2-37.6 18.9-54.9 4.2-10.9 2.2-18.5-6.3-26.4-30.7-28.4-60.9-57.4-91.3-86.2-28.6-27.1-27.4-40.8 5.3-62.2 29.4-19.1 58.9-38 87.9-57.8 4.6-3.2 9.7-11.1 8.8-15.8-3.2-17.1-8.8-33.8-14-52.7zm-282.9 621c-2.4-3.1-3.3-4.4-4.4-5.5-50.2-52.5-100.3-104.9-150.6-157.3-3.3-3.4-6.9-6.7-10.8-9.5-13.6-9.9-26.4-9.2-38.9 2.1-4.1 3.7-7.8 8-11.3 12.3-42.2 51.5-84.3 103.1-126.5 154.7-3.4 4.1-6.5 8.4-10.5 13.6 12.6 3.6 23.6 6 33.9 9.9 12.5 4.8 20.7 1.5 28.6-9.1 24.3-32.6 49.4-64.6 74.2-96.8 26.4-34.2 39.3-35 69.5-4.4 31 31.6 61.8 63.4 93.3 94.6 4.2 4.2 12 8.1 17.2 7.1 11.9-2.1 23.3-7.3 36.3-11.7zm-52.4-923.9c-16.7-7.5-20.5-6.6-31.4 6.7-28.1 34.2-56 68.5-84.1 102.7-24.8 30.2-38.5 30.5-65.2 1.3-30.7-33.5-61.2-67.3-92.1-100.6-3.4-3.7-9.5-8.1-13.4-7.3-12.1 2.4-23.7 7.2-37.1 11.6 14.3 16 27 30.2 39.7 44.4 40 44.5 79.7 89.2 120 133.4 17.6 19.3 32.9 17.6 47.5-4.1 1.3-2 2.6-4 3.9-6.1 35.4-57.3 70.8-114.5 106.2-171.8 2-3.3 4-6.7 6-10.2z" style="fill:url(#SVGID_00000049220406107683573330000010907281768938067333_)"/></g><g style="opacity:.2;enable-background:new"><linearGradient id="SVGID_00000076605520968437303270000013114169228904140686_" x1="1258.046" x2="2210.31" y1="785.282" y2="785.282" gradientUnits="userSpaceOnUse"><stop offset="0" style="stop-color:#6366f1"/><stop offset=".5" style="stop-color:#8b5cf6"/><stop offset="1" style="stop-color:#d946ef"/></linearGradient><path d="M1734.2 1261.4c-127.2 0-246.7-49.5-336.7-139.5-89.9-89.9-139.5-209.4-139.5-336.6 0-127.2 49.5-246.7 139.5-336.7 89.9-89.9 209.5-139.5 336.7-139.5 127.2 0 246.7 49.5 336.7 139.5 89.9 89.9 139.5 209.5 139.5 336.7 0 127.2-49.5 246.7-139.5 336.7-90 89.9-209.5 139.4-336.7 139.4zm0-950.3c-126.7 0-245.8 49.3-335.3 138.9-89.6 89.6-138.9 208.7-138.9 335.3 0 126.7 49.3 245.8 138.9 335.3 89.6 89.6 208.7 138.9 335.3 138.9s245.8-49.3 335.3-138.9c89.6-89.6 138.9-208.7 138.9-335.3 0-126.7-49.3-245.8-138.9-335.3-89.6-89.6-208.7-138.9-335.3-138.9zm-94.5 854.7c-2.6 0-5.4-.6-8.5-1.8-5.6-2.1-11.5-3.7-17.7-5.4-3-.8-6-1.6-9.2-2.5l-1.3-.4.9-1.1c1-1.4 2-2.6 2.9-3.9 1.9-2.5 3.6-4.8 5.4-7l100.8-123.3c2.6-3.1 5.7-6.8 9.1-9.9 10.4-9.4 20.9-10 32.3-1.8 3 2.2 5.9 4.7 8.7 7.7 40.1 41.8 80 83.6 120 125.4.6.6 1.1 1.3 1.8 2.3.4.6 1 1.3 1.7 2.2l.8 1.1-1.3.4c-3.1 1-6 2.1-8.9 3.2-6.9 2.6-13.4 5-20.2 6.2l-.2-.9.2.9c-4.6.8-11-2.4-14.6-5.9-18.9-18.8-37.9-38.1-56.2-56.9-6-6.2-12.1-12.4-18.2-18.5-12.6-12.8-20.7-17.8-28-17.4-7.4.4-14.9 6.5-25.9 20.8l-15.6 20.1c-14.4 18.6-29.3 37.9-43.6 57.1-4.4 6.3-9.3 9.3-15.2 9.3zm-33.5-11.1c2.7.8 5.3 1.5 7.9 2.1 6.3 1.7 12.2 3.3 17.9 5.4 9.1 3.5 15.4 1.5 21.7-6.9 14.3-19.2 29.2-38.5 43.6-57.1l15.6-20.1c11.6-15 19.2-21 27.3-21.5 8.1-.5 16.3 4.6 29.5 18 6.1 6.2 12.1 12.4 18.2 18.5 18.3 18.7 37.3 38.1 56.2 56.8 3.2 3.2 9.1 6.1 12.9 5.4 6.6-1.2 13-3.6 19.8-6.1 2.5-.9 5-1.9 7.7-2.8l-.9-1.2c-.8-1-1.2-1.6-1.7-2.1-40-41.8-80-83.7-120-125.4-2.7-2.8-5.6-5.3-8.4-7.4-10.5-7.6-20.2-7.1-29.8 1.6-3.4 3.1-6.4 6.6-8.9 9.7L1614 1144.9c-1.8 2.2-3.5 4.4-5.4 7-1 .9-1.7 1.9-2.4 2.8zm326.5-29.3-49.7-53.2c-39.1-41.8-78-83.3-116.9-124.9-23.2-24.8-33.6-25.1-58.3-2l-172.9 161.5c-12.2 11.4-12.7 11.4-26.5 2-2.2-1.5-4.4-3-7.4-5l-7-4.7 1-.8c2.2-1.8 4.3-3.4 6.4-5 4.3-3.3 8.3-6.3 11.7-9.9 64.7-68.7 130.4-138.7 193.9-206.4l15.8-16.8c11.3-12.1 19.4-17 26.9-16.5s14.7 6.3 24.2 19.5c57 79.2 113.9 158.5 170.8 237.7 1.7 2.4 3.4 4.9 5.1 7.6.8 1.3 1.7 2.6 2.7 4l.6.8-20.4 12.1zm-195.8-198.9c9.3 0 18.3 6.5 30.6 19.6 38.9 41.5 77.8 83.1 116.9 124.9l48.7 52.1 17.3-10.3c-.7-1.1-1.4-2.2-2.1-3.2-1.7-2.6-3.3-5.1-5-7.5-56.9-79.3-113.8-158.5-170.8-237.7-9.1-12.6-15.9-18.2-22.7-18.7-6.9-.5-14.5 4.3-25.4 15.9l-15.8 16.8c-63.5 67.7-129.2 137.7-193.9 206.4-3.5 3.7-7.6 6.9-12 10.2-1.8 1.3-3.6 2.7-5.4 4.1l4.9 3.3c3.1 2 5.3 3.5 7.4 5 12.8 8.8 12.8 8.8 24.1-1.7L1706.5 944c12.5-11.7 21.6-17.5 30.4-17.5zm303 112.9-111.8-105.9c-36.5-34.6-72.9-69.1-109.3-103.7l-1.1-1.1c-2.6-2.5-5.3-5-7.8-7.6-16.9-16.9-17-30.6-.4-47.2 14.9-14.9 30.2-29.8 45.1-44.3 5-4.8 9.9-9.6 14.9-14.4 56.7-55.2 113.4-110.5 170.1-165.7 1.7-1.6 3.3-3.2 5.3-5l4-3.7 34.3 48.4-.6.6c-3.5 3.3-6.9 6.5-10.4 9.8-7.3 6.9-14.9 14-22.1 21.2l-.7-.7.7.7c-33.6 33.3-67.7 67.2-100.7 100l-37.3 37.1-1.3 1.3c-.7.7-1.4 1.3-2 2-17 17.6-17.4 30.7-1.4 48.6 15.4 17.2 31.3 34.6 46.7 51.3 7.1 7.8 14.3 15.6 21.4 23.4l24.3 26.7c22.3 24.5 45.4 49.9 68.3 74.7 5.5 5.9 5.6 10 .4 16.2-6.6 8-12.8 16.4-19.3 25.2-2.7 3.7-5.5 7.4-8.4 11.3l-.9.8zm8.5-495.7-2.4 2.2c-1.9 1.8-3.6 3.4-5.3 5-56.7 55.2-113.4 110.5-170.1 165.7-4.9 4.8-9.9 9.6-14.9 14.5-14.9 14.4-30.2 29.4-45.1 44.3-15.8 15.9-15.7 28.3.4 44.6 2.5 2.6 5.2 5.1 7.8 7.5l1.1 1.1c36.4 34.6 72.9 69.1 109.3 103.7l110.2 104.5c2.6-3.5 5.2-7 7.7-10.4 6.5-8.8 12.7-17.2 19.4-25.3 4.5-5.5 4.4-8.5-.4-13.7-22.9-24.8-46-50.1-68.3-74.7l-24.3-26.7c-7.1-7.8-14.2-15.6-21.4-23.4-15.4-16.8-31.3-34.1-46.7-51.4-16.7-18.6-16.3-33 1.4-51.2l2.1-2.1 1.3-1.3 37.3-37.1c33-32.8 67.1-66.7 100.7-100 7.2-7.2 14.8-14.3 22.1-21.2 3.2-3.1 6.5-6.1 9.8-9.2l-31.7-45.4zM1421 1031.4l-.6-.8-34.9-49.4 22.6-18.2c15.5-12.5 30.9-24.8 46.2-37.1 20-16 40-32.1 60.1-48.1 24.9-19.9 49.8-39.9 74.7-59.8 9.8-7.9 14.6-14.9 15.1-22.2.5-7.4-3.4-15.1-12.2-24.4-20-21-40-42-60.1-63-40.1-42-81.5-85.5-122.2-128.3-1.8-1.9-3.3-3.4-4.5-4.6-5.8-5.7-5.8-6.2 0-13.9 1-1.3 2.1-2.9 3.5-4.7.7-1 1.5-2 2.5-3.2.5-.6 1.1-1.4 1.7-2.2l.6-.8 4.8 4c2.8 2.3 5.6 4.6 8.3 6.9 83.7 71 167.3 141.9 251 212.9l.5.5c2.2 1.9 4.5 3.8 6.6 6 6 6.1 8.9 12.4 8.7 18.7-.2 6.1-3.4 12-9.6 17.4-7.2 6.4-14.9 12.5-22.3 18.4-3.7 2.9-7.3 5.8-10.9 8.8l-89.4 73c-42.8 35-85.7 70-128.5 104.9-2.1 1.7-4.3 3.4-6.8 5.3-1.3 1-2.6 2-4.1 3.2l-.8.7zm-32.8-49.8 33.2 47.1c1.2-.9 2.3-1.8 3.3-2.5 2.5-1.9 4.6-3.6 6.7-5.3 42.8-35 85.7-70 128.5-104.9l89.4-73c3.6-3 7.3-5.9 10.9-8.8 7.4-5.9 15.1-12 22.3-18.4 5.7-5.1 8.7-10.5 8.9-16.1.2-5.7-2.5-11.6-8.2-17.3-2-2.1-4.3-4-6.5-5.9l-.5-.5c-83.6-71-167.3-141.9-251-212.9-2.7-2.3-5.5-4.6-8.3-6.9l-3.3-2.8c-.4.5-.8 1-1.2 1.4-1 1.2-1.7 2.1-2.4 3.1-1.3 1.9-2.5 3.4-3.5 4.7-5 6.7-5 6.7-.2 11.4 1.2 1.2 2.8 2.7 4.6 4.6 40.7 42.8 82.2 86.3 122.2 128.3 20 21 40.1 42 60.1 63 9.2 9.7 13.3 17.9 12.7 25.8-.5 7.9-5.5 15.4-15.8 23.6-24.9 20-49.8 39.9-74.7 59.8-20 16-40 32-60.1 48.1-15.4 12.3-30.7 24.6-46.2 37.1l-20.9 17.3zm716.3-44.2-1.1-.9c-1.2-1.1-2.4-2-3.4-3-2.2-1.9-4.2-3.6-6.1-5.4-34.9-33.8-69.8-67.5-104.7-101.3l-15.9-15.4c-1.1-1.1-2.3-2.2-3.4-3.4-7.6-7.9-11.2-15.3-10.8-22.4.3-7 4.3-13.7 12.3-20.6 10.3-8.9 21-17.6 31.5-26 4.3-3.4 8.5-6.9 12.7-10.3 28.3-23.1 56.6-46.3 84.9-69.4 1.9-1.6 3.8-3 6.3-4.9 1.3-1 2.6-2 4.2-3.2l1.1-.9.4 1.4c1.2 4.2 2.4 8.3 3.5 12.2 3 10.3 5.8 19.9 7.6 29.8.8 4.2-3.5 10.8-7.5 13.5-17.8 12.2-36.3 24.2-54.1 35.7-5.3 3.5-10.6 6.9-16 10.4-13.4 8.8-19.4 15.4-20 22.3-.6 6.9 4.1 14.6 15.9 25.8 6.9 6.6 13.9 13.1 20.8 19.7 17 16.1 34.5 32.8 52 49 7.1 6.6 8.7 13.2 5.3 22.1-3.7 9.6-7 19.4-10.4 29.8-1.5 4.5-3 9.2-4.7 14l-.4 1.4zm6.5-283.9c-1.1.8-2.1 1.6-3.1 2.3-2.4 1.8-4.3 3.3-6.2 4.8-28.3 23.1-56.6 46.2-84.9 69.4-4.2 3.5-8.5 6.9-12.7 10.3-10.4 8.4-21.1 17.1-31.4 26-7.5 6.5-11.3 12.8-11.6 19.2-.3 6.6 3.1 13.4 10.3 21 1.1 1.1 2.2 2.2 3.4 3.3l15.9 15.4c34.9 33.8 69.8 67.6 104.7 101.3 1.8 1.8 3.8 3.4 6 5.3.8.7 1.6 1.3 2.4 2.1 1.5-4.3 2.8-8.5 4.2-12.6 3.4-10.4 6.7-20.2 10.4-29.9 3.2-8.1 1.8-13.9-4.8-20-17.5-16.2-35.1-32.9-52-49-6.9-6.6-13.8-13.1-20.8-19.7-12.3-11.6-17.2-19.8-16.5-27.3.7-7.5 6.9-14.6 20.9-23.7 5.3-3.5 10.6-6.9 16-10.4 17.8-11.6 36.2-23.5 54.1-35.7 3.4-2.3 7.3-8.4 6.7-11.6-1.8-9.8-4.6-19.4-7.6-29.6-1.3-3.5-2.4-7.2-3.4-10.9zm-753.6 269.6-.3-1.1c-1.1-4.1-2.3-8.1-3.5-12.2-3.4-12-6.7-23.3-9.2-35-.8-3.7 4.6-9 7.3-11 20.1-14.9 40.7-29.9 60.6-44.4 7.2-5.3 14.5-10.5 21.7-15.8l.9-.7c2.7-2 5.5-4 8-6.2 12.6-11.1 13.7-23 3.4-35.4-7.1-8.6-15-16.9-22.7-24.9-2.3-2.4-4.6-4.9-6.9-7.3l-8.8-9.4c-14.9-15.8-30.3-32.2-45.7-48-7.5-7.7-8.7-14.6-4.1-23.2 2.1-3.9 3.7-7.9 5.5-12.7.9-2.3 1.8-4.6 2.8-7.2l.5-1.3 15.8 14.3c10 9.1 19.7 17.8 29.4 26.5l15.4 14c31.9 28.8 63.7 57.6 95.5 86.5 3.4 3.1 6.7 6.2 9.3 9.8 7.3 10.1 5.8 21.1-3.9 29.2-4.7 4-10 7.5-15 10.9l-2.9 1.9c-49.2 33.3-98.4 66.5-147.6 99.8-.7.5-1.4.9-2.5 1.4-.6.3-1.2.6-2.1 1.1l-.9.4zm10.4-292.7c-.8 2-1.6 4-2.3 5.9-1.8 4.8-3.4 8.9-5.6 12.9-4.2 7.8-3.1 13.9 3.8 21 15.4 15.8 30.8 32.2 45.7 48.1l8.8 9.3c2.3 2.4 4.6 4.9 6.9 7.3 7.7 8 15.6 16.3 22.8 25 11 13.2 9.7 26.4-3.6 38.1-2.6 2.3-5.4 4.3-8.2 6.3l-.9.7c-7.2 5.3-14.5 10.6-21.7 15.8-19.9 14.5-40.5 29.5-60.5 44.4-3.4 2.5-7 7.1-6.6 9.1 2.5 11.6 5.8 22.9 9.2 34.8 1 3.7 2.1 7.3 3.1 11 .4-.2.7-.4 1.1-.5 1-.5 1.7-.9 2.3-1.3 49.2-33.2 98.5-66.5 147.6-99.8l2.9-1.9c5-3.4 10.2-6.8 14.9-10.7 8.9-7.4 10.2-17.4 3.6-26.7-2.5-3.5-5.7-6.5-9-9.5-31.8-28.9-63.7-57.7-95.5-86.5l-15.4-14c-9.7-8.7-19.3-17.5-29.4-26.5l-14-12.3zm375.3 118.1c-4.2 0-8.4-1.5-12.6-4.5-4-2.8-7.4-6.4-10.6-9.8a264404 264404 0 0 1-225.5-247.4c-1.7-1.9-3.3-3.8-5.1-5.9-.9-1-1.7-2.1-2.7-3.2l-.7-.8.9-.6c3.4-2.3 6.8-4.5 10.1-6.7 10.1-6.8 19.7-13.3 29.7-19.3 2.6-1.6 8.5.8 11.1 3.2 37.8 34.2 76.2 69.2 113.2 103l36.9 33.7c11 10.1 22.1 20.2 33.2 30.3 2.7 2.5 6 5.3 9.5 7.7 12 8.2 21.8 7.1 31.9-3.4 3.3-3.5 6.2-7.5 9-11.4l.3-.5c31.2-43.1 62.4-86.3 93.6-129.5l31.5-43.6c1.5-2 2.9-4 4.6-6.2l3.2-4.4 64.2 36.9-.6.9c-.7.9-1.3 1.8-1.8 2.7-1.2 1.7-2.2 3.2-3.3 4.7-64 84-130.2 170.9-196.5 257.8-2.8 3.7-6.3 8-10.4 11.3-4.2 3.3-8.6 5-13.1 5zm-254.3-271.2c.7.8 1.4 1.6 2 2.4 1.7 2.1 3.3 4 5 5.8 75.1 82.5 150.3 165 225.5 247.4 3.1 3.3 6.4 6.8 10.3 9.6 7.9 5.6 16 5.4 23.5-.5 4-3.2 7.3-7.3 10.1-11 66.4-86.9 132.5-173.8 196.5-257.8 1.1-1.4 2.1-2.9 3.2-4.6l1.2-1.8-60.9-35-2.2 3c-1.6 2.2-3.1 4.2-4.5 6.2l-31.5 43.6c-31.2 43.2-62.4 86.3-93.6 129.5l-.3.5c-2.8 3.9-5.8 8-9.2 11.6-10.7 11.2-21.6 12.4-34.4 3.7-3.6-2.5-6.9-5.4-9.7-7.9-11.1-10.1-22.1-20.2-33.2-30.3l-36.9-33.7c-37.1-33.8-75.4-68.8-113.2-103-2.4-2.1-7.4-3.8-8.8-2.9-10 6-19.5 12.4-29.7 19.2-3.1 1.8-6.1 3.9-9.2 6zm243.4 98c-6.2 0-12.5-3.6-19.2-11-23.5-25.8-47.2-52.2-70.1-77.8-8.5-9.5-17.1-19.1-25.6-28.6-6.9-7.7-13.8-15.4-21.1-23.6l-11.6-12.9 1.4-.5c3.1-1 6-2 8.9-3 7.1-2.5 13.9-4.8 20.8-6.2l.2.9-.2-.9c3.6-.7 8.9 3.3 11.6 6.1 16.9 18.2 33.9 36.8 50.3 54.9 7.7 8.5 15.4 16.9 23.1 25.4 11 12 18.8 17.1 25.9 16.9 7.1-.2 14.4-5.5 24.6-17.9 11.9-14.4 23.7-28.9 35.5-43.4 10.5-12.8 21-25.7 31.5-38.5 9-11 12.4-11.7 26.2-5.6l1 .4-2.1 3.5c-1.1 1.9-2.2 3.7-3.3 5.5-28.2 45.7-56.5 91.3-84.7 137-1 1.6-2 3.3-3.1 4.9-6.2 9.2-12.4 13.9-19.1 14.3-.1 0-.5.1-.9.1zm-144.2-153 9.6 10.8c7.3 8.1 14.2 15.9 21.1 23.6 8.6 9.5 17.1 19.1 25.6 28.6 22.9 25.5 46.6 52 70 77.7 6.7 7.4 12.9 10.8 18.8 10.4 6-.4 11.8-4.9 17.6-13.5 1.1-1.6 2.1-3.2 3.1-4.8 28.2-45.7 56.5-91.3 84.7-137 1.1-1.8 2.2-3.6 3.3-5.5l1-1.7c-12-5.3-14.8-4.5-23 5.5-10.5 12.8-21 25.7-31.5 38.5-11.8 14.5-23.7 28.9-35.5 43.4-10.5 12.8-18.3 18.4-26 18.6h-.5c-7.7 0-15.6-5.1-26.9-17.5-7.7-8.4-15.4-16.9-23.1-25.4-16.4-18-33.4-36.7-50.3-54.8-2.9-3.1-7.4-6.1-9.8-5.6-6.8 1.4-13.5 3.7-20.6 6.2-2.5.8-5 1.6-7.6 2.5z" style="fill:url(#SVGID_00000076605520968437303270000013114169228904140686_)"/></g></g></svg>