<svg xmlns="http://www.w3.org/2000/svg" xmlns:xlink="http://www.w3.org/1999/xlink" xml:space="preserve" id="Layer_1" x="0" y="0" style="enable-background:new 0 0 47 44" version="1.1" viewBox="0 0 47 44"><style>.st0{clip-path:url(#SVGID_00000117653163842913695020000006733022513895431581_)}.st1{fill:url(#SVGID_00000150796497253006359300000000820488142713730201_)}</style><defs><path id="SVGID_1_" d="M1.6.1h43.9V44H1.6z"/></defs><clipPath id="SVGID_00000167365691470678885700000014136377043344418998_"><use xlink:href="#SVGID_1_" style="overflow:visible"/></clipPath><g style="clip-path:url(#SVGID_00000167365691470678885700000014136377043344418998_)"><linearGradient id="SVGID_00000054974976429692057530000000793139969859707564_" x1="9.211" x2="38.349" y1="39.749" y2="7.627" gradientTransform="matrix(1 0 0 -1 0 46)" gradientUnits="userSpaceOnUse"><stop offset="0" style="stop-color:#5f4abc"/><stop offset="1" style="stop-color:#7069ef"/></linearGradient><path d="M22.1.1h2.8c.1 0 .2.1.3.1 1 .2 2.1.2 3.1.5 8.5 1.8 15.4 9 16.8 17.5.1.8.2 1.6.3 2.5v2.8c0 .1-.1.2-.1.3-.2 1.2-.3 2.3-.6 3.5-2 8.4-9 15-17.5 16.4-.8.1-1.7.2-2.5.3h-2.6c-.1 0-.3-.1-.4-.1-1.2-.2-2.4-.3-3.5-.6-8.4-2-15-9-16.4-17.5-.1-.8-.2-1.7-.3-2.5v-2.6c0-.1.1-.3.1-.4.2-1 .2-2.1.5-3.1C3.9 8.7 11.1 1.8 19.6.4c.9-.1 1.7-.2 2.5-.3zm9.3 5.6-.4.4c-1.9 2.7-3.8 5.3-5.8 8-.1.2-.3.4-.4.5-.5.5-1 .6-1.5.2-.2-.1-.3-.2-.4-.4-.7-.7-1.5-1.4-2.2-2-2.1-1.9-4.1-3.8-6.2-5.6-.1-.1-.4-.2-.5-.1l-1.8 1.2c.1.2.2.3.4.4 3.5 3.8 6.9 7.6 10.4 11.4.1.2.3.3.5.4.4.3.8.3 1.1 0 .2-.1.3-.3.5-.5 3-4 6-7.9 9-11.9.1-.1.1-.2.2-.3-1-.6-2-1.2-2.9-1.7zm6.2 27.9c.4-.6.8-1.2 1.3-1.7.2-.3.2-.4 0-.7-1.4-1.5-2.8-3.1-4.3-4.7-1-1.1-2.1-2.3-3.1-3.4-.8-.8-.7-1.5.1-2.3l.2-.2 6.3-6.3c.5-.5 1-.9 1.5-1.4-.5-.8-1-1.5-1.5-2.2-.2.1-.3.3-.4.4-2.6 2.5-5.2 5.1-7.8 7.6-.9.9-1.8 1.8-2.8 2.7-.8.8-.7 1.4 0 2.1l.4.4c1.7 1.6 3.4 3.2 5 4.8 1.6 1.7 3.3 3.3 5.1 4.9zm-28.5-.3c.2-.2.4-.3.5-.4 3.3-2.7 6.7-5.5 10-8.2l1.5-1.2c.6-.5.6-1.1 0-1.6l-.3-.3C17 18.3 13.2 15 9.3 11.7c-.2-.2-.4-.3-.6-.5-.1.1-.1.2-.2.2-.5.7-.5.5 0 1 2.8 2.9 5.6 5.9 8.4 8.8.8.8.8 1.5-.1 2.2-2.1 1.7-4.1 3.3-6.2 5-1 .8-2.1 1.7-3.1 2.5.6.9 1.1 1.6 1.6 2.4zm24.4 3.8c-.1-.2-.2-.4-.4-.5-2.6-3.6-5.2-7.3-7.9-10.9-.8-1.1-1.3-1.2-2.3-.1-3.2 3.4-6.4 6.8-9.6 10.3-.2.3-.5.4-.8.7.3.2.5.3.6.4.4.3.8.3 1.2-.1 2.6-2.5 5.3-5 8-7.4 1.1-1.1 1.7-1.1 2.7.1 2.5 2.7 5.1 5.4 7.6 8.2.3-.4.6-.5.9-.7zM6.6 14.8c-.1.4-.2.7-.4.9-.2.4-.1.7.2 1 .8.9 1.7 1.8 2.5 2.6.5.5.9 1 1.4 1.5.5.6.4 1.2-.2 1.7-.1.1-.3.2-.4.3-1.3.9-2.5 1.8-3.8 2.8-.1.1-.3.3-.3.5.2.7.4 1.4.6 2.2.1-.1.2-.1.2-.1 2.3-1.5 4.5-3.1 6.8-4.6.3-.2.6-.4.8-.6.4-.4.5-.8.2-1.3-.1-.2-.3-.3-.4-.4-1.7-1.5-3.4-3.1-5.1-4.6-.7-.7-1.4-1.3-2.1-1.9zm34.3 1.1c-.2.2-.3.3-.5.4-1.3 1.1-2.6 2.1-3.9 3.2-.7.6-1.4 1.1-2 1.7-.7.6-.7 1.2-.1 1.9l.2.2c1.8 1.8 3.7 3.6 5.5 5.4.1.1.3.2.4.4.2-.7.4-1.4.7-2 .2-.4.1-.7-.2-1-1.1-1-2.2-2.1-3.3-3.2-1-1-1-1.5.2-2.3 1.1-.7 2.2-1.4 3.2-2.1.2-.1.4-.4.3-.6-.2-.7-.4-1.3-.5-2zM30.5 38.6c-.1-.1-.1-.2-.2-.2-1.8-1.9-3.7-3.8-5.5-5.8-.1-.1-.3-.2-.4-.3-.5-.4-1-.3-1.4.1-.2.1-.3.3-.4.5-1.5 1.9-3.1 3.8-4.6 5.7-.1.2-.2.3-.4.5.5.1.9.2 1.2.4.5.2.8.1 1-.3l2.7-3.6c1-1.3 1.4-1.3 2.5-.2 1.1 1.2 2.3 2.3 3.4 3.5.2.2.4.3.6.3.6-.2 1-.4 1.5-.6zM28.6 4.8c-.6-.3-.8-.2-1.2.2-1 1.3-2.1 2.5-3.1 3.8-.9 1.1-1.4 1.1-2.4 0-1.1-1.2-2.2-2.5-3.4-3.7-.1-.1-.4-.3-.5-.3-.4.1-.9.3-1.4.4.5.6 1 1.1 1.5 1.6 1.5 1.6 2.9 3.3 4.4 4.9.6.7 1.2.6 1.7-.2 0-.1.1-.1.1-.2L28.2 5c.2 0 .3-.1.4-.2z" style="fill:url(#SVGID_00000054974976429692057530000000793139969859707564_)"/></g></svg>