<svg data-name="MuiscaDesigns" xmlns="http://www.w3.org/2000/svg" viewBox="0 0 400 310.52">
  <defs>
    <style>
      .cls-1{fill:#fff}.cls-2{fill:#171717}
    </style>
  </defs>
  <path class="cls-1" d="M166.54 79.77c2.14-1.5 2.28-3.7.46-5.54-.39-.39-.82-.75-1.23-1.12L141.38 51c-.55 1.36-1 2.59-1.53 3.76a1.93 1.93 0 00.47 2.51c4.43 4.62 8.8 9.31 13.18 14 2.53 2.7 2.32 5-.65 7.19-4.73 3.45-9.46 6.88-14.18 10.34-.39.29-1 .88-.9 1.19.65 2.59 1.43 5.15 2.19 7.8 1.08-.77 1.85-1.34 2.64-1.88l15.8-10.64c2.72-1.82 5.46-3.61 8.14-5.5zM196.48 40.62c2.26 2.51 4.38 2.32 6.19-.56.48-.77 1-1.55 1.42-2.32l13.35-21.56c-2.6-.85-2.61-.85-4.31 1.23-3.65 4.44-7.27 8.9-10.92 13.35-2.49 3-4.63 3.08-7.25.21-4.19-4.58-8.35-9.18-12.55-13.75-.3-.34-.85-.82-1.16-.74-1.62.44-3.2 1-4.94 1.62.54.63.89 1 1.26 1.46zM196.91 113.14l-16.76 20.49c-.31.38-.6.78-1 1.31 1.81.51 3.48.9 5.1 1.43a1.89 1.89 0 002.41-.82c3.53-4.66 7.12-9.28 10.7-13.9 2.24-2.89 4.52-3 7.07-.41 4.38 4.47 8.75 9 13.15 13.38a1.92 1.92 0 001.48.62c1.64-.44 3.22-1.07 5-1.69l-19.75-20.65c-2.74-2.9-4.93-2.79-7.4.24z" transform="translate(.18)"/>
  <path class="cls-1" d="M198.19 68.34c2.11 2.31 4.41 2.14 6.32-.42 4.59-6.14 9.11-12.33 13.77-18.42 6.14-8 12.39-16 18.77-24.27l-10-5.77-21.65 29.92c-2.31 3.19-4.51 3.44-7.39.82L178 31.94l-10.58-9.65-6.87 4.58c.23.36.27.46.33.53q18.66 20.48 37.31 40.94zM191.42 81.24c2.31-1.89 2.31-4.15.09-6.15-.26-.23-.54-.46-.81-.68l-27.22-23.1-14.73-12.49-2 2.68a1.28 1.28 0 00.19.35L177.65 74c2.33 2.45 2.16 4.89-.44 7l-19.84 15.9-12.86 10.32L150 115c.5-.37.83-.59 1.13-.84l26-21.3c4.69-3.93 9.52-7.74 14.29-11.62zM205.67 88c-2.34-3.24-4.37-3.34-7.07-.46q-17 18.17-34.07 36.29c-.74.79-1.55 1.52-2.43 2.38 1.06.71 2 1.23 2.79 1.89s1.5.51 2.29-.24q14.44-13.56 29-27.06c3.13-2.91 5.35-2.85 8.25.25q12.95 13.8 25.85 27.62a14.63 14.63 0 011.08 1.41l3.16-1.89c-.38-.56-.64-1-.93-1.38zM248 77.93c-2.6-2.48-2.38-4.66.63-6.62 4.14-2.7 8.29-5.37 12.41-8.1.42-.28 1-1 .88-1.31-.55-2.33-1.26-4.63-2-7.15-.63.49-1 .77-1.4 1.08L238 72.57c-2.81 2.3-2.93 4.6-.33 7.12q9.87 9.59 19.77 19.15c.35.33.73.63 1.31 1.14.9-2.7 1.68-5.19 2.57-7.64a1.9 1.9 0 00-.63-2.34c-4.28-4-8.52-8-12.69-12.07z" transform="translate(.18)"/>
  <path class="cls-1" d="M227.21 80c-2.53-2.77-2.47-5.24.21-7.9Q237.5 62 247.6 52c2.46-2.44 4.89-4.91 7.44-7.48l-5.17-7.31-37.81 36.89c-2.76 2.69-2.77 5 0 7.61l27.22 25.81 9.19 8.72 5.32-7.08-1.73-1.91z" transform="translate(.18)"/>
  <path class="cls-2" d="M199.82 0a76 76 0 1076 76 76 76 0 00-76-76zm-61.15 88.81c4.72-3.46 9.45-6.89 14.18-10.34 3-2.17 3.18-4.49.65-7.19-4.38-4.67-8.75-9.36-13.18-14a1.93 1.93 0 01-.47-2.51c.55-1.17 1-2.4 1.53-3.76l24.39 22.08c.41.37.84.73 1.23 1.12 1.82 1.84 1.68 4-.46 5.54-2.68 1.89-5.42 3.68-8.14 5.51l-15.8 10.66c-.79.54-1.56 1.11-2.64 1.88-.76-2.65-1.54-5.21-2.19-7.8-.08-.31.51-.9.9-1.19zM150 115l-5.46-7.74 12.83-10.36L177.21 81c2.6-2.09 2.77-4.53.44-7Q162.32 57.93 147 41.85a1.28 1.28 0 01-.19-.35l2-2.68 14.73 12.49 27.22 23.1c.27.22.55.45.81.68 2.22 2 2.22 4.26-.09 6.15-4.77 3.88-9.6 7.69-14.37 11.58q-13 10.62-26 21.3c-.31.25-.64.47-1.11.88zm63.16-97.55c1.7-2.08 1.71-2.08 4.31-1.23l-13.38 21.52c-.47.77-.94 1.55-1.42 2.32-1.81 2.88-3.93 3.07-6.19.56l-18.91-21.06c-.37-.41-.72-.83-1.26-1.46 1.74-.59 3.32-1.18 4.94-1.62.31-.08.86.4 1.16.74 4.2 4.57 8.36 9.17 12.55 13.75 2.62 2.87 4.76 2.81 7.25-.21 3.65-4.45 7.27-8.91 10.92-13.35zm-45.71 4.88L178 31.94l20 18.26c2.88 2.62 5.08 2.37 7.39-.82L227 19.46l10 5.77c-6.38 8.24-12.63 16.22-18.77 24.27-4.66 6.09-9.18 12.28-13.77 18.42-1.91 2.56-4.21 2.73-6.32.42q-18.61-20.46-37.26-40.94c-.06-.07-.1-.17-.33-.53zm-2.89 101.52q17-18.14 34.07-36.29c2.7-2.88 4.73-2.78 7.07.46l27.88 38.81c.29.4.55.82.93 1.38l-3.16 1.89a14.63 14.63 0 00-1.08-1.41q-12.94-13.85-25.88-27.69c-2.9-3.1-5.12-3.16-8.25-.25q-14.49 13.53-29 27.06c-.79.75-1.38 1-2.29.24s-1.73-1.18-2.79-1.89c.94-.83 1.73-1.56 2.47-2.35zm32.84-2.16c-3.58 4.62-7.17 9.24-10.7 13.9a1.89 1.89 0 01-2.41.82c-1.62-.53-3.29-.92-5.1-1.43.39-.53.68-.93 1-1.31l16.76-20.49c2.47-3 4.66-3.1 7.4-.24l19.75 20.65c-1.77.62-3.35 1.25-5 1.69a1.92 1.92 0 01-1.48-.62c-4.4-4.43-8.77-8.91-13.15-13.38-2.58-2.65-4.86-2.52-7.1.37zm41.93-14.13l-27.25-25.85c-2.79-2.65-2.78-4.92 0-7.61l37.81-36.85 5.11 7.31c-2.55 2.57-5 5-7.44 7.48q-10.08 10-20.18 20c-2.68 2.66-2.74 5.13-.21 7.9l24.87 27.27 1.73 1.91-5.32 7.08zM248 77.93c4.22 4 8.46 8.08 12.74 12.07a1.9 1.9 0 01.63 2.34c-.89 2.45-1.67 4.94-2.57 7.64-.58-.51-1-.81-1.31-1.14l-19.77-19.15c-2.6-2.52-2.48-4.82.33-7.12l20.5-16.74c.38-.31.77-.59 1.4-1.08.71 2.52 1.42 4.82 2 7.15.08.36-.46 1-.88 1.31-4.12 2.73-8.27 5.4-12.41 8.1-3.09 1.96-3.31 4.14-.66 6.62zM119.36 283.56h8.5a19.31 19.31 0 015.68.78 11.3 11.3 0 014.36 2.4 10.78 10.78 0 012.82 4.11 16 16 0 011 5.86 14.85 14.85 0 01-1.08 5.91 11.72 11.72 0 01-3 4.15 11.92 11.92 0 01-4.38 2.45 18 18 0 01-5.43.79h-8.5zm3.3 23.46h5.22a14.45 14.45 0 004-.54 8.72 8.72 0 003.29-1.76 8.34 8.34 0 002.22-3.2 14.65 14.65 0 00.08-9.37 8 8 0 00-5.32-5 14.28 14.28 0 00-4.28-.6h-5.22zM149 283.56h16.25v3h-12.92V295h12v2.91h-12V307h13.34v3H149zM186.38 287.2c-.62-.15-1.26-.29-1.94-.42s-1.27-.24-2-.33a20.35 20.35 0 00-2.39-.14 7.29 7.29 0 00-4.11.88 3.06 3.06 0 00-1.24 2.69 3.44 3.44 0 001.05 2.43 11.86 11.86 0 002.52 1.82c1 .55 2.11 1.1 3.32 1.63a21.36 21.36 0 013.31 1.82 10.6 10.6 0 012.54 2.4 5.44 5.44 0 011 3.36 6.21 6.21 0 01-1 3.68 6.81 6.81 0 01-2.5 2.18 10.83 10.83 0 01-3.32 1 23.18 23.18 0 01-3.43.28 18.83 18.83 0 01-2.83-.2c-.85-.13-1.59-.27-2.21-.43a14.47 14.47 0 01-2-.62l.78-3.14a12.84 12.84 0 001.9.66c.59.16 1.26.3 2 .43a13.56 13.56 0 002.35.19 18.17 18.17 0 002.77-.19 8.47 8.47 0 002.19-.62 3.67 3.67 0 001.46-1.13 2.73 2.73 0 00.52-1.7 3.44 3.44 0 00-1-2.47 11.24 11.24 0 00-2.52-1.82c-1-.58-2.17-1.14-3.37-1.69a20.8 20.8 0 01-3.32-1.86 10.33 10.33 0 01-2.54-2.48 6 6 0 01-1-3.57 7.34 7.34 0 01.43-2.44 5.4 5.4 0 011.45-2.14 7.9 7.9 0 012.68-1.51 12.35 12.35 0 014.09-.58 25 25 0 012.66.14c.84.09 1.57.18 2.19.29s1.41.27 2.06.42zM195.19 283.56h3.29V310h-3.29zM227.34 287.28q-1.71-.34-3.63-.66a35.94 35.94 0 00-4.44-.38 12.43 12.43 0 00-4.42.77 7.69 7.69 0 00-3 2.11 9.11 9.11 0 00-1.85 3.28 14.24 14.24 0 00-.58 4.19 14.69 14.69 0 00.76 5 9.2 9.2 0 002.09 3.44 8.08 8.08 0 003.12 1.95 11.45 11.45 0 003.84.62 17.28 17.28 0 002.39-.15 16.07 16.07 0 001.86-.37 11.73 11.73 0 001.45-.48v-7.1h-4.84v-2.91h8.14v11.6a14.68 14.68 0 01-3.74 1.61 17.82 17.82 0 01-5.26.68 20 20 0 01-5.06-.63 10.43 10.43 0 01-7.31-6.47 18.08 18.08 0 01-1.12-6.87 15.05 15.05 0 011-5.87 11.63 11.63 0 012.85-4.15 12.15 12.15 0 014.19-2.49 15.39 15.39 0 015.06-.83 33.54 33.54 0 013.38.17c1.08.12 2.08.25 3 .39s1.78.32 2.6.53zM236 283.56h3.1l13.89 21h.07c-.05-.75-.09-1.55-.11-2.4s-.09-1.56-.1-2.5 0-1.91 0-2.89v-13.21h3.1V310h-3.1l-13.91-21h-.08c0 .78.06 1.59.12 2.44s.05 1.59.07 2.52 0 1.89 0 2.87V310H236zM278.22 287.2c-.62-.15-1.26-.29-1.93-.42s-1.28-.24-2-.33a20.35 20.35 0 00-2.39-.14 7.29 7.29 0 00-4.11.88 3.06 3.06 0 00-1.24 2.69 3.44 3.44 0 001.05 2.43 11.86 11.86 0 002.52 1.82c1 .55 2.11 1.1 3.32 1.63a21.36 21.36 0 013.31 1.82 10.6 10.6 0 012.54 2.4 5.44 5.44 0 011 3.36 6.21 6.21 0 01-1 3.68 6.81 6.81 0 01-2.5 2.18 10.83 10.83 0 01-3.32 1 23.18 23.18 0 01-3.43.28 18.83 18.83 0 01-2.83-.2c-.85-.13-1.59-.27-2.21-.43a15.41 15.41 0 01-2-.62l.78-3.14a12.84 12.84 0 001.9.66c.59.16 1.26.3 2 .43a13.56 13.56 0 002.35.19 18.17 18.17 0 002.77-.19 8.55 8.55 0 002.2-.62 3.71 3.71 0 001.45-1.13 2.73 2.73 0 00.52-1.7 3.44 3.44 0 00-1-2.47 11.24 11.24 0 00-2.52-1.82c-1-.58-2.17-1.14-3.37-1.69a20.8 20.8 0 01-3.32-1.86 10.51 10.51 0 01-2.54-2.48 6 6 0 01-1-3.57 7.32 7.32 0 01.42-2.44 5.33 5.33 0 011.46-2.14 7.75 7.75 0 012.67-1.51 12.39 12.39 0 014.09-.58 24.86 24.86 0 012.66.14c.84.09 1.57.18 2.19.29s1.41.27 2.06.42zM53.82 183.44l-15.43 39.91c-.47 1.17-.91 2.3-1.31 3.39l-1.23-3.32-15.17-40H3.58l-3.76 71.27h16.72L18.23 223l12 31.69h14l12.12-32.39 1.47 32.39h16.75l-3.66-71.25zM135.83 226.83a17.32 17.32 0 01-1.08 6.76 8.93 8.93 0 01-2.57 3.52 9.88 9.88 0 01-3.84 1.82 24.17 24.17 0 01-10.77 0 9.7 9.7 0 01-3.86-1.82 9.18 9.18 0 01-2.64-3.57 16.63 16.63 0 01-1.11-6.71v-43.39H93.25v45.31c0 8.47 2.69 15.2 8 20s12.45 7 21.68 7a34 34 0 0011.9-2 28 28 0 009.44-5.71 25.78 25.78 0 006.14-8.66 26.61 26.61 0 002.16-10.65v-45.29h-16.74z" transform="translate(.18)"/>
  <path class="cls-2" d="M173.01 183.44h16.71v71.25h-16.71z"/>
  <path class="cls-2" d="M245.6 217.24a54.69 54.69 0 00-8.52-4.68c-2.7-1.19-5.21-2.42-7.46-3.66a22.73 22.73 0 01-5-3.58 3.58 3.58 0 01-1.12-2.58c0-1.92.69-2.4 1-2.63.53-.37 2.29-1.24 7.12-1.24a43.55 43.55 0 015.08.29c1.66.19 3.13.43 4.38.7h.1c1.51.3 3 .62 4.34 1l4.66 1.16 2.82-16.27-4.08-1a87.31 87.31 0 00-5.15-1.06c-1.53-.26-3.35-.5-5.42-.72a63.21 63.21 0 00-6.73-.35 33.69 33.69 0 00-11.13 1.63 22.68 22.68 0 00-7.82 4.46 16.82 16.82 0 00-4.64 6.84 21.82 21.82 0 00-1.26 7.25 18.48 18.48 0 003.26 11 28.72 28.72 0 007.07 6.92 54.63 54.63 0 008.52 4.79c2.71 1.22 5.27 2.5 7.62 3.81a22.37 22.37 0 014.94 3.54 3.66 3.66 0 011 2.7 2.05 2.05 0 01-.34 1.28 4.39 4.39 0 01-1.72 1.27 15.27 15.27 0 01-4 1.11 38.6 38.6 0 01-5.85.4 27.63 27.63 0 01-4.76-.39c-1.6-.28-3.06-.59-4.31-.92a27.35 27.35 0 01-3.86-1.33l-4.85-2.11-4 16.34 3.65 1.43a43.21 43.21 0 005.21 1.64c1.58.39 3.48.76 5.62 1.08a48.89 48.89 0 007.34.51 59 59 0 008.75-.69 29.6 29.6 0 009.19-2.91 20.62 20.62 0 007.5-6.51 19.1 19.1 0 003.25-11.25 17.27 17.27 0 00-3.31-10.58 29.6 29.6 0 00-7.09-6.69zM317.9 237.78a33.42 33.42 0 01-4.17 1.12c-1.4.28-3.13.55-5.16.81a50.84 50.84 0 01-6.46.38 13.72 13.72 0 01-5.92-1.31 14.74 14.74 0 01-5-3.85 19.47 19.47 0 01-3.55-6.41 26.85 26.85 0 01-1.36-8.81 34.12 34.12 0 011-8 21.46 21.46 0 012.91-6.87 15.26 15.26 0 014.87-4.72 13.11 13.11 0 017-1.71 45.17 45.17 0 015.84.37c1.89.26 3.64.57 5.2.93s3.11.79 4.5 1.23l4.57 1.46 3.77-15.51-4-1.24c-1.68-.52-3.52-1-5.47-1.45s-4.22-.84-6.58-1.14a64.47 64.47 0 00-7.71-.44 35.73 35.73 0 00-13.33 2.38 29.49 29.49 0 00-10.75 7.31 33.89 33.89 0 00-7 11.73 45.86 45.86 0 00-2.46 15.54 46.83 46.83 0 002 14.08A33 33 0 00277 245.3a29.08 29.08 0 0010.66 7.83 35.88 35.88 0 0014.45 2.75 60.33 60.33 0 008-.5c2.36-.32 4.47-.67 6.26-1.06a53.52 53.52 0 006-1.59l3.89-1.3-3.66-15.28zM399.25 249.66c-.17-1.35-.32-2.66-.44-3.93s-.21-2.44-.25-3.68-.06-2.5-.06-3.7V207a50.35 50.35 0 00-.93-9.82 25 25 0 00-3.83-9.22 20.26 20.26 0 00-8.16-6.79c-3.38-1.61-7.53-2.39-12.69-2.39a93 93 0 00-9.74.48c-3 .32-5.64.7-7.92 1.16-2.61.45-5.06.95-7.27 1.48l-4.31 1 4.15 17.9 4.52-1.29c1.69-.48 3.59-.94 5.61-1.34 1.72-.33 3.74-.64 6-.94a52.57 52.57 0 016.74-.42c3.15 0 4.61.51 5.2.82a4.23 4.23 0 011.91 1.9 11.52 11.52 0 011.09 4.43c.08 1.12.14 2.33.19 3.61l-1.57.08c-2.53.13-4.65.29-6.31.47a62.24 62.24 0 00-11.72 2 42.11 42.11 0 00-10.73 4.47 26.36 26.36 0 00-8.24 7.62 19.76 19.76 0 00-3.4 11.42c0 7.9 2.29 13.78 6.79 17.48 4.24 3.49 9.87 5.26 16.74 5.26a34.56 34.56 0 0013.11-2.48c2-.84 4.2-1.83 6.43-3l.95 5.19 18.71-1.94zm-42.12-16c0-2.88 1.13-4.1 2.12-4.85 1.36-1 4.4-2.4 11.27-3.26 1.14-.16 2.43-.3 3.86-.43s3-.23 4.49-.31h.25v7.88a43.61 43.61 0 01-6.92 3.88 23.15 23.15 0 01-9.36 1.77 7 7 0 01-4.56-1.28c-.28-.29-1.15-.97-1.15-3.41z" transform="translate(.18)"/>
</svg>
